<svg width="110" height="106" viewBox="0 0 110 106" fill="none" xmlns="http://www.w3.org/2000/svg">
<g clip-path="url(#clip0_230_3980)">
<rect width="110" height="106" rx="10" fill="#F8F8F8"/>
<rect x="13" y="24" width="84" height="106" rx="8" fill="#252A31"/>
<rect x="19" y="32" width="20" height="4" rx="2" fill="#484848"/>
<rect x="75" y="32" width="4" height="4" rx="2" fill="#484848"/>
<rect x="81" y="32" width="4" height="4" rx="2" fill="#484848"/>
<rect x="87" y="32" width="4" height="4" rx="2" fill="#484848"/>
<rect x="19" y="101" width="2" height="2" rx="1" fill="#484848"/>
<rect x="23" y="101" width="2" height="2" rx="1" fill="#484848"/>
<rect x="27" y="101" width="2" height="2" rx="1" fill="#484848"/>
<rect x="89" y="101" width="2" height="2" rx="1" fill="#484848"/>
<rect x="19" y="42" width="7" height="3" rx="1.5" fill="#484848"/>
<rect x="28" y="42" width="7" height="3" rx="1.5" fill="#484848"/>
<rect x="19" y="51" width="72" height="44" rx="4" fill="#484848"/>
</g>
<defs>
<clipPath id="clip0_230_3980">
<rect width="110" height="106" rx="10" fill="white"/>
</clipPath>
</defs>
</svg>
