<svg fill="none" xmlns="http://www.w3.org/2000/svg" viewBox="0 0 110 106"><g clip-path="url(#a)"><rect width="110" height="106" rx="10" fill="#F4EBFF"/><rect x="13" y="24" width="84" height="106" rx="8" fill="#fff"/><rect x="19" y="32" width="20" height="4" rx="2" fill="#F3F4F6"/><rect x="75" y="32" width="4" height="4" rx="2" fill="#F3F4F6"/><rect x="81" y="32" width="4" height="4" rx="2" fill="#F3F4F6"/><rect x="87" y="32" width="4" height="4" rx="2" fill="#F3F4F6"/><rect x="19" y="101" width="2" height="2" rx="1" fill="#F3F4F6"/><rect x="23" y="101" width="2" height="2" rx="1" fill="#F3F4F6"/><rect x="27" y="101" width="2" height="2" rx="1" fill="#F3F4F6"/><rect x="89" y="101" width="2" height="2" rx="1" fill="#F3F4F6"/><rect x="19" y="42" width="7" height="3" rx="1.5" fill="#F3F4F6"/><rect x="28" y="42" width="7" height="3" rx="1.5" fill="#F3F4F6"/><rect x="19" y="51" width="72" height="44" rx="4" fill="#F3F4F6"/></g><defs><clipPath id="a"><rect width="110" height="106" rx="10" fill="#fff"/></clipPath></defs></svg>