<svg fill="none" xmlns="http://www.w3.org/2000/svg" viewBox="0 0 110 106"><g clip-path="url(#a)"><rect width="110" height="106" rx="10" fill="#F8F8F8"/><g clip-path="url(#b)"><path d="M13 32a8 8 0 0 1 8-8h34v106H21a8 8 0 0 1-8-8V32Z" fill="#fff"/><rect x="19" y="32" width="20" height="4" rx="2" fill="#F3F4F6"/><rect x="19" y="101" width="2" height="2" rx="1" fill="#F3F4F6"/><rect x="23" y="101" width="2" height="2" rx="1" fill="#F3F4F6"/><rect x="27" y="101" width="2" height="2" rx="1" fill="#F3F4F6"/><rect x="19" y="42" width="7" height="3" rx="1.5" fill="#F3F4F6"/><rect x="28" y="42" width="7" height="3" rx="1.5" fill="#F3F4F6"/><rect x="19" y="51" width="72" height="44" rx="4" fill="#F3F4F6"/></g><g clip-path="url(#c)"><path d="M55 24h34a8 8 0 0 1 8 8v90a8 8 0 0 1-8 8H55V24Z" fill="#252A31"/><rect x="75" y="32" width="4" height="4" rx="2" fill="#484848"/><rect x="81" y="32" width="4" height="4" rx="2" fill="#484848"/><rect x="87" y="32" width="4" height="4" rx="2" fill="#484848"/><rect x="89" y="101" width="2" height="2" rx="1" fill="#484848"/><rect x="19" y="51" width="72" height="44" rx="4" fill="#484848"/></g></g><defs><clipPath id="a"><rect width="110" height="106" rx="10" fill="#fff"/></clipPath><clipPath id="b"><path d="M13 32a8 8 0 0 1 8-8h34v106H21a8 8 0 0 1-8-8V32Z" fill="#fff"/></clipPath><clipPath id="c"><path d="M55 24h34a8 8 0 0 1 8 8v90a8 8 0 0 1-8 8H55V24Z" fill="#fff"/></clipPath></defs></svg>