<svg width="1622" height="412" viewBox="0 0 1622 412" fill="none" xmlns="http://www.w3.org/2000/svg">
<mask id="mask0_212_3809" style="mask-type:luminance" maskUnits="userSpaceOnUse" x="500" y="84" width="1122" height="248">
<path d="M500.4 328.055H640.907V297.841H535.499V95.4306H500.4V328.055ZM678.171 328.055H712.133V153.587H678.171V328.055ZM695.322 126.667C707.022 126.667 716.79 117.58 716.79 106.448C716.79 95.3159 707.022 86.116 695.322 86.116C683.508 86.116 673.854 95.3159 673.854 106.448C673.854 117.58 683.508 126.667 695.322 126.667ZM840.827 153.587H803.23V137.912C803.23 122.464 809.591 114.059 826.174 114.059C833.216 114.059 838.214 115.648 841.395 116.671L849.346 89.1826C844.575 87.3653 834.692 84.5253 820.948 84.5253C793.347 84.5253 769.154 100.655 769.154 133.368V153.587H742.234V180.847H769.154V328.055H803.23V180.847H840.827V153.587ZM957.255 153.587H921.475V111.787H887.514V153.587H861.956V180.847H887.514V283.869C887.399 315.56 911.594 330.895 938.4 330.327C949.191 330.213 956.46 328.168 960.436 326.692L954.302 298.636C952.031 299.091 947.827 300.113 942.375 300.113C931.358 300.113 921.475 296.479 921.475 276.828V180.847H957.255V153.587ZM1068.12 331.576C1106.17 331.576 1133.09 312.835 1140.81 284.437L1108.67 278.645C1102.53 295.115 1087.77 303.52 1068.46 303.52C1039.38 303.52 1019.84 284.665 1018.94 251.044H1142.97V239.003C1142.97 175.963 1105.27 151.315 1065.73 151.315C1017.12 151.315 985.087 188.344 985.087 241.956C985.087 296.137 1016.66 331.576 1068.12 331.576ZM1019.05 225.6C1020.41 200.839 1038.36 179.371 1065.96 179.371C1092.31 179.371 1109.57 198.907 1109.69 225.6H1019.05ZM1214.76 95.4306H1180.8V328.055H1214.76V95.4306ZM1294.39 95.4306H1260.43V328.055H1294.39V95.4306ZM1415.24 331.576C1453.29 331.576 1480.21 312.835 1487.93 284.437L1455.8 278.645C1449.67 295.115 1434.89 303.52 1415.59 303.52C1386.51 303.52 1366.97 284.665 1366.07 251.044H1490.09V239.003C1490.09 175.963 1452.39 151.315 1412.85 151.315C1364.24 151.315 1332.21 188.344 1332.21 241.956C1332.21 296.137 1363.79 331.576 1415.24 331.576ZM1366.17 225.6C1367.53 200.839 1385.48 179.371 1413.08 179.371C1439.44 179.371 1456.71 198.907 1456.81 225.6H1366.17ZM1527.92 328.055H1561.89V221.511C1561.89 198.68 1579.49 182.211 1603.57 182.211C1610.61 182.211 1618.57 183.46 1621.29 184.255V151.769C1617.89 151.315 1611.19 150.973 1606.87 150.973C1586.43 150.973 1568.93 162.56 1562.57 181.301H1560.75V153.587H1527.92V328.055Z" fill="white"/>
</mask>
<g mask="url(#mask0_212_3809)">
<path d="M500.4 328.055H640.907V297.841H535.499V95.4306H500.4V328.055ZM678.171 328.055H712.133V153.587H678.171V328.055ZM695.322 126.667C707.022 126.667 716.79 117.58 716.79 106.448C716.79 95.316 707.022 86.116 695.322 86.116C683.508 86.116 673.854 95.316 673.854 106.448C673.854 117.58 683.508 126.667 695.322 126.667ZM840.827 153.587H803.23V137.912C803.23 122.464 809.591 114.059 826.174 114.059C833.216 114.059 838.214 115.648 841.395 116.671L849.346 89.1826C844.575 87.3653 834.692 84.5253 820.948 84.5253C793.347 84.5253 769.154 100.655 769.154 133.368V153.587H742.234V180.847H769.154V328.055H803.23V180.847H840.827V153.587ZM957.255 153.587H921.475V111.787H887.514V153.587H861.956V180.847H887.514V283.869C887.399 315.56 911.594 330.895 938.4 330.327C949.191 330.213 956.46 328.168 960.436 326.692L954.302 298.636C952.031 299.091 947.827 300.113 942.375 300.113C931.358 300.113 921.475 296.479 921.475 276.828V180.847H957.255V153.587ZM1068.12 331.576C1106.17 331.576 1133.09 312.835 1140.81 284.437L1108.67 278.645C1102.53 295.115 1087.77 303.52 1068.46 303.52C1039.38 303.52 1019.84 284.665 1018.94 251.044H1142.97V239.003C1142.97 175.963 1105.27 151.315 1065.73 151.315C1017.12 151.315 985.087 188.344 985.087 241.956C985.087 296.137 1016.66 331.576 1068.12 331.576ZM1019.05 225.6C1020.41 200.839 1038.36 179.371 1065.96 179.371C1092.31 179.371 1109.57 198.907 1109.69 225.6H1019.05ZM1214.76 95.4306H1180.8V328.055H1214.76V95.4306ZM1294.39 95.4306H1260.43V328.055H1294.39V95.4306ZM1415.24 331.576C1453.29 331.576 1480.21 312.835 1487.93 284.437L1455.8 278.645C1449.67 295.115 1434.89 303.52 1415.59 303.52C1386.51 303.52 1366.97 284.665 1366.07 251.044H1490.09V239.003C1490.09 175.963 1452.39 151.315 1412.85 151.315C1364.24 151.315 1332.21 188.344 1332.21 241.956C1332.21 296.137 1363.79 331.576 1415.24 331.576ZM1366.17 225.6C1367.53 200.839 1385.48 179.371 1413.08 179.371C1439.44 179.371 1456.71 198.907 1456.81 225.6H1366.17ZM1527.92 328.055H1561.89V221.511C1561.89 198.68 1579.49 182.211 1603.57 182.211C1610.61 182.211 1618.57 183.46 1621.29 184.255V151.769C1617.89 151.315 1611.19 150.973 1606.87 150.973C1586.43 150.973 1568.93 162.56 1562.57 181.301H1560.75V153.587H1527.92" fill="url(#paint0_linear_212_3809)"/>
</g>
<mask id="mask1_212_3809" style="mask-type:luminance" maskUnits="userSpaceOnUse" x="0" y="0" width="394" height="412">
<path d="M80.5186 1.10654e-05C80.5186 1.10654e-05 0 2.73414e-05 0 80.5187V331.467C0 331.467 -1.6276e-05 411.985 80.5186 411.985H312.68C312.68 411.985 393.197 411.985 393.197 331.467V80.5187C393.197 80.5187 393.197 1.10654e-05 312.68 1.10654e-05H80.5186Z" fill="white"/>
</mask>
<g mask="url(#mask1_212_3809)">
<path d="M80.5186 1.10654e-05C80.5186 1.10654e-05 0 2.73414e-05 0 80.5187V331.467C0 331.467 -1.6276e-05 411.985 80.5186 411.985H312.68C312.68 411.985 393.197 411.985 393.197 331.467V80.5187C393.197 80.5187 393.197 1.10654e-05 312.68 1.10654e-05H80.5186Z" fill="url(#paint1_linear_212_3809)"/>
</g>
<path d="M137.272 281.715C137.954 284.74 139.031 287.647 140.5 290.397C143.247 295.543 147.273 299.964 152.257 303.421C163.709 313.143 176.997 320.725 191.451 325.777C205.611 330.728 220.608 333.155 235.715 332.94L259.461 331.204C262.532 330.389 265.562 329.676 268.683 329.033C270.035 328.755 271.805 328.441 273.985 328.816C275.46 329.071 276.85 329.589 278.135 330.336C281.735 333.045 283.42 337.417 282.516 341.623C281.64 345.699 278.459 349.031 274.216 350.305C222.958 350.305 171.7 350.305 120.443 350.305C118.198 349.672 116.147 348.561 114.448 347.049C112.459 345.279 111.031 343.027 110.299 340.537C110.299 247.709 110.299 154.881 110.299 62.0534C110.468 59.1201 111.413 56.4841 113.295 54.4561C115.815 51.7414 119.384 50.7721 123.439 50.3321C131.768 49.4294 150.617 49.4987 166.32 50.1147C170.373 49.7281 174.403 51.2334 176.925 54.2388C179.036 56.7521 179.828 60.0041 179.231 63.1388C179.077 119.284 178.924 175.429 178.771 231.575C178.556 241.836 182.131 251.867 189.375 259.575C194.24 264.751 202.18 270.244 216.119 272.816C220.588 273.64 225.136 273.927 229.72 273.684C243.9 273.677 257.624 269.659 268.914 261.745C275.578 257.075 281.282 251.113 285.512 244.381C287.007 242.005 288.314 239.543 289.432 237.001C291.011 231.677 294.92 227.065 300.499 225.28C303.222 224.409 306.142 224.285 309.028 224.847C312.984 225.7 316.471 227.608 318.942 230.489C320.195 231.951 321.224 233.727 321.939 235.916C324.475 243.676 320.862 251.167 319.172 255.235C317.54 259.165 315.618 263.001 313.408 266.739C304.388 280.395 292.056 291.553 277.214 299.08C252.174 311.776 222.74 312.8 196.061 304.072C184.421 299.96 174.017 293.764 165.399 285.623C162.2 282.6 159.279 279.341 156.638 275.855C154.191 272.011 149.756 270.047 145.572 270.645C142.335 271.108 139.6 273.035 137.964 275.637L137.272 281.715Z" fill="white"/>
<defs>
<linearGradient id="paint0_linear_212_3809" x1="474.843" y1="328.055" x2="1628" y2="328.055" gradientUnits="userSpaceOnUse">
<stop stop-color="#7538BA"/>
<stop offset="0.625152" stop-color="#CF2586"/>
<stop offset="1" stop-color="#CF2586"/>
</linearGradient>
<linearGradient id="paint1_linear_212_3809" x1="0" y1="411.985" x2="393.199" y2="411.985" gradientUnits="userSpaceOnUse">
<stop stop-color="#7538BA"/>
<stop offset="0.625152" stop-color="#CF2586"/>
<stop offset="1" stop-color="#CF2586"/>
</linearGradient>
</defs>
</svg>
