<svg xmlns="http://www.w3.org/2000/svg" width="150" height="150" fill="none"><path fill="#F9FAFB" d="M75 124.505c28.276 0 51.198-8.992 51.198-20.084 0-11.093-22.922-20.085-51.198-20.085S23.8 93.328 23.8 104.42c0 11.092 22.923 20.084 51.199 20.084Z"/><path fill="#D0D5DD" d="m60.628 25.496 3.747 5.111-10.267 64.374-3.748-5.11 10.268-64.375Z"/><path fill="#F9FAFB" d="M54.108 95.294a.31.31 0 0 1-.251-.128l-3.749-5.11a.313.313 0 0 1-.057-.235l10.267-64.375a.31.31 0 0 1 .56-.135l3.748 5.11c.05.067.07.152.057.235L54.417 95.031a.31.31 0 0 1-.309.263Zm-3.42-5.502 3.229 4.402 10.129-63.507-3.228-4.402-10.13 63.507Z"/><path fill="#D0D5DD" d="m72.701 36.227 3.748 5.11-8.556 53.645-3.747-5.11L72.7 36.227Z"/><path fill="#F9FAFB" d="M67.893 95.295a.31.31 0 0 1-.252-.128l-3.748-5.11a.313.313 0 0 1-.057-.234l8.555-53.646a.31.31 0 0 1 .56-.135l3.749 5.11c.05.066.07.151.057.235L68.2 95.032a.31.31 0 0 1-.308.263Zm-3.418-5.502 3.228 4.402 8.418-52.778-3.228-4.401-8.418 52.777Z"/><path fill="#D0D5DD" d="m84.775 46.953 3.748 5.11-3.452 21.646-3.749-5.11 3.453-21.646Z"/><path fill="#F9FAFB" d="M85.07 74.022a.31.31 0 0 1-.25-.128l-3.75-5.11a.313.313 0 0 1-.056-.235l3.453-21.646a.31.31 0 0 1 .56-.135l3.748 5.11c.05.067.07.152.057.235L85.379 73.76a.31.31 0 0 1-.308.263Zm-3.419-5.502 3.228 4.401 3.315-20.779-3.228-4.401-3.315 20.78Z"/><path fill="#D0D5DD" d="m96.867 57.555 3.748 5.11-1.277 8.012-3.75-5.11 1.279-8.012Z"/><path fill="#F9FAFB" d="M99.338 70.99a.31.31 0 0 1-.252-.128l-3.748-5.11a.313.313 0 0 1-.057-.234l1.277-8.013a.31.31 0 0 1 .56-.135l3.749 5.11c.05.067.069.151.057.235l-1.278 8.012a.31.31 0 0 1-.308.263Zm-3.42-5.502 3.228 4.402 1.14-7.145-3.228-4.401-1.14 7.144Z"/><path fill="#D0D5DD" d="m93.62 77.914 3.748 5.11-1.907 11.958-3.749-5.11 1.909-11.958Z"/><path fill="#F9FAFB" d="M95.461 95.295a.31.31 0 0 1-.251-.128l-3.749-5.11a.313.313 0 0 1-.057-.234l1.907-11.959a.31.31 0 0 1 .56-.134l3.748 5.11c.05.066.07.15.057.234L95.77 95.032a.31.31 0 0 1-.308.263Zm-3.42-5.502 3.228 4.402 1.77-11.09-3.228-4.402-1.77 11.09Z"/><path fill="#D0D5DD" d="M60.628 25.496 50.36 89.871H36.578l10.266-64.375h13.784Z"/><path fill="#F9FAFB" d="M50.36 90.184H36.576a.313.313 0 0 1-.308-.361l10.267-64.375a.313.313 0 0 1 .308-.264h13.783a.313.313 0 0 1 .309.36L50.668 89.92a.31.31 0 0 1-.308.264Zm-13.416-.625h13.15l10.167-63.75h-13.15l-10.167 63.75Z"/><path fill="#98A2B3" d="m72.701 36.227-8.555 53.645H50.36l8.557-53.645H72.7Z"/><path fill="#F9FAFB" d="M64.146 90.185H50.36a.313.313 0 0 1-.308-.361l8.555-53.646a.313.313 0 0 1 .309-.264H72.7a.313.313 0 0 1 .309.361l-8.556 53.646a.313.313 0 0 1-.308.264Zm-13.42-.625h13.152l8.455-53.02H59.182l-8.456 53.02Z"/><path fill="#D0D5DD" d="M70.99 46.953h13.785L81.322 68.6c-8.437 4.155-14.994 12.112-16.558 21.27h-.62l6.846-42.916Z"/><path fill="#F9FAFB" d="M64.764 90.182h-.62a.313.313 0 0 1-.308-.36l6.844-42.918a.313.313 0 0 1 .309-.263h13.784a.313.313 0 0 1 .309.36l-3.453 21.647a.308.308 0 0 1-.17.23c-8.617 4.243-14.897 12.307-16.388 21.043a.31.31 0 0 1-.307.261Zm6.493-42.916-6.695 41.97c1.69-8.658 7.949-16.593 16.477-20.845l3.37-21.125H71.256Z"/><path fill="#D0D5DD" d="M82.772 102.903a9.408 9.408 0 0 1-.286-.457l-.005-.009a11.064 11.064 0 0 1-.256-.464l-.065-.134a10.784 10.784 0 0 1-.266-.576 10.496 10.496 0 0 1-.229-.59c-.017-.047-.032-.095-.048-.142-.037-.11-.071-.219-.105-.33-.012-.041-.025-.081-.036-.123-.041-.15-.082-.3-.118-.453-.007-.026-.01-.054-.018-.08a11.04 11.04 0 0 1-.114-.586 10.512 10.512 0 0 1-.12-1.024 10.375 10.375 0 0 1-.017-.298c-.003-.075-.007-.15-.008-.225-.003-.103-.003-.206-.003-.309l.001-.222c.003-.107.008-.215.013-.325.004-.07.005-.14.01-.212.009-.121.02-.242.033-.364l.016-.18a12.88 12.88 0 0 1 .123-.822c.176-.97.465-1.91.85-2.814l-3.75-5.11a13.131 13.131 0 0 0-.85 2.815l-.046.273c-.03.184-.054.367-.075.549-.007.06-.011.12-.017.179-.012.12-.024.243-.032.364l-.011.212a8.395 8.395 0 0 0-.013.325v.223c0 .102 0 .205.002.308.001.075.005.15.008.225a10.665 10.665 0 0 0 .138 1.322c.012.071.023.142.037.213a9.671 9.671 0 0 0 .076.372l.019.082c.036.153.075.303.118.453.01.04.023.08.036.122a9.313 9.313 0 0 0 .153.472l.036.108.044.113c.047.125.096.247.147.37.027.06.052.121.078.183.06.133.122.263.186.393l.049.104.015.029c.08.157.165.313.256.464l.005.01c.092.155.188.307.286.457l.017.026c.08.12.164.239.249.356l3.748 5.109a20.91 20.91 0 0 1-.26-.382Z"/><path fill="#F9FAFB" d="M83.039 103.597a.312.312 0 0 1-.253-.128l-.001-.001-3.748-5.109a10.35 10.35 0 0 1-.257-.366l-.015-.024a9.768 9.768 0 0 1-.582-.994l-.032-.067-.018-.039a9.067 9.067 0 0 1-.268-.583 12.947 12.947 0 0 1-.173-.435l-.03-.072-.023-.068-.014-.043-.05-.147c-.038-.113-.072-.227-.107-.34l-.013-.042-.025-.084c-.044-.16-.086-.316-.12-.466l-.019-.084c-.023-.105-.045-.201-.063-.297a.698.698 0 0 1-.01-.055l-.006-.032-.033-.19-.005-.03a10.113 10.113 0 0 1-.046-.297l-.03-.227c-.01-.1-.022-.2-.031-.3l-.02-.229a10.965 10.965 0 0 1-.017-.307c-.002-.076-.007-.154-.008-.23-.003-.106-.003-.211-.003-.317v-.051c0-.059 0-.118.002-.178.002-.11.008-.222.014-.333l.002-.07c.003-.05.004-.098.009-.148.008-.124.02-.249.033-.374l.006-.067c.002-.039.007-.077.01-.118a12.442 12.442 0 0 1 .126-.843c.177-.975.47-1.944.87-2.88a.313.313 0 0 1 .54-.063l3.748 5.11c.065.089.08.206.035.307a12.879 12.879 0 0 0-.877 3.015c-.027.17-.051.352-.072.535l-.01.101-.007.074c-.01.118-.023.236-.031.354a4.126 4.126 0 0 0-.007.135l-.003.072a8.023 8.023 0 0 0-.013.315l-.001.164v.052c0 .1 0 .2.003.298.001.072.005.146.008.218a9.794 9.794 0 0 0 .065.792l.027.212c.012.095.028.188.043.28l.004.026a14.577 14.577 0 0 0 .107.544l.016.078c.034.142.071.286.114.439l.035.118c.032.107.065.214.1.32.015.045.03.091.047.137.02.057.04.113.063.168l.016.046c.046.121.094.239.144.357a8.001 8.001 0 0 0 .257.558l.029.06c.01.024.022.047.034.071.081.157.164.308.248.448l.008.016a10.178 10.178 0 0 0 .53.802l.002.003a.312.312 0 0 1-.067.436.292.292 0 0 1-.187.067Zm-4.58-15.903a12.778 12.778 0 0 0-.67 2.5 11.4 11.4 0 0 0-.073.535l-.01.101-.006.074c-.011.118-.024.236-.032.354a3.965 3.965 0 0 0-.007.133l-.003.073a8.015 8.015 0 0 0-.012.315c-.002.055-.002.11-.002.164v.051c0 .1 0 .2.003.299.001.073.006.146.008.218a9.686 9.686 0 0 0 .064.789l.027.212c.012.095.028.188.043.28l.005.031.03.177.015.082c.018.09.037.18.058.27l.02.09c.033.141.07.288.113.438l.035.118c.032.109.065.214.1.321.015.046.03.092.047.138l.018.052a.766.766 0 0 0 .019.053c.005.016.012.03.017.047l.025.063a12.844 12.844 0 0 0 .22.536c.053.118.111.243.18.38l.028.058c.007.013.013.029.021.043l.014.025a10.044 10.044 0 0 0 .53.904l.014.022c.08.118.16.233.243.347l1.664 2.27-.004-.014-.023-.081a9.684 9.684 0 0 1-.121-.466l-.018-.084a9.102 9.102 0 0 1-.113-.58l-.004-.025a10.113 10.113 0 0 1-.046-.297l-.029-.225c-.012-.1-.022-.2-.032-.302a10.972 10.972 0 0 1-.035-.536c-.002-.076-.007-.153-.008-.23-.003-.106-.003-.212-.003-.317v-.052a7.579 7.579 0 0 1 .016-.51l.002-.07c.003-.05.004-.099.009-.149.008-.123.02-.248.033-.372l.006-.067c.002-.039.007-.078.01-.116a12.481 12.481 0 0 1 .126-.843c.166-.919.436-1.831.801-2.716l-3.314-4.51Z"/><path fill="#D0D5DD" d="m96.867 57.552-1.278 8.013a27.34 27.34 0 0 0-5.224.23l.857 12.077a12.75 12.75 0 0 1 2.397.04L91.712 89.87H77.93l.449-2.814c1.736-4.062 5.439-7.312 9.749-8.61L87.273 66.4a30.326 30.326 0 0 0-5.95 2.199l1.763-11.047h13.78v.001Z"/><path fill="#F9FAFB" d="M91.712 90.183H77.93a.313.313 0 0 1-.308-.361l.449-2.814a.339.339 0 0 1 .02-.074c1.721-4.026 5.426-7.344 9.708-8.711l-.81-11.425a30.173 30.173 0 0 0-5.528 2.082.313.313 0 0 1-.447-.33l1.762-11.048a.313.313 0 0 1 .309-.264h13.783a.313.313 0 0 1 .308.361l-1.278 8.013a.31.31 0 0 1-.325.262 26.977 26.977 0 0 0-4.873.188l.814 11.476a13.718 13.718 0 0 1 2.14.061.312.312 0 0 1 .274.36L92.02 89.917a.31.31 0 0 1-.309.266Zm-13.416-.625h13.15l1.812-11.367a13.154 13.154 0 0 0-2.012-.008.313.313 0 0 1-.335-.289l-.857-12.078a.314.314 0 0 1 .268-.332 27.752 27.752 0 0 1 5.001-.244l1.177-7.375H83.35l-1.626 10.194a30.582 30.582 0 0 1 5.47-1.961.314.314 0 0 1 .39.28l.853 12.048a.312.312 0 0 1-.222.32c-4.197 1.263-7.847 4.48-9.536 8.398l-.383 2.414Z"/><path fill="#D0D5DD" d="M50.36 89.871H36.578l3.747 5.11H67.893l-3.747-5.11H50.36Z"/><path fill="#F9FAFB" d="M67.893 95.293H40.325a.31.31 0 0 1-.252-.128l-3.748-5.11a.311.311 0 0 1-.027-.326.311.311 0 0 1 .28-.17h27.568c.1 0 .193.047.251.127l3.749 5.11a.311.311 0 0 1-.253.497Zm-27.41-.625h26.793l-3.29-4.484H37.194l3.29 4.484Z"/><path fill="#D0D5DD" d="M91.712 89.871H77.93l3.748 5.11H95.46l-3.749-5.11Z"/><path fill="#F9FAFB" d="M95.46 95.293H81.679a.31.31 0 0 1-.252-.128l-3.748-5.11a.311.311 0 0 1-.027-.326.31.31 0 0 1 .28-.17h13.783c.1 0 .193.047.251.127l3.749 5.11a.312.312 0 0 1-.253.497Zm-13.624-.625h13.008l-3.29-4.484H78.546l3.29 4.484Z"/><path fill="#D0D5DD" d="M112.95 75.262c.114.182.226.367.334.553l.091.158c.077.136.154.271.227.409.037.066.073.134.109.202l.189.368.125.253c.058.121.115.242.17.364l.114.25c.057.13.111.258.166.389l.098.236c.061.151.118.304.177.458.022.06.045.117.066.177.025.068.048.137.071.205.06.17.118.34.174.51l.084.275c.046.15.092.299.135.45l.082.304c.039.145.077.29.111.436l.074.318c.032.145.064.288.093.434l.074.376c.018.094.034.189.051.283.024.14.046.284.067.425l.04.273c.021.157.04.315.058.473.009.077.02.154.027.23.025.237.045.474.062.712l3.749 5.11a23.135 23.135 0 0 0-.063-.712l-.026-.23a14.794 14.794 0 0 0-.059-.474 28.528 28.528 0 0 0-.106-.697l-.052-.283c-.014-.077-.026-.154-.042-.23-.009-.05-.022-.098-.031-.147a33.527 33.527 0 0 0-.167-.751c-.035-.146-.074-.29-.111-.436-.027-.102-.053-.203-.082-.304a22.44 22.44 0 0 0-.134-.45 14.762 14.762 0 0 0-.084-.277c-.056-.17-.114-.34-.174-.508-.021-.061-.04-.122-.062-.183l-.009-.022c-.021-.06-.044-.117-.066-.177a16.98 16.98 0 0 0-.177-.458c-.032-.08-.065-.156-.097-.234a18.156 18.156 0 0 0-.451-1.004c-.041-.085-.084-.17-.125-.252l-.091-.184-.098-.186c-.036-.068-.071-.136-.109-.203a14.98 14.98 0 0 0-.227-.408c-.031-.053-.06-.107-.091-.158-.108-.186-.219-.371-.334-.553-.018-.03-.038-.057-.056-.086a16.6 16.6 0 0 0-.244-.377l-.042-.058c-.149-.22-.299-.438-.456-.651l-3.748-5.11c.157.214.308.43.455.651a15.978 15.978 0 0 1 .341.521Z"/><path fill="#F9FAFB" d="M119.764 90.206a.312.312 0 0 1-.252-.128l-3.748-5.11a.31.31 0 0 1-.06-.162 20.72 20.72 0 0 0-.078-.837l-.011-.092c-.018-.156-.036-.311-.057-.467a5.567 5.567 0 0 0-.028-.189l-.012-.079a18.773 18.773 0 0 0-.189-1.07c-.029-.142-.06-.284-.092-.426l-.004-.02a15.617 15.617 0 0 0-.178-.723l-.021-.08-.058-.218c-.042-.149-.087-.296-.132-.445l-.029-.098-.053-.174a18.129 18.129 0 0 0-.171-.503l-.03-.09c-.013-.038-.025-.075-.039-.111l-.038-.097-.029-.077a32.888 32.888 0 0 0-.173-.451l-.063-.152-.033-.08a17.688 17.688 0 0 0-.163-.383c-.029-.066-.058-.131-.089-.196l-.023-.05c-.056-.121-.111-.24-.168-.359l-.122-.248c-.062-.121-.123-.242-.187-.363a9.864 9.864 0 0 0-.105-.2c-.074-.135-.149-.27-.225-.403l-.036-.062-.053-.093a21.247 21.247 0 0 0-.329-.545l-.056-.084c-.091-.145-.186-.288-.28-.43a17.614 17.614 0 0 0-.449-.64.314.314 0 0 1 .504-.37l3.749 5.11c.147.2.299.416.462.66l.016.021a17.47 17.47 0 0 1 .275.422l.057.09c.111.176.225.365.339.56.019.034.038.067.056.102l.035.06c.079.138.156.276.232.416.038.068.074.138.11.206l.037.07.063.117.055.113.037.073c.043.085.084.171.126.257.06.122.117.246.174.371l.025.053c.03.066.061.133.09.2.058.132.114.264.169.397l.032.076c.022.055.046.107.067.161.062.155.121.31.179.467l.026.071.042.108.008.023c.014.036.025.073.038.11l.026.076a17.71 17.71 0 0 1 .232.701l.029.096c.046.151.093.303.137.457.022.076.041.154.062.232l.021.076c.039.147.078.295.114.442.025.1.047.201.069.303l.004.02c.034.146.066.292.095.44l.014.06.018.088.026.142.017.091c.018.099.036.193.051.288.025.143.047.287.068.432l.013.079.029.196c.022.16.04.32.06.48l.009.085c.006.05.013.099.017.149.026.254.047.49.064.722a.312.312 0 0 1-.204.315.326.326 0 0 1-.111.021Zm-3.443-5.536 3.019 4.117c-.011-.09-.022-.18-.035-.269l-.027-.187-.013-.08c-.021-.14-.043-.281-.067-.42-.015-.092-.033-.183-.05-.276l-.018-.102a4.628 4.628 0 0 0-.039-.198c-.005-.025-.011-.049-.015-.074a19.65 19.65 0 0 0-.092-.426l-.004-.021a13.326 13.326 0 0 0-.068-.293c-.034-.145-.072-.286-.109-.43l-.021-.077-.06-.221a16.826 16.826 0 0 0-.132-.443l-.031-.1a4.593 4.593 0 0 0-.052-.172c-.054-.168-.113-.335-.171-.502l-.029-.086-.032-.094-.009-.021c-.012-.035-.025-.067-.037-.099l-.029-.076c-.057-.151-.114-.303-.174-.452l-.062-.15-.034-.079c-.054-.129-.107-.257-.164-.384-.027-.064-.058-.128-.087-.192l-.025-.054c-.056-.12-.111-.24-.168-.359l-.122-.248-.039-.08-.05-.1-.056-.106-.04-.077-.106-.2c-.073-.134-.148-.27-.225-.402l-.036-.064a20.403 20.403 0 0 0-.382-.636l-.055-.085a19.886 19.886 0 0 0-.241-.371l-.04-.057a20.737 20.737 0 0 0-.448-.642l-.805-1.096a25.086 25.086 0 0 1 .196.507l.027.071.041.11c.016.042.029.083.043.125l.03.083c.059.173.12.345.176.518l.057.185.029.095c.046.151.093.304.136.457.021.076.042.152.061.229l.021.079c.039.147.078.294.114.441.025.102.047.203.071.305l.004.02c.033.145.065.29.094.438.027.126.05.254.074.382.018.1.036.193.051.287.025.144.048.288.068.431l.012.078.029.198c.022.16.04.32.058.48l.01.087c.005.049.012.099.016.147.028.221.046.428.062.63Z"/><path fill="#D0D5DD" d="m116.015 84.781 3.749 5.111-12.876 2.885-3.749-5.11 12.876-2.886Z"/><path fill="#F9FAFB" d="M106.887 93.09a.31.31 0 0 1-.251-.127l-3.749-5.11a.313.313 0 0 1 .184-.49l12.876-2.886a.312.312 0 0 1 .321.12l3.749 5.109a.313.313 0 0 1-.184.49l-12.876 2.886a.251.251 0 0 1-.07.009Zm-3.213-5.222 3.344 4.56 12.211-2.736-3.344-4.56-12.211 2.736Z"/><path fill="#D0D5DD" d="m85.183 102.078 3.747 5.11-5.155 11.905-3.749-5.111 5.157-11.904Z"/><path fill="#F9FAFB" d="M83.775 119.405a.31.31 0 0 1-.252-.128l-3.748-5.109a.314.314 0 0 1-.035-.31l5.157-11.904a.314.314 0 0 1 .539-.06l3.749 5.11c.065.089.079.207.034.309l-5.157 11.905a.314.314 0 0 1-.251.186l-.036.001Zm-3.39-5.464 3.319 4.527 4.87-11.241-3.32-4.526-4.87 11.24Z"/><path fill="#D0D5DD" d="m72.083 111.313-3.748-5.11c2.743 3.74 6.789 6.502 11.691 7.778l3.749 5.11c-4.904-1.275-8.949-4.038-11.692-7.778Z"/><path fill="#F9FAFB" d="M83.775 119.404a.306.306 0 0 1-.08-.009c-4.91-1.28-9.013-4.009-11.865-7.896l-3.748-5.11a.314.314 0 0 1 .504-.371c2.765 3.77 6.747 6.418 11.518 7.661.07.018.13.06.174.118l3.748 5.11c.078.107.08.252.007.36a.314.314 0 0 1-.258.137Zm-12.225-9.346.785 1.07c2.595 3.539 6.265 6.09 10.651 7.417l-3.146-4.291c-3.135-.83-5.936-2.255-8.29-4.196Z"/><mask id="b" width="16" height="14" x="68" y="106" maskUnits="userSpaceOnUse" style="mask-type:luminance"><mask id="a" width="16" height="14" x="68" y="106" maskUnits="userSpaceOnUse" style="mask-type:luminance"><path fill="#fff" d="m72.083 111.313-3.748-5.11c2.743 3.74 6.789 6.502 11.691 7.778l3.749 5.11c-4.904-1.275-8.949-4.038-11.692-7.778Z"/></mask><g mask="url(#a)"><path fill="#fff" d="M83.775 119.404a.306.306 0 0 1-.08-.009c-4.91-1.28-9.013-4.009-11.865-7.896l-3.748-5.11a.314.314 0 0 1 .504-.371c2.765 3.77 6.747 6.418 11.518 7.661.07.018.13.06.174.118l3.748 5.11c.078.107.08.252.007.36a.314.314 0 0 1-.258.137Zm-12.225-9.346.785 1.07c2.595 3.539 6.265 6.09 10.651 7.417l-3.146-4.291c-3.135-.83-5.936-2.255-8.29-4.196Z"/></g></mask><g mask="url(#b)"><path fill="#D0D5DD" d="m80.026 113.981 3.749 5.11c-4.903-1.277-8.949-4.038-11.692-7.778l-3.748-5.11c2.743 3.74 6.788 6.502 11.691 7.778Z"/><path fill="#F9FAFB" d="M83.775 119.404a.306.306 0 0 1-.08-.009c-4.91-1.28-9.013-4.009-11.865-7.896l-3.748-5.11a.314.314 0 0 1 .504-.371c2.765 3.77 6.747 6.418 11.518 7.661.07.018.13.06.174.118l3.748 5.11c.078.107.08.252.007.36a.314.314 0 0 1-.258.137Zm-12.225-9.346.785 1.07c2.595 3.539 6.265 6.09 10.651 7.417l-3.146-4.291c-3.135-.83-5.936-2.255-8.29-4.196Z"/></g><path fill="#D0D5DD" d="M116.029 87.71c-.044.802-.13 1.612-.261 2.436-2.168 13.593-15.357 24.615-29.45 24.615-1.156 0-2.28-.074-3.368-.217l5.239-12.09h.092c6.872 0 13.312-5.242 14.634-11.804l13.114-2.94Z"/><path fill="#F9FAFB" d="M86.318 115.072a26.08 26.08 0 0 1-3.41-.219.309.309 0 0 1-.23-.156.31.31 0 0 1-.016-.277l5.24-12.091a.315.315 0 0 1 .285-.188h.092c6.73 0 13.022-5.076 14.328-11.553a.313.313 0 0 1 .237-.243l13.114-2.94a.314.314 0 0 1 .381.323 24.024 24.024 0 0 1-.266 2.467c-2.184 13.716-15.534 24.877-29.755 24.877Zm-2.917-.788c.949.108 1.928.163 2.916.163 13.927 0 27-10.925 29.141-24.352.106-.663.184-1.33.232-1.99l-12.511 2.805c-1.442 6.628-7.882 11.799-14.786 11.856L83.4 114.284Z"/><path fill="#D0D5DD" d="M117.886 101.03c.078-.189.153-.38.227-.57l.066-.174c.092-.243.179-.488.263-.733l.054-.164c.067-.197.129-.395.192-.593l.068-.225c.063-.213.125-.425.182-.64l.033-.121c.067-.252.129-.506.189-.76l.046-.203c.044-.196.086-.393.126-.59.015-.075.031-.149.044-.224a23.729 23.729 0 0 0 .399-3.212l-3.749-5.11a23.773 23.773 0 0 1-.569 4.026c-.015.068-.029.135-.046.203-.06.254-.122.507-.189.76l-.033.122c-.058.214-.12.426-.182.639l-.068.225c-.061.198-.125.396-.192.593l-.054.164a35.772 35.772 0 0 1-.329.907c-.074.192-.149.382-.226.57l-.089.217c-.089.211-.18.422-.274.63l-.04.093a27.726 27.726 0 0 1-.713 1.455c-.033.063-.065.127-.1.189a24.975 24.975 0 0 1-.789 1.383l-.137.224-.215.343-.155.24c-.075.116-.151.229-.227.345l-.155.229c-.081.119-.165.239-.25.357l-.145.205c-.102.142-.206.282-.31.423l-.095.126a32.624 32.624 0 0 1-.813 1.032c-.278.337-.564.669-.857.996l-.02.021a29.432 29.432 0 0 1-.85.909c-.282.291-.571.574-.864.853l-.044.043c-.279.265-.564.524-.854.779l-.079.071a32.946 32.946 0 0 1-1.857 1.506c-.039.029-.08.059-.118.089-.3.223-.605.44-.912.652-.041.03-.084.059-.126.088-.326.223-.657.44-.992.651l-.119.075a32.312 32.312 0 0 1-1.165.695c-.135.076-.27.15-.406.225-.068.037-.137.076-.205.112-.19.102-.381.202-.571.3l-.046.025c-.207.106-.417.209-.625.31-.065.032-.13.061-.197.093-.145.068-.29.136-.437.203l-.193.086a25.208 25.208 0 0 1-.784.337 29.77 29.77 0 0 1-.748.299c-.25.096-.5.187-.754.276l-.215.075c-.196.068-.393.134-.59.198-.063.019-.125.04-.188.061-.298.094-.598.183-.901.266l-.186.052a29.718 29.718 0 0 1-.99.251c-.3.071-.605.136-.907.197l-.169.035c-.308.06-.616.115-.926.165l-.186.03c-.32.05-.64.095-.961.133l-.033.004c-.314.038-.631.068-.946.094-.06.006-.12.012-.18.016-.313.025-.627.043-.943.057l-.184.007a25.855 25.855 0 0 1-4.351-.198l3.748 5.11a25.525 25.525 0 0 0 4.351.197l.185-.007a24.67 24.67 0 0 0 1.122-.072c.317-.026.632-.057.946-.094l.034-.004a30.375 30.375 0 0 0 2.072-.328l.17-.035c.302-.061.605-.126.906-.197.02-.004.04-.008.06-.014.311-.074.622-.156.93-.239l.186-.051a34.7 34.7 0 0 0 .9-.267l.056-.017.135-.044c.197-.064.393-.129.589-.196l.216-.075c.253-.089.505-.18.755-.276l.012-.004c.246-.095.49-.194.735-.295l.214-.09c.19-.081.38-.163.569-.247.043-.02.086-.037.128-.056l.067-.032c.144-.065.288-.133.431-.201l.2-.095a30.24 30.24 0 0 0 1.244-.633l.205-.113c.136-.073.271-.148.406-.225l.069-.038.07-.042a34.26 34.26 0 0 0 1.025-.614l.12-.076c.335-.212.666-.428.991-.65.018-.013.036-.024.054-.035l.073-.053a30.322 30.322 0 0 0 1.921-1.436l.041-.031.066-.055c.29-.238.578-.478.86-.725l.079-.071c.289-.254.574-.514.853-.778l.014-.012.032-.031c.293-.279.582-.562.864-.853l.013-.013c.285-.294.564-.592.838-.895l.014-.015.004-.006c.293-.326.579-.658.857-.996l.007-.008a29.5 29.5 0 0 0 .814-1.033l.086-.117c.104-.14.208-.28.311-.424l.144-.204a28.998 28.998 0 0 0 .406-.587l.229-.345a32.254 32.254 0 0 0 .37-.582l.082-.13c.019-.031.036-.063.055-.093a24.116 24.116 0 0 0 .407-.69c.131-.23.257-.46.382-.694l.1-.188c.094-.182.188-.364.279-.548l.096-.193c.115-.237.228-.475.338-.715l.008-.017.032-.075c.094-.209.185-.419.273-.63.027-.075.056-.147.085-.22Z"/><path fill="#F9FAFB" d="M90.065 120.185a26.08 26.08 0 0 1-3.41-.22.313.313 0 0 1-.21-.125l-3.75-5.109a.315.315 0 0 1-.016-.345.31.31 0 0 1 .31-.15 25.556 25.556 0 0 0 4.3.195l.183-.007c.311-.014.625-.032.932-.056l.178-.015a31.1 31.1 0 0 0 .936-.093l.017-.002.016-.001c.285-.035.596-.078.95-.132l.184-.029c.307-.05.615-.104.916-.164l.167-.033c.324-.066.618-.13.899-.196l.057-.013c.281-.066.583-.144.92-.236l.184-.05c.305-.085.605-.175.891-.264l.187-.059c.195-.063.39-.128.583-.195l.014-.004a32.738 32.738 0 0 0 .947-.343c.23-.088.468-.183.739-.296.065-.026.129-.054.194-.082l.016-.007c.19-.08.379-.162.566-.246l.07-.03.122-.054c.144-.066.289-.134.432-.202l.082-.039.112-.052c.207-.1.414-.202.62-.307l.046-.024c.19-.097.379-.196.566-.297l.129-.071.075-.042c.135-.073.268-.147.402-.222l.137-.079c.349-.2.691-.404 1.017-.608l.119-.075c.335-.212.664-.428.982-.645l.125-.086c.313-.217.617-.433.903-.646l.118-.089c.306-.229.603-.461.883-.687l.105-.086c.307-.25.586-.485.851-.718l.079-.071c.303-.267.579-.518.845-.771l.043-.042c.3-.284.587-.569.855-.844l.238.204-.224-.218a34.955 34.955 0 0 0 .84-.899 30.325 30.325 0 0 0 1.662-2.015l.093-.125.307-.418.093-.132.051-.072a44.608 44.608 0 0 0 .369-.536l.031-.045.226-.34c.052-.079.102-.158.153-.238l.214-.338c.046-.074.092-.148.136-.223.12-.195.236-.393.35-.591l.053-.09c.122-.215.246-.44.378-.685l.098-.188c.095-.179.186-.36.277-.54l.094-.19c.124-.253.232-.485.333-.707l.041-.09a29.73 29.73 0 0 0 .358-.838c.076-.188.151-.375.224-.565l.026-.07.039-.101c.09-.24.178-.485.26-.725l.054-.163c.065-.194.128-.39.189-.587l.068-.222c.062-.21.123-.421.18-.632l.034-.121a22.967 22.967 0 0 0 .216-.88l.016-.07c.043-.193.084-.388.125-.584l.009-.045.035-.175a23.88 23.88 0 0 0 .395-3.17.308.308 0 0 1 .222-.282.313.313 0 0 1 .341.115l3.749 5.11a.31.31 0 0 1 .06.202 24.26 24.26 0 0 1-.404 3.252l-.035.175-.01.05c-.04.2-.083.399-.128.598l-.015.07c-.01.044-.019.09-.03.134-.064.273-.127.525-.192.77l-.035.123a24.654 24.654 0 0 1-.254.875c-.062.201-.126.401-.193.6l-.056.166c-.084.246-.173.496-.266.744l-.042.108-.026.067a23.855 23.855 0 0 1-.32.795c-.09.214-.182.427-.276.639l-.034.077-.006.015a32.32 32.32 0 0 1-.342.725l-.097.194c-.092.185-.186.37-.282.553l-.1.192c-.135.253-.261.482-.386.7l-.055.092c-.116.202-.236.404-.357.604l-.055.094-.047.077-.035.055c-.072.115-.144.231-.218.346l-.157.243c-.076.117-.153.232-.231.349l-.037.055-.118.175c-.083.121-.168.242-.254.363l-.05.07a31.201 31.201 0 0 1-.41.563l-.088.118a29.62 29.62 0 0 1-1.694 2.057l-.019.022c-.275.307-.56.611-.845.904l-.014.014c-.275.282-.568.572-.872.861l-.032.032a33.264 33.264 0 0 1-.875.799l-.08.071c-.273.237-.564.484-.869.732l-.108.089c-.285.23-.587.466-.9.7l-.119.09c-.293.218-.603.44-.92.658l-.029.021-.046.032c-.012.008-.023.017-.036.024l-.018.012c-.319.218-.655.439-1 .657l-.122.078c-.332.208-.681.416-1.036.619l-.028.017-.043.025-.071.039c-.136.078-.272.153-.41.228l-.075.041a24.321 24.321 0 0 1-.709.375l-.046.025c-.21.107-.42.211-.632.313l-.128.061-.075.035c-.144.068-.29.137-.436.202l-.068.032-.075.034-.054.023c-.191.085-.382.168-.575.25l-.054.022-.163.069a28.625 28.625 0 0 1-1.712.648l-.023.008c-.197.069-.395.134-.594.199l-.058.02-.078.026-.057.017c-.29.091-.596.182-.91.269l-.189.051c-.346.095-.654.174-.94.242l-.06.014c-.289.068-.589.133-.916.2l-.173.035c-.301.059-.616.115-.934.166l-.19.03c-.359.055-.676.1-.97.134l-.026.003c-.302.036-.614.067-.964.096l-.182.015a26.93 26.93 0 0 1-.954.057l-.188.007c-.38.011-.694.017-.996.017Zm-3.196-.823a25.556 25.556 0 0 0 4.168.178l.184-.007c.31-.014.625-.032.932-.055l.177-.016c.344-.029.65-.059.937-.093l.015-.001.017-.001c.287-.035.597-.078.95-.132l.184-.029c.313-.05.621-.106.916-.164l.168-.035c.32-.065.615-.129.895-.195l.06-.013c.278-.067.58-.143.92-.237l.184-.05c.307-.086.606-.175.89-.263l.055-.017.065-.022.068-.023c.195-.062.389-.127.582-.194l.024-.008c.064-.023.127-.043.191-.067a30.494 30.494 0 0 0 1.485-.569l.211-.089c.189-.079.377-.161.564-.245l.064-.028.064-.027.068-.032c.142-.066.285-.132.426-.199l.078-.036c.04-.019.081-.037.121-.057.208-.1.414-.201.619-.307l.046-.025a30.375 30.375 0 0 0 .692-.367l.078-.043c.134-.073.268-.147.401-.222l.096-.054.043-.025c.347-.2.689-.404 1.015-.607l.12-.075c.337-.212.668-.429.98-.644l.127-.088c.311-.215.613-.432.902-.646l.117-.089c.306-.229.603-.461.883-.687l.104-.086c.299-.243.585-.485.852-.718l.079-.07a27.483 27.483 0 0 0 .857-.782l.032-.032c.299-.283.586-.568.855-.844l.017-.017c.277-.284.556-.582.825-.883l.013-.014a30.234 30.234 0 0 0 1.661-2.015l.008-.011.083-.114a19.4 19.4 0 0 0 .307-.418l.092-.129.051-.074c.084-.118.167-.236.249-.356l.115-.169.038-.056a28.779 28.779 0 0 0 .591-.918l.137-.222c.118-.196.234-.393.35-.592l.052-.09c.121-.212.245-.437.378-.685l.099-.187c.094-.179.186-.36.276-.54l.095-.191c.123-.252.232-.484.333-.707l.007-.015.033-.075c.093-.207.184-.415.271-.623l.088-.214c.076-.188.151-.375.223-.564l.027-.07.038-.101c.091-.24.178-.485.26-.725l.054-.163c.066-.194.128-.39.189-.587l.068-.222c.063-.21.123-.42.181-.63l.033-.122c.064-.237.125-.483.188-.75l.044-.2c.043-.193.085-.387.125-.583l.01-.051.033-.17a23.369 23.369 0 0 0 .388-3.058l-3.181-4.336a23.926 23.926 0 0 1-.378 2.582l-.008.044c-.04.2-.083.399-.128.597l-.015.07-.031.136a28.57 28.57 0 0 1-.191.77l-.035.123c-.058.217-.121.432-.185.647-.022.077-.046.152-.069.228a40.49 40.49 0 0 1-.193.601l-.056.167a29.273 29.273 0 0 1-.308.851l-.027.067a21.132 21.132 0 0 1-.319.796c-.09.214-.182.426-.276.639l-.041.093a30.88 30.88 0 0 1-.341.724l-.098.194c-.091.185-.186.37-.281.553l-.031.058-.071.133c-.135.252-.261.48-.386.7l-.054.092c-.117.203-.236.404-.357.606l-.139.226c-.072.115-.144.232-.218.347-.051.081-.104.161-.156.242a20.84 20.84 0 0 1-.23.347l-.029.045-.127.187c-.083.121-.168.24-.252.361l-.05.071a4.283 4.283 0 0 1-.098.137c-.102.144-.208.285-.314.427l-.094.128c-.264.35-.538.697-.815 1.033l-.011.012c-.275.334-.567.673-.863 1.002l-.014.015c-.28.313-.565.617-.85.91 0 0-.012.014-.014.014-.273.28-.566.571-.872.861l-.044.043c-.271.257-.553.514-.861.786l-.081.071c-.272.237-.556.478-.868.732l-.107.087c-.286.231-.589.467-.901.702l-.12.09a35.8 35.8 0 0 1-.919.66l-.128.089c-.324.22-.66.443-1.001.657l-.121.076c-.332.208-.681.417-1.036.621l-.141.08a32.72 32.72 0 0 1-.409.228l-.073.04-.136.075c-.191.103-.383.205-.578.303l-.047.025c-.21.107-.42.211-.632.313l-.12.057-.078.037c-.147.07-.293.139-.44.206l-.128.057-.068.03c-.192.086-.385.17-.578.252l-.015.006-.2.084a30.774 30.774 0 0 1-1.516.58l-.204.071-.01.002c-.197.068-.397.134-.595.198l-.19.061c-.292.092-.6.184-.91.27l-.188.051c-.344.095-.651.174-.942.242l-.058.012c-.287.068-.589.134-.918.2l-.17.035c-.308.06-.622.117-.937.167l-.187.029c-.362.055-.68.1-.973.135l-.026.002c-.301.036-.614.067-.964.096l-.182.015a24.74 24.74 0 0 1-.954.057l-.188.007a26.485 26.485 0 0 1-3.686-.116l3.243 4.427Z"/><path fill="#D0D5DD" d="m87.273 66.402.855 12.048c-4.31 1.297-8.013 4.547-9.749 8.61a13.107 13.107 0 0 0-.85 2.813c-.017.092-.032.183-.047.274-.917 5.744 2.396 10.575 7.701 11.93l-5.157 11.905c-10.555-2.748-17.134-12.378-15.307-23.835.014-.092.03-.184.046-.274 1.564-9.158 8.12-17.115 16.558-21.27a30.217 30.217 0 0 1 5.95-2.2Z"/><path fill="#F9FAFB" d="M80.026 114.292a.307.307 0 0 1-.079-.01c-10.964-2.854-17.353-12.8-15.537-24.186l.045-.277C65.98 80.888 72.39 72.65 81.183 68.32a30.59 30.59 0 0 1 6.013-2.22.314.314 0 0 1 .389.28l.854 12.047a.312.312 0 0 1-.222.32c-4.21 1.267-7.87 4.5-9.552 8.434a12.877 12.877 0 0 0-.876 3.015c-.872 5.471 2.2 10.232 7.47 11.578a.31.31 0 0 1 .208.428l-5.156 11.904a.308.308 0 0 1-.285.186Zm6.961-47.493a30.163 30.163 0 0 0-5.527 2.082c-8.617 4.243-14.896 12.307-16.388 21.043l-.044.271c-1.749 10.967 4.336 20.556 14.82 23.414l4.905-11.327c-5.38-1.548-8.486-6.507-7.58-12.186a13.521 13.521 0 0 1 .92-3.161c1.72-4.026 5.424-7.344 9.706-8.71l-.812-11.426Z"/><path fill="#D0D5DD" d="m101.196 82.117 3.748 5.11c-1.682-2.294-4.344-3.852-7.576-4.205a13.082 13.082 0 0 0-2.397-.04l-3.75-5.11c.326-.024.656-.036.984-.036.482 0 .953.025 1.414.076 3.232.353 5.895 1.91 7.577 4.204Z"/><path fill="#F9FAFB" d="M104.944 87.54a.315.315 0 0 1-.253-.128l-.001-.002c-1.683-2.294-4.296-3.741-7.357-4.076a13.037 13.037 0 0 0-2.34-.039.317.317 0 0 1-.275-.126l-3.749-5.11a.312.312 0 0 1 .23-.496 13.772 13.772 0 0 1 2.452.042c3.238.352 6.006 1.89 7.795 4.329l3.748 5.11a.314.314 0 0 1-.066.437.32.32 0 0 1-.184.059Zm-8.99-4.906c.488 0 .975.026 1.447.078 1.936.21 3.704.846 5.196 1.844l-1.654-2.255c-1.683-2.296-4.297-3.745-7.358-4.078a12.86 12.86 0 0 0-1.768-.068l3.304 4.504c.276-.017.555-.025.833-.025Z"/><mask id="d" width="14" height="11" x="91" y="77" maskUnits="userSpaceOnUse" style="mask-type:luminance"><mask id="c" width="14" height="11" x="91" y="77" maskUnits="userSpaceOnUse" style="mask-type:luminance"><path fill="#fff" d="m101.196 82.117 3.748 5.11c-1.682-2.294-4.344-3.852-7.576-4.205a13.082 13.082 0 0 0-2.397-.04l-3.75-5.11c.326-.024.656-.036.984-.036.482 0 .953.025 1.414.076 3.232.353 5.895 1.91 7.577 4.204Z"/></mask><g mask="url(#c)"><path fill="#fff" d="M104.944 87.54a.315.315 0 0 1-.253-.128l-.001-.002c-1.683-2.294-4.296-3.741-7.357-4.076a13.037 13.037 0 0 0-2.34-.039.317.317 0 0 1-.275-.126l-3.749-5.11a.312.312 0 0 1 .23-.496 13.772 13.772 0 0 1 2.452.042c3.238.352 6.006 1.89 7.795 4.329l3.748 5.11a.314.314 0 0 1-.066.437.32.32 0 0 1-.184.059Zm-8.99-4.906c.488 0 .975.026 1.447.078 1.936.21 3.704.846 5.196 1.844l-1.654-2.255c-1.683-2.296-4.297-3.745-7.358-4.078a12.86 12.86 0 0 0-1.768-.068l3.304 4.504c.276-.017.555-.025.833-.025Z"/></g></mask><g mask="url(#d)"><path fill="#D0D5DD" d="m101.196 82.117 3.748 5.11c-1.682-2.294-4.344-3.852-7.576-4.205a13.082 13.082 0 0 0-2.397-.04l-3.75-5.11c.326-.024.656-.036.984-.036.482 0 .953.025 1.414.076 3.232.353 5.895 1.91 7.577 4.204Z"/><path fill="#F9FAFB" d="M104.944 87.54a.315.315 0 0 1-.253-.128l-.001-.002c-1.683-2.294-4.296-3.741-7.357-4.076a13.037 13.037 0 0 0-2.34-.039.317.317 0 0 1-.275-.126l-3.749-5.11a.312.312 0 0 1 .23-.496 13.772 13.772 0 0 1 2.452.042c3.238.352 6.006 1.89 7.795 4.329l3.748 5.11a.314.314 0 0 1-.066.437.32.32 0 0 1-.184.059Zm-8.99-4.906c.488 0 .975.026 1.447.078 1.936.21 3.704.846 5.196 1.844l-1.654-2.255c-1.683-2.296-4.297-3.745-7.358-4.078a12.86 12.86 0 0 0-1.768-.068l3.304 4.504c.276-.017.555-.025.833-.025Z"/></g><path fill="#98A2B3" d="M94.17 65.527c.477 0 .95.013 1.419.038 11.451.612 19.676 8.632 20.426 19.218l-12.876 2.886c-.267-5.172-4.09-9.165-9.52-9.757a13.082 13.082 0 0 0-2.397-.04l-.857-12.078a27.34 27.34 0 0 1 3.804-.267Z"/><path fill="#F9FAFB" d="M103.139 87.98a.314.314 0 0 1-.313-.297c-.262-5.086-3.976-8.888-9.24-9.462a13.02 13.02 0 0 0-2.34-.039.313.313 0 0 1-.335-.289l-.857-12.078a.314.314 0 0 1 .268-.331 27.69 27.69 0 0 1 5.283-.231c11.43.612 19.952 8.635 20.721 19.508a.312.312 0 0 1-.243.327l-12.876 2.886a.374.374 0 0 1-.068.007ZM92.207 77.523c.487 0 .975.027 1.447.078 2.728.297 5.108 1.424 6.885 3.254 1.686 1.738 2.679 3.954 2.886 6.43l12.257-2.748c-.868-10.414-9.1-18.07-20.111-18.66a26.977 26.977 0 0 0-4.874.187l.814 11.476c.232-.011.464-.017.696-.017ZM118.651 31.29c-1.289-1.47-3.169-2.204-5.168-2.204-1.997 0-4.112.735-5.871 2.204-1.759 1.47-2.829 3.399-3.137 5.325-.308 1.928.147 3.854 1.436 5.324 1.29 1.47 3.169 2.204 5.167 2.204 1.998 0 4.115-.736 5.875-2.207 1.758-1.47 2.827-3.396 3.134-5.322.309-1.927-.145-3.853-1.436-5.324Z"/><path fill="#F9FAFB" d="M111.032 35.203c.305 0 .594.113.794.338.394.45.278 1.179-.26 1.627a1.426 1.426 0 0 1-.901.338c-.306 0-.593-.113-.79-.338-.395-.45-.278-1.179.259-1.627.268-.225.591-.338.898-.338Z"/><path fill="#F9FAFB" d="M109.008 32.563c.596 0 1.156.219 1.54.656.768.875.542 2.295-.505 3.17a2.758 2.758 0 0 1-1.752.658c-.594 0-1.154-.22-1.538-.657-.768-.875-.542-2.296.505-3.172a2.757 2.757 0 0 1 1.75-.656Z"/><path fill="#D0D5DD" d="M121.686 28.754c3.432 3.91 2.862 10.009-1.077 14.353l-.251-.286c-.308-.35-.757-.525-1.233-.525-.477 0-.981.175-1.4.525-.838.703-1.02 1.838-.406 2.54l.252.287c-2.227 1.391-4.7 2.088-7.063 2.088-2.95 0-5.728-1.086-7.633-3.258-3.811-4.344-2.689-11.383 2.508-15.726 2.596-2.171 5.718-3.256 8.668-3.256 2.952 0 5.729 1.086 7.635 3.258Zm-4.733 13.184c1.758-1.47 2.827-3.396 3.134-5.323.307-1.926-.147-3.852-1.437-5.323-1.289-1.47-3.17-2.204-5.168-2.204-1.999 0-4.113.735-5.871 2.204-1.76 1.47-2.829 3.398-3.138 5.325-.308 1.928.148 3.854 1.436 5.324 1.291 1.47 3.17 2.204 5.167 2.204 2 .001 4.117-.735 5.877-2.207Z"/><path fill="#D0D5DD" d="M119.126 42.297c.477 0 .925.175 1.234.525l.251.286 5.147 5.87c.614.7.433 1.837-.404 2.537-.418.35-.924.525-1.399.525-.476 0-.925-.175-1.232-.525l-5.15-5.867-.251-.286c-.614-.703-.433-1.837.406-2.54.418-.35.922-.525 1.398-.525Z"/></svg>