<svg xmlns="http://www.w3.org/2000/svg" width="150" height="150" fill="none"><path fill="#F9FAFB" d="M74.999 128.203c28.319 0 51.276-9.006 51.276-20.115 0-11.11-22.957-20.115-51.276-20.115-28.32 0-51.276 9.006-51.276 20.115 0 11.109 22.957 20.115 51.276 20.115Z"/><path fill="#D0D5DD" d="M79.14 45.793 77.416 56.59H66.223l12.851-10.797h.065Z"/><path fill="#F9FAFB" d="M77.416 56.903H66.222a.311.311 0 0 1-.2-.551l12.851-10.798a.316.316 0 0 1 .202-.074h.065a.313.313 0 0 1 .308.362l-1.722 10.797a.313.313 0 0 1-.31.264Zm-10.336-.625h10.07l1.558-9.77-11.628 9.77Z"/><path fill="#E4E7EC" d="m113.971 49.48-.703 4.403-7.67 48.096 3.372.663 7.155-44.863.703-4.404-2.857-3.895Z"/><path fill="#F9FAFB" d="M108.97 102.954a.298.298 0 0 1-.06-.005l-3.372-.663a.312.312 0 0 1-.249-.355l8.374-52.5a.31.31 0 0 1 .234-.254.31.31 0 0 1 .325.12l2.857 3.894c.05.066.07.15.057.233l-7.857 49.267a.31.31 0 0 1-.309.263Zm-3.016-1.223 2.759.541 7.786-48.818-2.338-3.186-8.207 51.463Z"/><path fill="#F7F9FC" d="m113.971 49.48-.703 4.405-8.966 56.223-12.19-1.148-35.678-2.439s7.929-41.325 7.993-41.93l.687-4.313H76.31L78.03 49.48h35.94Z"/><path fill="#F9FAFB" d="m104.302 110.418-.03-.001-12.19-1.149-35.67-2.439a.31.31 0 0 1-.285-.37c2.731-14.235 7.915-41.312 7.988-41.905l.002-.015.687-4.314a.313.313 0 0 1 .309-.264H76.04l1.68-10.533a.313.313 0 0 1 .308-.264h35.94a.314.314 0 0 1 .309.361l-9.67 60.627a.305.305 0 0 1-.305.266Zm-47.495-4.187 35.326 2.415 11.906 1.122 9.565-59.976H78.297l-1.679 10.533a.313.313 0 0 1-.308.264H65.382l-.646 4.049c-.147 1.022-7.116 37.355-7.929 41.593Z"/><path fill="#D0D5DD" d="M74.366 42.344 72.644 53.14H61.449l12.852-10.796h.065Z"/><path fill="#F9FAFB" d="M72.643 53.453H61.449a.312.312 0 0 1-.2-.551l12.85-10.797a.315.315 0 0 1 .202-.074h.066a.313.313 0 0 1 .308.361L72.953 53.19a.313.313 0 0 1-.31.264Zm-10.336-.625h10.07l1.558-9.769-11.628 9.77Z"/><path fill="#E4E7EC" d="m109.753 44.188-.703 4.402-7.671 48.096 3.372.663 7.156-44.863.702-4.404-2.856-3.895Z"/><path fill="#F9FAFB" d="M104.751 97.661a.297.297 0 0 1-.06-.005l-3.372-.663a.313.313 0 0 1-.249-.355l8.374-52.5a.311.311 0 0 1 .56-.135l2.857 3.895c.05.066.069.15.057.234L105.061 97.4a.314.314 0 0 1-.31.262Zm-3.015-1.223 2.758.541 7.786-48.818-2.337-3.186-8.207 51.463Z"/><path fill="#F7F9FC" d="m109.752 44.191-.702 4.405-8.967 56.223-12.19-1.148-35.678-2.439s7.929-41.325 7.993-41.93l.687-4.313H72.09l1.722-10.798h35.94Z"/><path fill="#F9FAFB" d="m100.083 105.129-.029-.001-12.19-1.149-35.67-2.439a.314.314 0 0 1-.286-.371c2.732-14.234 7.915-41.31 7.989-41.904l.001-.015.688-4.314a.313.313 0 0 1 .308-.264h10.928l1.68-10.533a.313.313 0 0 1 .309-.264h35.94a.312.312 0 0 1 .308.361l-9.669 60.626a.309.309 0 0 1-.307.267Zm-47.495-4.187 35.327 2.415 11.905 1.122 9.566-59.976H74.079l-1.68 10.533a.313.313 0 0 1-.31.264H61.163l-.646 4.049c-.146 1.022-7.115 37.355-7.928 41.593Z"/><path fill="#D0D5DD" d="M69.592 38.895 67.87 49.69H56.676l12.851-10.795h.065Z"/><path fill="#F9FAFB" d="M67.87 50.004H56.675a.312.312 0 0 1-.2-.551l12.852-10.797a.315.315 0 0 1 .2-.074h.066a.313.313 0 0 1 .308.361L68.18 49.74a.313.313 0 0 1-.31.264Zm-10.337-.625h10.07l1.558-9.77-11.628 9.77Z"/><path fill="#E4E7EC" d="m105.534 38.898-.703 4.403-7.67 48.096 3.373.662 7.154-44.862.703-4.404-2.857-3.895Z"/><path fill="#F9FAFB" d="M100.532 92.372a.297.297 0 0 1-.06-.005l-3.372-.663a.312.312 0 0 1-.248-.355l8.373-52.5a.312.312 0 0 1 .56-.135l2.857 3.895c.05.066.069.15.057.234l-7.857 49.267a.317.317 0 0 1-.129.207.334.334 0 0 1-.181.055Zm-3.016-1.223 2.758.541 7.786-48.818-2.338-3.186-8.206 51.463Z"/><path fill="#F7F9FC" d="m105.534 38.898-.703 4.405-8.967 56.223-12.19-1.148-35.678-2.44s7.93-41.324 7.993-41.928l.688-4.314H67.87l1.722-10.798h35.941Z"/><path fill="#F9FAFB" d="m95.864 99.836-.03-.001-12.19-1.149-35.669-2.439a.311.311 0 0 1-.286-.37c2.73-14.235 7.915-41.312 7.989-41.905l.001-.015.688-4.314a.313.313 0 0 1 .308-.264h10.928l1.68-10.533a.313.313 0 0 1 .309-.264h35.94a.313.313 0 0 1 .308.361L96.171 99.57a.308.308 0 0 1-.307.266ZM48.37 95.65l35.326 2.415 11.906 1.122 9.565-59.976H69.86l-1.68 10.533a.313.313 0 0 1-.309.264H56.943l-.646 4.049c-.145 1.026-7.113 37.355-7.927 41.593Z"/><path fill="#D0D5DD" d="m60.16 54.176 2.857 3.894c.42.574.611 1.32.48 2.136-.13.817.06 1.564.481 2.138l-2.857-3.895c-.42-.573-.61-1.32-.48-2.137s-.06-1.563-.48-2.136Z"/><path fill="#F9FAFB" d="M63.98 62.657a.314.314 0 0 1-.253-.128l-2.856-3.894c-.485-.661-.677-1.504-.538-2.372.111-.7-.039-1.375-.424-1.9l-.001-.002a.314.314 0 0 1 .067-.437.314.314 0 0 1 .438.068l2.856 3.893c.485.66.675 1.503.538 2.37-.111.7.038 1.376.422 1.9l.001.003a.314.314 0 0 1-.25.499Zm-2.986-6.817a3.495 3.495 0 0 1-.043.521c-.112.702.039 1.378.425 1.904l1.77 2.416c.002-.173.016-.348.045-.523.113-.701-.039-1.376-.423-1.901l-1.774-2.417Z"/><mask id="b" width="4" height="9" x="60" y="54" maskUnits="userSpaceOnUse" style="mask-type:luminance"><mask id="a" width="4" height="9" x="60" y="54" maskUnits="userSpaceOnUse" style="mask-type:luminance"><path fill="#fff" d="m60.16 54.176 2.857 3.894c.42.574.611 1.32.48 2.136-.13.817.06 1.564.481 2.138l-2.857-3.895c-.42-.573-.61-1.32-.48-2.137s-.06-1.563-.48-2.136Z"/></mask><g mask="url(#a)"><path fill="#fff" d="M63.98 62.657a.314.314 0 0 1-.253-.128l-2.856-3.894c-.485-.661-.677-1.504-.538-2.372.111-.7-.039-1.375-.424-1.9l-.001-.002a.314.314 0 0 1 .067-.437.314.314 0 0 1 .438.068l2.856 3.893c.485.66.675 1.503.538 2.37-.111.7.038 1.376.422 1.9l.001.003a.314.314 0 0 1-.25.499Zm-2.986-6.817a3.495 3.495 0 0 1-.043.521c-.112.702.039 1.378.425 1.904l1.77 2.416c.002-.173.016-.348.045-.523.113-.701-.039-1.376-.423-1.901l-1.774-2.417Z"/></g></mask><g mask="url(#b)"><path fill="#D0D5DD" d="m60.16 54.176 2.857 3.894.067.095-2.857-3.895a1.438 1.438 0 0 0-.067-.094Z"/><path fill="#F9FAFB" d="M63.084 58.477a.314.314 0 0 1-.252-.128l-2.857-3.894a2.428 2.428 0 0 0-.067-.095.312.312 0 1 1 .504-.37l2.857 3.895.074.106a.312.312 0 0 1-.259.486Z"/><path fill="#D0D5DD" d="m60.227 54.27 2.857 3.894c.055.083.106.17.154.261l-2.857-3.894a2.891 2.891 0 0 0-.154-.261Z"/><path fill="#F9FAFB" d="M63.239 58.737a.314.314 0 0 1-.253-.128l-2.857-3.894a.687.687 0 0 1-.026-.042 2.144 2.144 0 0 0-.136-.23.312.312 0 0 1 .51-.359l2.858 3.895c.07.104.127.202.179.302a.312.312 0 0 1-.275.456Z"/><path fill="#D0D5DD" d="m60.379 54.531 2.857 3.895c.051.1.096.203.135.31l-2.857-3.895a2.944 2.944 0 0 0-.135-.31Z"/><path fill="#F9FAFB" d="M63.372 59.047a.312.312 0 0 1-.253-.127l-2.857-3.895a.284.284 0 0 1-.041-.078 2.264 2.264 0 0 0-.12-.273.313.313 0 0 1 .53-.328l2.858 3.895c.01.013.018.027.026.041.057.111.108.228.15.346a.313.313 0 0 1-.293.42Z"/><path fill="#D0D5DD" d="m60.516 54.84 2.857 3.894c.047.13.084.266.112.404l-2.857-3.894a2.81 2.81 0 0 0-.112-.404Z"/><path fill="#F9FAFB" d="M63.486 59.452a.316.316 0 0 1-.253-.128l-2.857-3.894a.314.314 0 0 1-.054-.125 2.25 2.25 0 0 0-.1-.359.313.313 0 0 1 .546-.291l2.856 3.894a.28.28 0 0 1 .042.078c.053.146.095.297.125.451a.313.313 0 0 1-.305.374Z"/><path fill="#D0D5DD" d="m60.628 55.246 2.857 3.895c.065.333.074.693.014 1.065-.06.373-.053.732.014 1.065l-2.857-3.894a3.033 3.033 0 0 1-.014-1.066 3.07 3.07 0 0 0-.014-1.065Z"/><path fill="#F9FAFB" d="M63.512 61.583a.316.316 0 0 1-.252-.127l-2.857-3.895a.295.295 0 0 1-.054-.125 3.363 3.363 0 0 1-.016-1.175 2.72 2.72 0 0 0-.01-.955.313.313 0 0 1 .557-.245l2.857 3.895c.027.037.046.079.055.125a3.3 3.3 0 0 1 .015 1.175c-.053.329-.049.65.011.955a.313.313 0 0 1-.306.372ZM60.95 57.25l2.222 3.03.018-.123a2.727 2.727 0 0 0 0-.89l-2.222-3.03c-.006.04-.011.082-.018.122a2.816 2.816 0 0 0 0 .89Z"/><path fill="#D0D5DD" d="m60.656 57.379 2.857 3.894c.028.14.066.275.113.406l-2.857-3.895a2.778 2.778 0 0 1-.113-.405Z"/><path fill="#F9FAFB" d="M63.626 61.991a.312.312 0 0 1-.253-.128l-2.857-3.894a.268.268 0 0 1-.041-.08 3.105 3.105 0 0 1-.126-.45.313.313 0 0 1 .559-.245l2.857 3.894c.028.038.046.08.054.125.023.123.057.243.1.36a.313.313 0 0 1-.293.418Z"/><path fill="#D0D5DD" d="m60.766 57.781 2.857 3.895c.038.107.083.21.134.31L60.9 58.09a2.587 2.587 0 0 1-.134-.31Z"/><path fill="#F9FAFB" d="M63.758 62.297a.314.314 0 0 1-.253-.127l-2.857-3.895-.026-.041a2.803 2.803 0 0 1-.15-.346.313.313 0 0 1 .546-.292l2.856 3.895c.019.023.032.05.042.079.034.093.074.186.12.273a.312.312 0 0 1-.278.454Z"/><path fill="#D0D5DD" d="m60.902 58.09 2.857 3.894c.046.09.097.178.154.261l-2.856-3.894a2.774 2.774 0 0 1-.155-.261Z"/><path fill="#F9FAFB" d="M63.913 62.559a.314.314 0 0 1-.252-.128l-2.857-3.894a2.708 2.708 0 0 1-.18-.304.313.313 0 0 1 .53-.328l2.858 3.894c.01.014.018.028.026.042.04.079.087.157.137.23a.312.312 0 0 1-.08.43.31.31 0 0 1-.181.058Z"/><path fill="#D0D5DD" d="m61.059 58.352 2.857 3.894.066.096-2.857-3.895a2.027 2.027 0 0 1-.066-.095Z"/><path fill="#F9FAFB" d="M63.98 62.655a.311.311 0 0 1-.25-.128v-.001c0-.002-.002-.002-.002-.003l-2.854-3.892-.075-.106a.312.312 0 0 1 .51-.359l2.858 3.895c.026.038.044.065.064.091l.001.003a.312.312 0 0 1-.067.436.293.293 0 0 1-.184.064Z"/></g><path fill="#F9FAFB" d="M66.37 63.796c-1.09 0-2.054-.46-2.644-1.266l-2.857-3.895a.313.313 0 0 1 .504-.37h.002c.47.642 1.25 1.01 2.138 1.01.1 0 .193.048.252.128l2.857 3.895c.07.094.08.22.026.326a.31.31 0 0 1-.278.172Zm-3.91-4.048 1.77 2.412c.349.475.864.8 1.47.938l-2.348-3.2a3.597 3.597 0 0 1-.891-.15Z"/><mask id="c" width="7" height="6" x="60" y="58" maskUnits="userSpaceOnUse" style="mask-type:luminance"><path fill="#fff" d="M66.37 63.796c-1.09 0-2.054-.46-2.644-1.266l-2.857-3.895a.313.313 0 0 1 .504-.37h.002c.47.642 1.25 1.01 2.138 1.01.1 0 .193.048.252.128l2.857 3.895c.07.094.08.22.026.326a.31.31 0 0 1-.278.172Zm-3.91-4.048 1.77 2.412c.349.475.864.8 1.47.938l-2.348-3.2a3.597 3.597 0 0 1-.891-.15Z"/></mask><g mask="url(#c)"><path fill="#667185" d="m63.513 59.588 2.857 3.895c-1.03 0-1.88-.442-2.392-1.14l-2.857-3.894c.511.699 1.363 1.14 2.392 1.14Z"/><path fill="#F9FAFB" d="M66.37 63.796c-1.09 0-2.054-.46-2.644-1.266l-2.857-3.895a.313.313 0 0 1 .504-.37h.002c.47.642 1.25 1.01 2.138 1.01.1 0 .193.048.252.128l2.857 3.895c.07.094.08.22.026.326a.31.31 0 0 1-.278.172Zm-3.91-4.048 1.77 2.412c.349.475.864.8 1.47.938l-2.348-3.2a3.597 3.597 0 0 1-.891-.15Z"/></g><path fill="#98A2B3" d="m90.504 59.586 2.858 3.896h-26.99l-2.856-3.896h26.988Z"/><path fill="#F9FAFB" d="M93.361 63.793H66.372a.31.31 0 0 1-.251-.128l-2.857-3.894a.312.312 0 0 1 .252-.498h26.99c.1 0 .192.048.25.128l2.858 3.895c.07.094.08.22.026.326a.315.315 0 0 1-.279.17Zm-26.83-.625h26.213l-2.398-3.27H64.132l2.398 3.27Z"/><path fill="#F9FAFB" d="M95.753 64.932a.314.314 0 0 1-.252-.128c-.471-.643-1.252-1.011-2.14-1.011a.31.31 0 0 1-.252-.128l-2.857-3.894a.312.312 0 0 1 .253-.498c1.09 0 2.054.462 2.644 1.267l2.857 3.895a.314.314 0 0 1-.067.437.325.325 0 0 1-.186.06Zm-2.231-1.76c.31.013.61.064.891.15l-1.77-2.413a2.479 2.479 0 0 0-1.469-.937l2.347 3.2Z"/><mask id="d" width="7" height="6" x="90" y="59" maskUnits="userSpaceOnUse" style="mask-type:luminance"><path fill="#fff" d="M95.753 64.932a.314.314 0 0 1-.252-.128c-.471-.643-1.252-1.011-2.14-1.011a.31.31 0 0 1-.252-.128l-2.857-3.894a.312.312 0 0 1 .253-.498c1.09 0 2.054.462 2.644 1.267l2.857 3.895a.314.314 0 0 1-.067.437.325.325 0 0 1-.186.06Zm-2.231-1.76c.31.013.61.064.891.15l-1.77-2.413a2.479 2.479 0 0 0-1.469-.937l2.347 3.2Z"/></mask><g mask="url(#d)"><path fill="#667185" d="m92.896 60.725 2.856 3.894c-.51-.697-1.362-1.139-2.391-1.139l-2.857-3.894c1.03 0 1.88.442 2.392 1.139Z"/><path fill="#F9FAFB" d="M95.753 64.932a.314.314 0 0 1-.252-.128c-.471-.643-1.252-1.011-2.14-1.011a.31.31 0 0 1-.252-.128l-2.857-3.894a.312.312 0 0 1 .253-.498c1.09 0 2.054.462 2.644 1.267l2.857 3.895a.314.314 0 0 1-.067.437.325.325 0 0 1-.186.06Zm-2.231-1.76c.31.013.61.064.891.15l-1.77-2.413a2.479 2.479 0 0 0-1.469-.937l2.347 3.2Z"/></g><path fill="#F9FAFB" d="m78.192 78.633-1.52 9.532H48.392l1.52-9.532h28.281Z"/><path fill="#D0D5DD" d="M96.266 66.371c.003-.063.005-.126.003-.189-.001-.037-.004-.072-.007-.11a2.133 2.133 0 0 0-.014-.165c-.004-.037-.01-.075-.016-.112-.006-.035-.009-.07-.016-.103-.004-.02-.01-.04-.013-.058l-.019-.078a3.267 3.267 0 0 0-.05-.177l-.02-.065-.009-.026c-.007-.021-.018-.04-.026-.06a2.497 2.497 0 0 0-.09-.207c-.007-.014-.011-.03-.02-.043-.01-.02-.022-.038-.033-.057a3.09 3.09 0 0 0-.088-.149c-.01-.018-.02-.037-.033-.055a1.977 1.977 0 0 0-.067-.096l-2.857-3.894c.037.048.069.1.1.151a2.586 2.586 0 0 1 .231.456c.011.029.024.056.035.086a3.967 3.967 0 0 1 .089.32l.029.16c.005.038.012.075.016.113.007.054.01.11.014.165.003.036.006.072.007.11.002.062-.001.125-.002.189-.002.032 0 .062-.003.094a3.58 3.58 0 0 1-.032.29L87.71 98.375l2.857 3.895 5.664-35.514c.015-.097.026-.195.032-.29.002-.032.001-.063.002-.095Z"/><path fill="#F9FAFB" d="M90.567 102.582a.31.31 0 0 1-.251-.128l-2.857-3.895a.313.313 0 0 1-.057-.234l5.664-35.514c.014-.085.024-.171.03-.263v-.041l.002-.043c.003-.057.004-.114.003-.17l-.003-.061-.003-.036c-.003-.05-.005-.1-.01-.149l-.012-.075-.004-.026a1.751 1.751 0 0 0-.027-.143l-.016-.068a2.641 2.641 0 0 0-.045-.157l-.018-.059-.014-.036-.016-.04a2.185 2.185 0 0 0-.08-.183l-.045-.09c-.024-.044-.05-.087-.077-.13l-.015-.023a2.123 2.123 0 0 0-.072-.11.314.314 0 0 1 .066-.438.314.314 0 0 1 .438.067l2.857 3.895c.026.034.05.07.075.106.011.017.02.035.03.052.04.064.073.12.103.176.018.03.028.046.038.066.007.014.014.03.02.047.034.07.067.146.1.23.013.028.023.048.03.067l.01.03.016.053.006.02c.02.064.04.13.057.197.007.03.014.057.02.088l.005.016a.864.864 0 0 1 .024.13l.008.055.015.101c.007.061.011.123.015.185l.003.033a3.466 3.466 0 0 1 .001.294v.03l-.002.076c-.007.109-.02.216-.037.317l-5.663 35.514a.31.31 0 0 1-.235.254.263.263 0 0 1-.077.013Zm-2.527-4.288 2.337 3.186 5.546-34.775a2.55 2.55 0 0 0 .03-.262V66.4l.002-.043v-.001c.003-.057.004-.114.003-.17 0-.02-.002-.039-.003-.058l-.003-.04c-.003-.05-.005-.1-.011-.15a1.384 1.384 0 0 0-.011-.074l-.011-.07a.512.512 0 0 0-.007-.047l-.013-.051-.016-.068a2.585 2.585 0 0 0-.045-.157l-.018-.057a7.28 7.28 0 0 1-.008-.025.387.387 0 0 1-.022-.052 2.235 2.235 0 0 0-.08-.183l-.018-.04-.027-.047a2.44 2.44 0 0 0-.077-.13l-.023-.041a1.298 1.298 0 0 0-.064-.093l-1.774-2.418-.003.1v.03l-.002.075c-.007.111-.02.216-.037.318L88.04 98.294Z"/><path fill="#D0D5DD" d="m112.098 83.398-3.797 23.812H86.305l1.41-8.834 2.387-14.978H112.098Z"/><path fill="#F9FAFB" d="M108.3 107.522H86.304a.311.311 0 0 1-.308-.361l3.797-23.811a.313.313 0 0 1 .308-.264h21.996a.314.314 0 0 1 .309.361l-3.798 23.811a.31.31 0 0 1-.308.264Zm-21.63-.625h21.363l3.698-23.186H90.368l-3.697 23.186Z"/><path fill="#D0D5DD" d="M90.503 59.587c1.875 0 3.16 1.465 2.873 3.274l-5.664 35.514-1.408 8.834h-50.22c-1.876 0-3.163-1.466-2.876-3.275l7.072-44.347.523-3.277c.288-1.808 2.043-3.275 3.919-3.275h13.043c.944 0 1.74.371 2.26.971.512.592.758 1.405.615 2.303-.289 1.81.997 3.276 2.872 3.276h26.99v.002Zm-13.83 28.577 1.52-9.532h-28.28l-1.522 9.532h28.282Z"/><path fill="#F9FAFB" d="M86.303 107.52h-50.22c-1.015 0-1.907-.39-2.51-1.097-.586-.686-.825-1.588-.673-2.539l7.596-47.624c.31-1.951 2.208-3.537 4.227-3.537h13.044c1.006 0 1.893.383 2.495 1.079.596.687.84 1.596.688 2.557-.122.77.065 1.493.53 2.037.482.566 1.205.877 2.034.877h26.989c1.015 0 1.907.388 2.51 1.095.584.687.823 1.588.672 2.54l-7.073 44.348a.313.313 0 0 1-.31.264Zm-41.58-54.172c-1.726 0-3.345 1.351-3.61 3.01l-7.596 47.624c-.123.768.065 1.491.53 2.035.483.567 1.206.878 2.036.878h49.953l7.03-44.083c.123-.768-.065-1.492-.53-2.037-.482-.565-1.206-.876-2.035-.876H63.514c-1.016 0-1.906-.389-2.51-1.096-.585-.686-.824-1.589-.672-2.541.123-.777-.07-1.505-.542-2.05-.483-.557-1.201-.864-2.023-.864H44.722Zm31.95 35.127H48.392a.313.313 0 0 1-.308-.36l1.521-9.533a.313.313 0 0 1 .308-.263h28.28a.313.313 0 0 1 .31.36l-1.522 9.532a.312.312 0 0 1-.306.264Zm-27.915-.625h27.649l1.42-8.906H50.18l-1.42 8.906Z"/><path fill="#D0D5DD" d="m112.098 83.398 2.857 3.895-3.797 23.811-2.857-3.894 3.797-23.812Z"/><path fill="#F9FAFB" d="M111.157 111.417a.31.31 0 0 1-.251-.128l-2.857-3.894a.312.312 0 0 1-.057-.235l3.797-23.811a.311.311 0 0 1 .56-.135l2.857 3.895c.05.066.069.15.057.234l-3.797 23.811a.311.311 0 0 1-.309.263Zm-2.528-4.286 2.338 3.186 3.66-22.943-2.338-3.186-3.66 22.943Z"/><path fill="#667185" d="m111.157 111.104-2.857-3.895H36.084c-1.029 0-1.882-.441-2.393-1.139l2.857 3.895c.513.697 1.364 1.139 2.395 1.139h72.214Z"/><path fill="#F9FAFB" d="M111.157 111.417H38.942c-1.09 0-2.056-.463-2.646-1.267l-2.857-3.894a.315.315 0 0 1 .067-.438.315.315 0 0 1 .437.067c.473.643 1.253 1.012 2.142 1.012H108.3c.1 0 .193.048.252.128l2.857 3.895a.312.312 0 0 1-.252.497Zm-76.126-4.049 1.77 2.413c.472.643 1.252 1.012 2.141 1.012h71.599l-2.399-3.269H36.085a3.637 3.637 0 0 1-1.054-.156ZM118.895 66.688a2.066 2.066 0 1 0 0-4.133 2.066 2.066 0 0 0 0 4.133ZM34.457 73.997a2.067 2.067 0 1 0 0-4.134 2.067 2.067 0 0 0 0 4.134ZM35.493 75.666a.728.728 0 1 0 0-1.455.728.728 0 0 0 0 1.456Z"/><path fill="#E4E7EC" d="M52.216 49.35a3.556 3.556 0 1 0 0-7.112 3.556 3.556 0 0 0 0 7.111Z"/><path fill="#F9FAFB" d="M48.662 44.038a1.693 1.693 0 1 0 0-3.386 1.693 1.693 0 0 0 0 3.386Z"/><path fill="#D0D5DD" d="M106.008 31.914c4.942 0 8.329 3.861 7.569 8.628-.759 4.764-5.379 8.626-10.32 8.626-4.94 0-8.328-3.86-7.569-8.626.76-4.767 5.38-8.628 10.32-8.628Zm.479 3.456c.136-.573-.268-1.066-.854-1.066l-.079.003c-.574.038-1.079.514-1.129 1.063l-.759 8.636a.334.334 0 0 0 .324.37h.03a.496.496 0 0 0 .47-.37l1.997-8.636Zm-2.85 11.407c.528 0 1.02-.412 1.101-.921.081-.507-.28-.921-.806-.921-.527 0-1.021.412-1.102.92-.082.51.281.922.807.922Z"/><path fill="#F9FAFB" d="M103.257 49.48c-2.522 0-4.732-.963-6.222-2.709-1.443-1.692-2.03-3.92-1.654-6.28.781-4.902 5.55-8.89 10.627-8.89 2.523 0 4.734.963 6.224 2.71 1.443 1.692 2.031 3.922 1.654 6.28-.782 4.9-5.55 8.888-10.629 8.888Zm2.751-17.253c-4.784 0-9.275 3.752-10.01 8.363-.348 2.174.19 4.225 1.512 5.775 1.37 1.606 3.411 2.49 5.747 2.49 4.785 0 9.276-3.752 10.012-8.363.348-2.175-.19-4.226-1.512-5.776-1.371-1.606-3.413-2.49-5.749-2.49Zm-2.37 14.862c-.348 0-.667-.142-.877-.387a1.09 1.09 0 0 1-.24-.895c.096-.604.618-1.089 1.226-1.17a.647.647 0 0 1-.39-.656l.758-8.636c.063-.709.686-1.3 1.42-1.348a1.194 1.194 0 0 1 1.046.439c.219.278.295.645.209 1.006l-1.994 8.636a.81.81 0 0 1-.564.583c.226.057.428.178.575.35.208.245.293.561.24.895-.105.664-.725 1.183-1.409 1.183Zm.293-1.842c-.373 0-.737.302-.793.657a.474.474 0 0 0 .098.39.516.516 0 0 0 .402.169c.372 0 .736-.302.793-.657a.482.482 0 0 0-.099-.392.519.519 0 0 0-.401-.167Zm1.702-10.63a.723.723 0 0 0-.055.003c-.422.027-.806.384-.84.779l-.759 8.636c-.001.01 0 .018.003.02.003.005.014.01.031.01.075.002.159-.06.175-.127l1.994-8.636V35.3a.546.546 0 0 0-.092-.475.555.555 0 0 0-.457-.208Z"/><path fill="#F7F9FC" d="M105.633 34.305c.587 0 .989.493.855 1.065l-1.995 8.636a.495.495 0 0 1-.469.37h-.031a.333.333 0 0 1-.323-.37l.758-8.636c.049-.55.554-1.025 1.129-1.063.025-.002.051-.002.076-.002Z"/><path fill="#F7F9FC" d="M104.025 44.69c-.018 0-.036 0-.054-.002a.658.658 0 0 1-.462-.226.651.651 0 0 1-.151-.482l.758-8.636c.063-.709.686-1.3 1.42-1.348a1.194 1.194 0 0 1 1.046.439c.219.278.295.645.209 1.007l-1.994 8.635a.808.808 0 0 1-.772.612Zm1.609-10.073a.723.723 0 0 0-.055.003c-.422.028-.806.385-.84.78l-.759 8.635c-.001.01 0 .018.003.021.003.004.014.008.031.01.075.001.159-.061.175-.128l1.994-8.636a.544.544 0 0 0-.092-.477.555.555 0 0 0-.457-.208ZM103.929 44.938c.528 0 .889.412.807.92-.08.509-.573.921-1.101.921-.526 0-.889-.41-.807-.92.082-.508.576-.922 1.101-.922Z"/><path fill="#F7F9FC" d="M103.636 47.09c-.347 0-.667-.141-.877-.387a1.09 1.09 0 0 1-.24-.895c.106-.664.725-1.183 1.41-1.183.347 0 .667.142.876.388.209.244.293.56.241.895-.106.663-.725 1.182-1.41 1.182Zm.293-1.841c-.372 0-.736.301-.793.657a.473.473 0 0 0 .098.39.517.517 0 0 0 .402.168c.372 0 .736-.301.793-.657a.475.475 0 0 0-.099-.392.517.517 0 0 0-.401-.166Z"/></svg>