<svg xmlns="http://www.w3.org/2000/svg" width="150" height="150" fill="none"><path fill="#F9FAFB" d="M74.999 128.203c28.319 0 51.276-9.006 51.276-20.115 0-11.11-22.957-20.115-51.276-20.115-28.32 0-51.276 9.006-51.276 20.115 0 11.109 22.957 20.115 51.276 20.115Z"/><path fill="#F7F9FC" d="m54.452 47.908-2.022 12.68h-6.573l2.023-12.68h6.572Z"/><path fill="#667185" d="M87.134 61.012c.437 0 .737.341.67.764-.067.422-.476.765-.915.765H61.202c-.438 0-.739-.343-.67-.765.066-.423.476-.764.913-.764h25.689Z"/><path fill="#F7F9FC" d="M89.268 51.956h14.965l-2.244 14.073-.889 5.576H61.717c-1.435 0-2.542-.928-2.7-2.266l-.123-1.046c-.158-1.336-1.265-2.265-2.7-2.265H44.99l.624-3.914h8.157l2.51-15.736h-8.157l1.452-9.112H91.35l.22.25-2.302 14.44Zm-1.561 5.462c.437 0 .846-.341.912-.764.067-.422-.231-.765-.669-.765H62.261c-.437 0-.847.343-.915.765-.067.423.233.764.67.764h25.69Zm-.817 5.123c.438 0 .846-.343.914-.766.067-.422-.232-.764-.67-.764h-25.69c-.437 0-.847.342-.913.764-.067.423.233.766.67.766h25.69Zm-.816 5.12c.437 0 .845-.343.912-.765.067-.422-.232-.765-.67-.765H60.629c-.438 0-.847.343-.916.765-.066.422.234.764.671.764h25.69Z"/><path fill="#667185" d="M86.317 66.13c.438 0 .737.344.67.766-.067.422-.475.764-.913.764H60.386c-.438 0-.74-.342-.671-.764.066-.422.476-.765.915-.765h25.687Z"/><path fill="#667185" d="M86.317 66.13c.438 0 .737.344.67.766-.067.422-.475.764-.913.764H60.386c-.438 0-.74-.342-.671-.764.066-.422.476-.765.915-.765h25.687ZM114.523 72.061c-.001-.043-.005-.086-.009-.129l-.007-.076a2.317 2.317 0 0 0-.023-.142c-.002-.016-.004-.033-.008-.05a.022.022 0 0 0-.003-.01c-.009-.05-.022-.1-.034-.148l-.01-.039a2.331 2.331 0 0 0-.058-.182l-.002-.004-.004-.01a2.374 2.374 0 0 0-.114-.26c-.004-.008-.005-.016-.01-.023-.001-.004-.004-.007-.007-.011a2.3 2.3 0 0 0-.126-.216l-.012-.02a5.044 5.044 0 0 0-.063-.09l-2.612-3.563a2.843 2.843 0 0 1 .218.36c.041.084.08.172.113.26l.006.015c.021.06.04.12.058.182.005.012.006.026.01.038a2.418 2.418 0 0 1 .067.35l.007.075.009.13c.002.027.002.055.002.083 0 .042 0 .085-.002.126-.001.028-.001.057-.004.086l-.011.131c-.003.028-.005.056-.01.085-.007.047-.013.093-.023.14a1.974 1.974 0 0 1-.059.258l-.008.035a3.072 3.072 0 0 1-.071.218l-.026.067c-.02.051-.04.103-.063.153a4.15 4.15 0 0 1-.082.176l-18.743 36.978-.094-.128c-.033.076-.07.15-.108.224-.003.005-.006.009-.007.015a3.77 3.77 0 0 1-.3.472c-.018.025-.038.047-.056.071a5.158 5.158 0 0 1-.132.161c-.023.028-.048.054-.073.081a4.186 4.186 0 0 1-.13.131c-.026.025-.051.052-.077.076l-.145.126-.073.062c-.075.062-.153.12-.234.174-.083.057-.17.11-.257.161-.023.014-.048.027-.073.04a3.337 3.337 0 0 1-.23.117l-.092.043-.088.036c-.047.02-.094.038-.142.054l-.09.032a1.908 1.908 0 0 1-.142.043c-.033.01-.065.02-.098.028a3.466 3.466 0 0 1-.149.035l-.094.021a4.26 4.26 0 0 1-.493.055l2.612 3.563.013-.002.001.002h.026c.04 0 .077-.002.116-.003.016-.001.033-.004.05-.004.083-.004.166-.013.248-.024l.074-.008a2.84 2.84 0 0 0 .314-.063c.025-.005.048-.014.072-.019.054-.015.11-.028.164-.046l.087-.03.066-.023c.09-.033.179-.068.266-.107.006-.002.011-.007.018-.008.006-.003.013-.004.02-.008l-.001-.002v.002a3.82 3.82 0 0 0 .293-.152c.027-.015.052-.033.079-.05.062-.037.125-.075.186-.116l.015-.01c.038-.025.072-.054.108-.082.043-.032.087-.061.127-.094l.015-.012c.039-.03.074-.065.111-.097.032-.028.066-.054.096-.083l.02-.02.004-.002.002-.003a.34.34 0 0 0 .024-.022c.018-.017.032-.036.05-.053.047-.047.096-.095.14-.145.013-.013.024-.029.036-.043.01-.011.023-.022.032-.033l.03-.035c.032-.039.062-.077.093-.118l.018-.022a4.005 4.005 0 0 0 .186-.272c.005-.01.012-.018.018-.027l.015-.026c.044-.074.086-.147.125-.225l18.771-37.028c.025-.05.05-.101.072-.151l.01-.024a4.022 4.022 0 0 0 .16-.437l.008-.035a2.451 2.451 0 0 0 .058-.258 3.854 3.854 0 0 0 .034-.225 5.738 5.738 0 0 0 .015-.217l.001-.126c-.005-.024-.005-.052-.007-.08Z"/><path fill="#F9FAFB" d="m91.888 113.05-3.058-4.17.586-.024a3.408 3.408 0 0 0 .261-.024l.038-.005c.05-.007.1-.014.15-.024l.055-.011.032-.007.135-.03.074-.021.016-.006a2.166 2.166 0 0 0 .214-.069c.043-.016.088-.032.13-.05l.081-.034c.021-.008.04-.018.059-.027l.027-.013c.073-.033.142-.069.212-.107l.029-.015.039-.021a3.382 3.382 0 0 0 .45-.308l.038-.032.03-.025.132-.117.06-.058.012-.011c.04-.039.079-.081.118-.121l.066-.074c.044-.048.083-.097.123-.147l.022-.028.03-.037a3.85 3.85 0 0 0 .275-.432l.005-.013c.036-.068.07-.136.098-.205l.217-.497.114.155 18.518-36.528c.028-.054.051-.107.075-.16.021-.048.039-.094.057-.141l.023-.06c.024-.066.046-.132.064-.198l.007-.031c.016-.056.029-.111.041-.165l.012-.067.021-.126.007-.057.001-.018c.004-.04.009-.078.01-.117l.003-.075.001-.114-.001-.073c-.002-.038-.004-.077-.009-.114l-.002-.025-.005-.043a2.675 2.675 0 0 0-.019-.125l-.008-.053c-.009-.045-.02-.088-.031-.132l-.007-.028a1.604 1.604 0 0 0-.053-.167l-.002-.007a2.154 2.154 0 0 0-.102-.233l-.009-.02a2.425 2.425 0 0 0-.116-.198l-.065-.097.504-.37c.002.002.003.003.003.005l2.61 3.558c.025.033.048.067.07.101l.02.034c.046.07.092.147.132.223l.01.017.019.043c.043.085.083.176.117.27l.014.038c.019.056.041.124.061.192l.008.036c.017.063.029.118.04.175l.004.018a2.731 2.731 0 0 1 .031.206l.007.066.001.02c.005.047.009.094.01.143l.003.091a2.261 2.261 0 0 1-.006.237c-.002.048-.007.095-.012.144l-.002.017a1.978 1.978 0 0 1-.008.076c-.007.052-.017.103-.025.154l-.004.024a3.685 3.685 0 0 1-.147.538l-.02.05-.008.02-.068.167-.011.028c-.025.054-.05.108-.078.164l-18.77 37.027a4.88 4.88 0 0 1-.137.245l-.015.028-.021.032a4.968 4.968 0 0 1-.186.273l.005.007-.172.2-.001.001-.24.28-.01-.013-.027.028-.054.051c-.023.023-.047.042-.07.063l-.069.058c-.028.025-.055.05-.084.074l-.023.016a1.875 1.875 0 0 1-.097.074l-.07.051a2.146 2.146 0 0 1-.081.062l-.024.015c-.057.039-.124.079-.19.119l-.028.018c-.014.01-.03.018-.043.028l.01.013-.324.151-.016.007-.228.105-.006-.006-.096.036-.1.034a.847.847 0 0 1-.065.023c-.047.015-.096.027-.143.04l-.057.022a4.015 4.015 0 0 1-.397.083c-.02.003-.038.006-.057.007l-.024.003a2.873 2.873 0 0 1-.27.025l-.055.006-.126.002H92.048l-.16.007Zm-1.89-3.636 2.2 2.999a2.886 2.886 0 0 0 .258-.024l.067-.008a2.81 2.81 0 0 0 .286-.057l.104-.028c.038-.009.077-.019.114-.032l.042-.014.099-.034c.095-.035.173-.067.244-.099l.015-.008.025-.01c.085-.039.171-.083.256-.132l.014-.008a.358.358 0 0 1 .022-.014c.014-.01.03-.018.043-.028.06-.036.117-.069.17-.107l.023-.014.046-.035.082-.061.08-.059.021-.016a1.05 1.05 0 0 0 .053-.047l.085-.073c.015-.013.032-.027.046-.041l.058-.057.033-.036.03-.029c.034-.035.068-.068.1-.104l.033-.039c.01-.011.018-.021.027-.029l.238.198-.235-.201.027-.031c.028-.033.053-.066.079-.099l.022-.028.006-.009a3.126 3.126 0 0 0 .183-.27l.01-.02c.04-.067.079-.135.115-.205l18.771-37.027c.023-.046.046-.093.066-.139l.01-.022c.021-.046.039-.093.057-.139l.024-.06c.023-.066.046-.131.064-.198l.008-.03c.015-.055.029-.11.04-.166l.013-.068a2.77 2.77 0 0 0 .028-.185l.001-.016a2.295 2.295 0 0 0 .012-.194c.002-.037.002-.075.002-.112 0-.025 0-.05-.002-.074a1.453 1.453 0 0 0-.008-.114l-.001-.023-.004-.046a2.651 2.651 0 0 0-.02-.124l-.007-.045c-.001-.006-.003-.01-.003-.016-.007-.036-.018-.079-.029-.123l-.007-.028a1.931 1.931 0 0 0-.05-.161c-.001-.003-.004-.008-.005-.015a2.398 2.398 0 0 0-.1-.231l-.016-.03a2.764 2.764 0 0 0-.109-.188l-.018-.03-.048-.066-1.559-2.128v.01a2.448 2.448 0 0 1-.017.24l-.001.018-.009.075a2.834 2.834 0 0 1-.026.157l-.004.024-.011.058a3.011 3.011 0 0 1-.05.203l-.009.035a3.248 3.248 0 0 1-.077.24l-.02.05-.008.02c-.022.056-.043.112-.068.168a2.482 2.482 0 0 1-.091.19l-18.976 37.43-.099-.134c-.004.007-.008.015-.014.022a3.696 3.696 0 0 1-.195.287l-.042.055-.018.023a4.301 4.301 0 0 1-.224.263c-.045.048-.091.096-.138.143l-.012.011-.072.071a5.861 5.861 0 0 1-.155.136l-.024.021c-.018.015-.036.032-.056.045a3.8 3.8 0 0 1-.528.362c-.017.011-.037.02-.055.03l-.023.013c-.081.044-.164.087-.25.126l-.024.011c-.025.013-.052.024-.077.036a1.273 1.273 0 0 1-.087.036c-.058.024-.11.043-.161.063a3.788 3.788 0 0 0-.097.035l-.154.047-.017.004c-.03.008-.061.018-.09.025-.053.014-.107.025-.162.037l-.027.006a.282.282 0 0 1-.063.015Z"/><path fill="#D0D5DD" d="M109.193 66.03c2.166 0 3.367 2.046 2.363 4.026l-18.771 37.027c-.632 1.246-1.978 2.087-3.342 2.085 1.374-.057 2.707-.969 3.273-2.262l13.755-31.455c.849-1.94-.364-3.847-2.448-3.847h-2.925l.888-5.575h7.207Z"/><path fill="#F9FAFB" d="M89.446 109.481h-.004l-.012-.625c1.254-.051 2.487-.904 2.998-2.075l13.756-31.454c.367-.839.325-1.707-.117-2.38-.428-.653-1.172-1.028-2.046-1.028h-3.29l.989-6.2h7.472c1.122 0 2.074.501 2.611 1.378.55.895.561 2.056.031 3.102l-18.771 37.025c-.685 1.35-2.138 2.257-3.617 2.257Zm12.02-38.189h2.558c1.088 0 2.024.478 2.568 1.311.559.855.62 1.938.165 2.974L96.403 99.254l14.874-29.34c.439-.863.436-1.773-.006-2.493-.42-.686-1.177-1.079-2.077-1.079h-6.939l-.789 4.95Z"/><path fill="#D0D5DD" d="M109.354 77.617c-.003-.048-.006-.095-.011-.142l-.009-.07a1.788 1.788 0 0 0-.019-.126c-.003-.012-.003-.025-.006-.037l-.008-.037a4.667 4.667 0 0 0-.026-.113l-.018-.071c-.012-.04-.024-.078-.038-.117-.006-.015-.01-.032-.015-.047a2.591 2.591 0 0 0-.118-.27l-.01-.023-.01-.015a2.547 2.547 0 0 0-.197-.319l-2.612-3.562a3.099 3.099 0 0 1 .197.32l.019.037c.043.085.081.172.114.261l.02.057c.012.039.026.078.037.117a2.012 2.012 0 0 1 .058.258l.02.125c.003.024.007.047.008.07.004.048.008.095.01.142l.003.059a3.44 3.44 0 0 1-.018.41l-.01.07-.022.14a2.484 2.484 0 0 1-.048.215l-.02.079c-.014.048-.03.097-.046.145l-.024.069a3.19 3.19 0 0 1-.085.213L92.715 106.91c-.034.076-.07.15-.109.223-.002.006-.005.01-.006.016a4.078 4.078 0 0 1-.3.472l-.056.071a2.307 2.307 0 0 1-.206.241 3.417 3.417 0 0 1-.129.132c-.026.025-.051.052-.078.075-.047.043-.095.085-.144.127l-.073.062c-.076.061-.153.12-.234.174-.083.057-.17.109-.257.161-.023.014-.048.026-.073.04a3.337 3.337 0 0 1-.23.117c-.03.015-.062.029-.093.043l-.087.036a4.097 4.097 0 0 1-.142.054l-.09.032c-.047.015-.094.031-.142.043-.033.01-.065.02-.098.028l-.149.035-.094.02c-.055.01-.11.018-.166.025a3.422 3.422 0 0 1-.328.031l-46.86.003c-.945 0-1.748-.404-2.231-1.063l2.612 3.563c.484.658 1.287 1.062 2.232 1.062l46.86-.003c.083-.002.165-.009.247-.019l.08-.011c.056-.007.11-.015.165-.025l.096-.021c.05-.011.098-.021.147-.035l.1-.027.087-.025.054-.018.09-.032c.048-.017.095-.037.142-.055.03-.012.059-.023.088-.036l.044-.018c.017-.007.032-.016.049-.025.078-.036.154-.075.23-.116l.048-.025a3.9 3.9 0 0 0 .514-.35l.018-.014c.02-.016.036-.034.055-.049l.145-.126.032-.028c.016-.015.03-.032.047-.049.044-.043.087-.087.129-.132.014-.015.028-.027.042-.043.01-.012.02-.025.032-.037.045-.053.088-.106.132-.161.013-.018.029-.035.043-.053l.013-.02c.064-.086.126-.175.181-.265.003-.004.007-.008.01-.014a3.61 3.61 0 0 0 .11-.193l.008-.016.089-.181c.007-.014.012-.029.02-.043l13.755-31.454c.03-.071.058-.143.084-.214l.024-.068c.017-.049.032-.097.046-.146l.021-.08.032-.135c.005-.027.011-.053.015-.08l.022-.138.01-.071a2.572 2.572 0 0 0 .017-.207 4.58 4.58 0 0 0 .001-.203l-.004-.055Z"/><path fill="#F9FAFB" d="M45.184 113.046c-1.024 0-1.93-.433-2.484-1.19l-2.612-3.562.504-.37.003.003c.436.592 1.157.932 1.978.932l46.86-.003a3.853 3.853 0 0 0 .248-.024l.037-.005c.05-.007.1-.014.15-.024l.056-.011.032-.007.135-.03.073-.021.017-.006c.043-.012.087-.025.13-.04l.084-.029c.043-.015.087-.032.13-.05.032-.013.056-.022.08-.034.022-.008.04-.018.06-.027l.027-.013c.072-.033.142-.069.211-.107l.03-.015.038-.021c.09-.053.167-.1.236-.148.068-.048.138-.099.214-.16l.04-.032.028-.025c.045-.038.09-.077.132-.117l.061-.058.011-.011c.04-.039.08-.081.118-.121l.067-.074c.043-.048.082-.097.122-.147l.023-.028.029-.037a3.853 3.853 0 0 0 .275-.432l.005-.013a2.56 2.56 0 0 0 .099-.205l13.755-31.454a3.52 3.52 0 0 0 .078-.195l.021-.062.042-.132c.005-.023.012-.045.018-.067a2.143 2.143 0 0 0 .044-.197c.009-.043.014-.085.02-.125l.008-.063a2.67 2.67 0 0 0 .013-.154l.001-.026c.003-.066.003-.125.001-.185l-.002-.051c-.003-.043-.005-.085-.01-.125a1.952 1.952 0 0 0-.006-.046l-.003-.017-.016-.11-.013-.066a3.601 3.601 0 0 0-.023-.1l-.017-.063-.032-.103-.017-.05a1.862 1.862 0 0 0-.1-.229l-.016-.033a2.135 2.135 0 0 0-.171-.276l-.001-.003.504-.37v.002l2.612 3.56c.024.034.047.068.071.1l.017.027a3.307 3.307 0 0 1 .146.246l.016.036c.047.095.086.185.12.274l.007.02c.007.017.011.031.015.045l.046.143.019.071c.013.05.024.092.032.135.004.016.007.027.008.039a1.73 1.73 0 0 1 .028.183l.01.08c.005.053.008.106.011.159l.001.018a2.412 2.412 0 0 1 .002.272l-.003.032a2.36 2.36 0 0 1-.025.253l-.003.02c-.007.05-.015.102-.025.153l-.016.087-.035.15-.024.087a3.818 3.818 0 0 1-.05.16l-.007.02a4.103 4.103 0 0 1-.111.287l-13.778 31.503c-.029.065-.062.13-.095.194l-.009.017a3.5 3.5 0 0 1-.12.211l-.014.021c-.06.097-.124.19-.194.282a.35.35 0 0 1-.05.063l-.01.014c-.048.06-.095.118-.144.174l-.034.042-.035.036-.01.009a5.696 5.696 0 0 1-.139.143l-.012.013a.596.596 0 0 1-.04.039c-.009.01-.019.018-.028.026-.056.052-.109.096-.161.141l-.017.013a.457.457 0 0 1-.044.038l-.024.018a4.38 4.38 0 0 1-.524.358l-.026.017-.045.024a5.907 5.907 0 0 1-.308.157l-.036.015a2.538 2.538 0 0 1-.108.044c-.05.021-.102.041-.153.059l-.097.034-.017.006-.042.014c-.02.007-.043.012-.065.019l-.046.013c-.03.008-.06.018-.091.025-.053.014-.107.025-.16.037l-.027.006-.076.016c-.06.012-.12.02-.18.028l-.026.004c-.02.003-.041.007-.062.009a3.308 3.308 0 0 1-.27.021l-46.87.002Zm-3.542-3.69 1.563 2.129c.436.595 1.157.935 1.979.935l46.86-.003a3.853 3.853 0 0 0 .25-.023l.036-.006a2.58 2.58 0 0 0 .205-.036l.03-.007.135-.031.074-.02.058-.017.04-.011.05-.018.083-.029c.043-.016.087-.032.13-.05l.08-.034.05-.021a4.494 4.494 0 0 0 .286-.145l.03-.019c.158-.091.31-.195.45-.308l.035-.028a3.271 3.271 0 0 0 .167-.145c.008-.007.016-.016.026-.023l.016-.016.03-.03c.041-.04.08-.08.119-.122l.028-.029.01-.011.029-.035c.041-.048.082-.097.122-.147l.028-.035.01-.014.013-.018c.06-.08.116-.162.166-.243l.012-.018c.035-.057.067-.112.097-.169l.009-.018c.026-.052.054-.106.079-.161l.018-.039L108.8 78.887c.028-.066.055-.13.077-.195l.021-.062.041-.132.02-.071c.011-.042.021-.082.029-.122l.014-.071c.008-.042.014-.084.019-.125l.009-.064.012-.153.001-.023a2.96 2.96 0 0 0 .002-.187l-.003-.051-.01-.125a.456.456 0 0 0-.007-.051l-.018-.123a.39.39 0 0 0-.012-.066c-.007-.03-.014-.064-.024-.098l-.016-.06a1.402 1.402 0 0 0-.034-.105l-.01-.032a1.99 1.99 0 0 0-.106-.246l-.017-.033a2.051 2.051 0 0 0-.11-.186l-.014-.022-.05-.071-1.559-2.126-.002.04-.003.032c-.004.07-.008.133-.016.197l-.009.058-.002.021c-.007.052-.016.103-.025.154a2.019 2.019 0 0 0-.017.087c-.011.05-.022.1-.035.15-.008.031-.015.06-.023.086a6.263 6.263 0 0 1-.05.16l-.009.023a3.216 3.216 0 0 1-.111.285l-13.755 31.454a3.759 3.759 0 0 1-.118.244l-.006.013a3.698 3.698 0 0 1-.328.516l-.041.055-.018.023a4.218 4.218 0 0 1-.224.263l-.139.143-.011.011-.072.071a5.866 5.866 0 0 1-.156.136l-.023.021c-.019.015-.037.032-.056.045a3.844 3.844 0 0 1-.528.362c-.018.011-.037.02-.055.03l-.024.013c-.08.044-.164.087-.249.126l-.025.011c-.025.013-.051.024-.076.036a1.253 1.253 0 0 1-.088.036c-.058.024-.11.043-.16.063a3.65 3.65 0 0 0-.098.035l-.154.047-.017.004c-.03.008-.06.018-.09.025-.053.014-.107.025-.161.037l-.028.006a3.7 3.7 0 0 1-.256.043l-.026.004-.06.009a2.903 2.903 0 0 1-.272.02l-46.872.003a3.433 3.433 0 0 1-.925-.129Zm53.711 1.732-.001.003.001-.003Zm-.508-.363c0 .002-.002.002-.002.003l.002-.003Z"/><path fill="#E4E7EC" d="m106.847 55.518-2.613-3.563-2.244 14.074-.89 5.575h2.925c.086 0 .172.002.254.01l.323-2.024v-.002l2.245-14.07Z"/><path fill="#F9FAFB" d="m104.542 71.95-.289-.023a3.069 3.069 0 0 0-.229-.01h-3.292l3.31-20.751 3.133 4.27-2.243 14.069-.02.136-.37 2.31Zm-3.076-.658h2.548l.28-1.75 2.223-13.944-2.093-2.854-2.958 18.548Z"/><path fill="#D0D5DD" d="m106.472 75.452-13.755 31.454c-.566 1.293-1.899 2.207-3.287 2.263l-46.86.003c-1.434 0-2.54-.931-2.7-2.267l-4.38-37.028c-.229-1.94 1.59-3.846 3.674-3.846h17.029c1.435 0 2.543.928 2.701 2.264l.124 1.046c.158 1.338 1.264 2.267 2.7 2.267h42.307c.086 0 .172.002.254.01 1.927.147 3.006 1.974 2.193 3.834Z"/><path fill="#F9FAFB" d="M42.57 109.485c-1.595 0-2.832-1.046-3.01-2.542l-4.38-37.03c-.114-.966.231-1.984.95-2.792.794-.892 1.9-1.404 3.034-1.404h17.03c1.595 0 2.834 1.044 3.01 2.54l.124 1.046c.139 1.172 1.121 1.99 2.389 1.99h42.307c.096 0 .189.004.281.011 1.005.078 1.861.585 2.345 1.39.505.838.543 1.89.11 2.882l-13.756 31.455c-.613 1.404-2.044 2.389-3.56 2.45l-46.874.004Zm-3.406-43.142c-.943 0-1.901.446-2.566 1.193-.6.675-.89 1.514-.798 2.303l4.38 37.031c.14 1.172 1.122 1.99 2.39 1.99l46.86-.003c1.25-.05 2.487-.904 3-2.075l13.756-31.454c.352-.806.325-1.647-.072-2.31-.379-.63-1.055-1.028-1.858-1.089a3.115 3.115 0 0 0-.231-.01H61.717c-1.594 0-2.832-1.045-3.01-2.541l-.123-1.046c-.14-1.17-1.123-1.989-2.39-1.989h-17.03Z"/><path fill="#F9FAFB" d="M101.1 71.918H61.718c-1.595 0-2.834-1.045-3.012-2.54l-.122-1.046c-.139-1.171-1.122-1.99-2.39-1.99H44.99a.313.313 0 0 1-.309-.36l.624-3.914a.313.313 0 0 1 .308-.264h7.892l2.41-15.111h-7.792a.313.313 0 0 1-.308-.361l1.453-9.113a.313.313 0 0 1 .308-.264H91.35c.09 0 .175.039.234.107l.22.25c.06.07.089.164.073.256l-2.243 14.075h14.599a.31.31 0 0 1 .237.11.31.31 0 0 1 .071.25l-3.133 19.65a.311.311 0 0 1-.308.265Zm-55.743-6.2h10.838c1.595 0 2.834 1.044 3.011 2.54l.123 1.046c.139 1.17 1.122 1.989 2.39 1.989h39.114l3.035-19.025H89.269a.313.313 0 0 1-.308-.361l2.277-14.294-.029-.033H49.844l-1.354 8.488h7.791a.313.313 0 0 1 .309.36l-2.51 15.737a.313.313 0 0 1-.308.264H45.88l-.524 3.289Zm40.718 2.254h-25.69c-.303 0-.584-.124-.769-.34a.962.962 0 0 1-.21-.785c.09-.577.628-1.028 1.223-1.028h25.689a1 1 0 0 1 .766.339.957.957 0 0 1 .211.787c-.091.575-.627 1.027-1.22 1.027Zm-25.446-1.528c-.285 0-.563.23-.606.501a.336.336 0 0 0 .07.28c.066.079.17.122.293.122h25.688c.285 0 .562-.23.605-.5a.342.342 0 0 0-.07-.284.373.373 0 0 0-.291-.119h-25.69Zm26.262-3.592h-25.69a1 1 0 0 1-.768-.34.953.953 0 0 1-.211-.786c.091-.575.629-1.026 1.223-1.026h25.69c.303 0 .583.123.767.338a.963.963 0 0 1 .211.787c-.093.576-.629 1.027-1.222 1.027Zm-25.446-1.527c-.284 0-.562.229-.605.5a.338.338 0 0 0 .07.281c.066.078.17.121.292.121h25.69c.284 0 .56-.229.603-.501a.334.334 0 0 0-.07-.282.372.372 0 0 0-.29-.12h-25.69Zm26.263-3.595H62.019c-.304 0-.585-.123-.77-.34a.962.962 0 0 1-.21-.785c.091-.576.629-1.028 1.223-1.028h25.689a1 1 0 0 1 .767.34.957.957 0 0 1 .21.787c-.091.576-.627 1.026-1.22 1.026Zm-25.446-1.528c-.285 0-.563.23-.605.502a.331.331 0 0 0 .069.28c.067.078.17.121.293.121h25.689c.285 0 .561-.23.604-.5a.343.343 0 0 0-.07-.283.373.373 0 0 0-.291-.12H62.262Z"/><path fill="#D0D5DD" d="m39.75 46.127-2.59 16.242h16.828l2.59-16.242H39.75Zm14.405 2.033-1.942 12.174H39.58L41.52 48.16h12.634ZM91.572 37.52l12.664 14.436H89.269l2.303-14.437Z"/><path fill="#F9FAFB" d="M104.236 52.268H89.269a.313.313 0 0 1-.308-.361l2.302-14.436a.314.314 0 0 1 .545-.157l12.664 14.436c.08.092.1.223.05.334a.316.316 0 0 1-.286.184Zm-14.6-.625h13.909l-11.77-13.417-2.14 13.417Z"/><path fill="#D0D5DD" d="M88.672 55.955a.927.927 0 0 0-.72-.318H62.26c-.565 0-1.078.429-1.164.977a.898.898 0 0 0 .197.738c.174.203.438.32.724.32h25.689c.565 0 1.075-.43 1.162-.977a.903.903 0 0 0-.197-.74ZM87.133 60.76H61.444c-.565 0-1.076.429-1.163.976a.897.897 0 0 0 .197.738c.173.202.436.32.723.32h25.69c.564 0 1.074-.43 1.162-.979a.897.897 0 0 0-.197-.737.94.94 0 0 0-.723-.318ZM86.317 65.879H60.628c-.565 0-1.078.43-1.164.978a.898.898 0 0 0 .197.737c.174.203.438.32.724.32h25.689c.565 0 1.075-.43 1.162-.977a.901.901 0 0 0-.197-.739.927.927 0 0 0-.722-.32ZM115.317 54.195l.31 1.935c.186 1.16.982 2.068 2.128 2.426l1.912.596-2.103.596c-1.258.358-2.344 1.265-2.901 2.427l-.926 1.934-.311-1.934c-.187-1.16-.982-2.069-2.128-2.427l-1.911-.596 2.101-.596c1.258-.358 2.345-1.265 2.901-2.426l.928-1.935ZM45.596 35.096l.238 1.483c.143.889.752 1.586 1.631 1.86l1.467.457-1.612.458a3.583 3.583 0 0 0-2.225 1.858l-.711 1.485-.238-1.485c-.143-.889-.754-1.584-1.632-1.858l-1.465-.458 1.61-.457a3.585 3.585 0 0 0 2.226-1.86l.711-1.483ZM102.997 100.578l.132.828c.08.494.421.883.909 1.036l.817.256-.897.255a1.997 1.997 0 0 0-1.24 1.036l-.396.828-.132-.828a1.291 1.291 0 0 0-.908-1.036l-.817-.255.898-.256a1.995 1.995 0 0 0 1.239-1.036l.395-.828ZM34.579 89.65l.132.827c.079.496.42.883.91 1.036l.816.255-.897.256a1.995 1.995 0 0 0-1.24 1.037l-.396.827-.132-.827a1.286 1.286 0 0 0-.908-1.037l-.817-.256.897-.255a1.982 1.982 0 0 0 1.239-1.036l.396-.827Z"/></svg>