<svg xmlns="http://www.w3.org/2000/svg" width="150" height="150" fill="none"><path fill="#F9FAFB" d="M75 122.697c28.319 0 51.276-9.006 51.276-20.115 0-11.11-22.957-20.115-51.276-20.115-28.32 0-51.276 9.006-51.276 20.115 0 11.109 22.957 20.115 51.276 20.115Z"/><path fill="#D0D5DD" d="M56.848 53.879c.393-2.464 2.785-4.468 5.34-4.477l-3.297 8.536c-1.474-.71-2.33-2.263-2.043-4.06Z"/><path fill="#F9FAFB" d="M58.89 58.252a.31.31 0 0 1-.136-.031c-1.645-.794-2.514-2.518-2.215-4.39.415-2.605 2.948-4.73 5.647-4.74h.001a.311.311 0 0 1 .292.426l-3.297 8.536a.313.313 0 0 1-.292.199Zm2.833-8.512c-2.225.231-4.22 2.023-4.565 4.188-.235 1.475.376 2.839 1.57 3.567l2.995-7.755Z"/><path fill="#F7F9FC" stroke="#F9FAFB" stroke-linecap="round" stroke-linejoin="round" stroke-miterlimit="10" stroke-width="4.5" d="m105.941 51.53 1.983-5.133H63.35l-.612 1.587c2.048.099 3.673 1.19 4.447 2.788.255-.066.517-.1.77-.1.723 0 1.31.277 1.645.776.34.505.378 1.2.104 1.898-.531 1.371-2.068 2.445-3.495 2.445-.723 0-1.306-.274-1.64-.776-.344-.505-.381-1.198-.109-1.9.254-.648.73-1.228 1.314-1.662-.632-1.233-1.94-2.048-3.585-2.048l-3.297 8.535-.55 1.422-.707 1.836c2.044.094 3.668 1.178 4.45 2.765.244-.057.493-.089.735-.089.722 0 1.305.274 1.643.777.34.505.378 1.197.107 1.898-.534 1.371-2.068 2.443-3.496 2.443-.722 0-1.308-.273-1.643-.773-.34-.506-.38-1.2-.107-1.902.255-.658.744-1.248 1.342-1.684a3.636 3.636 0 0 0-1.413-1.461 4.285 4.285 0 0 0-2.015-.55c-.042-.002-.084-.002-.127-.002h-.027l-3.296 8.53-.55 1.421-.71 1.84c2.049.091 3.678 1.17 4.461 2.76.249-.06.5-.094.75-.094.722 0 1.304.276 1.64.776.34.506.382 1.198.109 1.899-.534 1.37-2.07 2.445-3.499 2.445-.722 0-1.304-.277-1.64-.777-.34-.505-.38-1.2-.107-1.898.254-.655.736-1.24 1.328-1.674-.64-1.214-1.936-2.013-3.598-2.011l-3.452 8.94-.388 1.003v.001l-.712 1.843c2.044.086 3.673 1.156 4.464 2.734a3.15 3.15 0 0 1 .697-.081c.722 0 1.305.276 1.643.776.34.506.378 1.198.104 1.902-.532 1.37-2.068 2.443-3.494 2.443-.723 0-1.306-.276-1.644-.776-.34-.506-.377-1.198-.106-1.902.262-.668.762-1.267 1.37-1.704-.645-1.188-1.931-1.968-3.586-1.965l-3.308 8.562-.532 1.377-2.907 7.523h44.574L89.9 93.038H62.195l16.16-41.507h27.586v-.001Zm-29.912 50.75H53.9l.551-1.428h22.132l-.553 1.428Zm2.335-6.04-.554 1.429H55.68l.55-1.428h22.134Z"/><path fill="#F7F9FC" d="M66.817 53.88c.454 0 .858-.39.863-.823a5.16 5.16 0 0 0-.141-1.297c.083-.01.165-.018.245-.018.38 0 .678.134.842.374.171.255.183.608.03.997-.338.87-1.381 1.606-2.277 1.606-.378 0-.676-.134-.84-.377-.172-.255-.182-.608-.032-.997.123-.318.341-.617.61-.87.047.25.069.51.065.778-.004.359.262.627.635.627Z"/><path fill="#F9FAFB" d="M66.379 55.032c-.486 0-.877-.182-1.099-.514-.229-.34-.252-.797-.064-1.285.137-.351.375-.692.69-.985a.311.311 0 0 1 .521.172c.05.273.074.555.07.84a.295.295 0 0 0 .08.218c.059.058.142.09.24.09.281 0 .55-.25.552-.514a4.924 4.924 0 0 0-.133-1.22.309.309 0 0 1 .046-.248.316.316 0 0 1 .215-.133c.097-.014.196-.021.289-.021.486 0 .876.182 1.1.51.23.347.253.802.062 1.287-.387.994-1.539 1.803-2.57 1.803Zm-.507-1.734a1.543 1.543 0 0 0-.072.161c-.113.29-.113.543 0 .71.103.154.31.239.58.239.767 0 1.696-.657 1.988-1.406.114-.29.114-.541 0-.71-.085-.126-.242-.205-.447-.228.054.326.079.66.073.998-.008.602-.557 1.13-1.176 1.13a.95.95 0 0 1-.685-.276.905.905 0 0 1-.261-.618Z"/><path fill="#D0D5DD" d="M66.209 56.104c-.83 0-1.506-.325-1.901-.914-.399-.589-.449-1.386-.14-2.186.266-.679.77-1.318 1.419-1.8a.311.311 0 0 1 .464.11c.177.347.304.72.375 1.111a.312.312 0 0 1-.095.285c-.247.23-.43.491-.533.754-.113.29-.113.543 0 .71.104.154.31.239.58.239.767 0 1.696-.657 1.988-1.406.114-.29.114-.542 0-.711-.103-.152-.31-.236-.582-.236-.065 0-.133.005-.203.015l-.043.003a.313.313 0 0 1-.304-.24 4.613 4.613 0 0 0-.33-.925.312.312 0 0 1 .206-.439c.285-.073.57-.109.846-.109.83 0 1.506.325 1.903.914.399.595.447 1.392.137 2.188-.576 1.476-2.24 2.637-3.787 2.637Z"/><path fill="#F9FAFB" d="M67.957 50.672c.722 0 1.307.276 1.643.776.34.506.38 1.199.106 1.899-.534 1.37-2.07 2.443-3.496 2.443-.722 0-1.306-.275-1.642-.776-.341-.505-.379-1.198-.107-1.9.253-.648.73-1.228 1.313-1.662.162.317.279.66.346 1.025-.271.253-.488.552-.612.87-.15.389-.14.742.032.997.163.243.462.377.84.377.895 0 1.94-.737 2.277-1.606.151-.389.14-.742-.03-.997-.164-.24-.462-.374-.842-.374-.08 0-.163.006-.246.018a4.876 4.876 0 0 0-.354-.99c.257-.065.517-.1.772-.1Zm0-.625c-.301 0-.611.04-.922.118a.624.624 0 0 0-.41.88c.132.273.236.563.308.863a.624.624 0 0 0 .695.474c.054-.009.108-.011.16-.011.158 0 .282.038.323.1.04.058.052.2-.033.419-.246.632-1.054 1.207-1.696 1.207-.157 0-.279-.038-.32-.099-.04-.058-.055-.203.031-.423a1.79 1.79 0 0 1 .456-.638.624.624 0 0 0 .187-.57 4.371 4.371 0 0 0-.405-1.197.622.622 0 0 0-.928-.216c-.696.517-1.236 1.204-1.522 1.937-.349.899-.285 1.802.17 2.477.455.677 1.223 1.051 2.16 1.051 1.695 0 3.449-1.222 4.08-2.842.348-.891.287-1.794-.169-2.473-.46-.684-1.229-1.057-2.165-1.057Z"/><path fill="#98A2B3" d="m53.37 20.506 9.982 25.89-.614 1.588a7.675 7.675 0 0 0-.309-.007c-3.376 0-6.541 2.646-7.06 5.903-.397 2.483.858 4.61 2.973 5.48l-.71 1.835a6.94 6.94 0 0 0-.293-.007c-3.376 0-6.543 2.647-7.061 5.903-.396 2.479.853 4.602 2.961 5.476l-.711 1.84c-.092-.002-.185-.007-.28-.007-3.376 0-6.544 2.647-7.063 5.904-.395 2.473.85 4.593 2.95 5.47l-.713 1.844a6.866 6.866 0 0 0-.255-.005c-3.184 0-6.28 2.404-6.99 5.489-.61 2.64.647 4.95 2.855 5.88l-2.907 7.525-10.07-25.857 23.316-60.144Z"/><path fill="#F9FAFB" d="M40.122 106.824a.313.313 0 0 1-.291-.199L29.76 80.768a.318.318 0 0 1 0-.226L53.08 20.393a.313.313 0 0 1 .584 0l9.98 25.89a.314.314 0 0 1 0 .226l-.614 1.587a.314.314 0 0 1-.307.2 6.947 6.947 0 0 0-.293-.005c-3.228 0-6.257 2.529-6.753 5.639-.364 2.277.73 4.297 2.784 5.142a.313.313 0 0 1 .172.402l-.71 1.835a.313.313 0 0 1-.307.2 6.232 6.232 0 0 0-.278-.006c-3.227 0-6.257 2.53-6.752 5.639-.363 2.272.725 4.29 2.772 5.139a.313.313 0 0 1 .172.401l-.711 1.84a.317.317 0 0 1-.303.2c-.093-.002-.179-.005-.268-.005-3.229 0-6.258 2.53-6.755 5.642-.361 2.266.722 4.28 2.76 5.132a.313.313 0 0 1 .172.401l-.713 1.844a.313.313 0 0 1-.292.2h-.01a6.255 6.255 0 0 0-.245-.005c-3.071 0-6.007 2.304-6.686 5.246-.553 2.397.52 4.616 2.672 5.523.156.066.23.243.17.4l-2.907 7.525a.312.312 0 0 1-.29.199Zm-9.733-26.17 9.732 24.994 2.51-6.498c-2.255-1.097-3.36-3.515-2.76-6.114.741-3.213 3.946-5.73 7.296-5.73h.043l.526-1.364c-2.135-1.03-3.251-3.226-2.86-5.683.542-3.402 3.85-6.168 7.373-6.168h.066l.525-1.357c-2.141-1.027-3.264-3.227-2.87-5.69.541-3.4 3.848-6.167 7.37-6.167h.082l.522-1.352c-2.151-1.023-3.277-3.225-2.883-5.695.542-3.4 3.849-6.166 7.37-6.166h.095l.49-1.27-9.645-25.023-22.982 59.284Z"/><path fill="#D0D5DD" d="m57.084 62.62-3.296 8.528c-1.468-.715-2.317-2.262-2.03-4.055.39-2.45 2.758-4.446 5.326-4.474Z"/><path fill="#F9FAFB" d="M53.788 71.46a.322.322 0 0 1-.138-.031c-1.636-.797-2.5-2.518-2.202-4.386.41-2.584 2.937-4.707 5.63-4.736h.003a.31.31 0 0 1 .257.134.31.31 0 0 1 .035.29l-3.296 8.53a.311.311 0 0 1-.29.2Zm2.829-8.5c-2.22.247-4.21 2.037-4.55 4.181-.235 1.471.372 2.832 1.56 3.561l2.99-7.741Z"/><path fill="#F7F9FC" d="M61.726 67.093c.453 0 .858-.389.864-.822a5.23 5.23 0 0 0-.146-1.315c.07-.008.137-.013.204-.013.378 0 .676.134.84.377.173.255.184.608.032.997-.339.87-1.382 1.603-2.278 1.603-.379 0-.677-.134-.841-.375-.171-.256-.184-.609-.03-.998.128-.331.36-.644.648-.904.051.266.078.54.074.825-.006.356.26.625.633.625Z"/><path fill="#F9FAFB" d="M61.243 68.233c-.486 0-.877-.182-1.1-.511-.23-.345-.253-.802-.063-1.286.143-.366.395-.72.73-1.023a.316.316 0 0 1 .31-.065.316.316 0 0 1 .208.236c.056.29.083.588.079.89a.29.29 0 0 0 .08.217c.059.058.142.09.24.09.281 0 .55-.25.552-.514a4.926 4.926 0 0 0-.138-1.236.314.314 0 0 1 .267-.384c.08-.01.163-.014.242-.014.486 0 .876.183 1.098.514.23.34.253.797.064 1.284-.387.993-1.54 1.802-2.57 1.802Zm-.463-1.816a1.72 1.72 0 0 0-.12.245c-.113.29-.113.542 0 .71.104.151.31.236.583.236.767 0 1.696-.656 1.987-1.404.113-.29.113-.543 0-.71-.079-.118-.22-.196-.401-.225.056.328.08.665.075 1.005-.008.603-.558 1.131-1.177 1.131a.955.955 0 0 1-.686-.276.924.924 0 0 1-.26-.664v-.047Z"/><path fill="#D0D5DD" d="M46.665 80.307c.392-2.456 2.77-4.451 5.311-4.475l-3.454 8.94.161-.418c-1.458-.716-2.302-2.262-2.018-4.047Z"/><path fill="#F9FAFB" d="M48.522 85.085a.312.312 0 0 1-.292-.425l.063-.161c-1.461-.847-2.217-2.48-1.936-4.242.412-2.589 2.933-4.714 5.616-4.738h.003a.313.313 0 0 1 .292.425l-3.454 8.94a.312.312 0 0 1-.292.2Zm-1.549-4.73c-.233 1.465.37 2.822 1.547 3.552l2.99-7.735c-2.21.245-4.194 2.035-4.537 4.184Z"/><path fill="#F7F9FC" d="M56.634 80.308c.453 0 .858-.39.864-.824a5.23 5.23 0 0 0-.149-1.324c.074-.01.148-.013.22-.013.379 0 .676.133.84.376.172.255.182.608.032.997-.339.87-1.382 1.603-2.278 1.603-.377 0-.676-.133-.84-.375-.172-.256-.185-.611-.032-.997.128-.327.354-.635.636-.892.051.265.077.54.072.825-.005.356.263.624.635.624Z"/><path fill="#F9FAFB" d="M56.163 81.434c-.484 0-.875-.182-1.098-.512-.232-.343-.256-.8-.066-1.286.14-.36.39-.71.717-1.01a.311.311 0 0 1 .517.17c.057.287.083.586.079.888a.297.297 0 0 0 .08.218c.059.06.142.09.242.09.28 0 .549-.25.552-.516a4.928 4.928 0 0 0-.14-1.245.313.313 0 0 1 .264-.385c.085-.01.173-.016.258-.016.486 0 .876.182 1.098.514.23.34.253.797.064 1.285-.385.997-1.537 1.805-2.567 1.805Zm-.475-1.791a1.757 1.757 0 0 0-.105.22c-.114.29-.113.542 0 .71.103.153.31.238.58.238.767 0 1.696-.656 1.988-1.405.112-.29.112-.543 0-.71-.08-.12-.227-.198-.417-.226.057.334.084.674.078 1.018-.008.603-.558 1.132-1.176 1.132a.959.959 0 0 1-.688-.276.921.921 0 0 1-.261-.665l.001-.036Z"/><path fill="#D0D5DD" d="M55.994 82.508c-.83 0-1.505-.325-1.902-.914-.398-.593-.45-1.39-.139-2.188.267-.685.775-1.329 1.434-1.812a.31.31 0 0 1 .46.107c.181.343.31.712.387 1.098a.312.312 0 0 1-.096.29 2.11 2.11 0 0 0-.555.776c-.114.288-.114.541 0 .71.102.152.31.235.58.235.767 0 1.696-.655 1.988-1.404.112-.29.112-.543 0-.71-.103-.154-.31-.238-.58-.238a1.622 1.622 0 0 0-.22.013.313.313 0 0 1-.303-.237 4.56 4.56 0 0 0-.338-.926.314.314 0 0 1 .206-.444c.278-.068.556-.102.825-.102.83 0 1.505.325 1.901.914.399.591.45 1.388.14 2.186-.577 1.484-2.241 2.646-3.788 2.646Z"/><path fill="#F9FAFB" d="M57.74 77.076c.723 0 1.306.275 1.642.777.34.505.38 1.197.107 1.898-.533 1.371-2.07 2.443-3.496 2.443-.722 0-1.305-.276-1.641-.776-.34-.506-.381-1.199-.107-1.899.254-.654.737-1.24 1.327-1.675.164.313.285.653.356 1.014a2.441 2.441 0 0 0-.636.892c-.151.387-.14.741.032.997.162.242.46.375.84.375.896 0 1.939-.735 2.278-1.603.15-.389.14-.741-.032-.997-.163-.243-.46-.376-.839-.376-.072 0-.146.004-.22.013a4.896 4.896 0 0 0-.36-.99c.248-.06.5-.093.75-.093Zm0-.625c-.294 0-.595.038-.9.111a.622.622 0 0 0-.412.884c.135.273.24.564.314.864a.624.624 0 0 0 .685.469c.048-.006.095-.01.14-.01.157 0 .279.038.32.099.04.058.055.203-.031.424-.245.629-1.053 1.204-1.695 1.204-.154 0-.28-.04-.322-.1-.039-.057-.054-.202.032-.42.087-.225.257-.458.475-.658a.626.626 0 0 0 .192-.582 4.332 4.332 0 0 0-.416-1.185.625.625 0 0 0-.923-.21c-.706.519-1.253 1.212-1.54 1.95-.35.894-.287 1.796.17 2.475.457.678 1.225 1.052 2.161 1.052 1.695 0 3.45-1.222 4.08-2.842.348-.894.286-1.796-.171-2.475-.453-.676-1.221-1.05-2.159-1.05Z"/><path fill="#D0D5DD" d="m107.925 46.397 3.053 4.162-1.984 5.133-3.053-4.162 1.984-5.133Z"/><path fill="#F9FAFB" d="M108.994 56.005a.31.31 0 0 1-.251-.128l-3.053-4.163a.313.313 0 0 1-.039-.297l1.983-5.133a.314.314 0 0 1 .25-.197.315.315 0 0 1 .294.125l3.052 4.162a.31.31 0 0 1 .039.297l-1.983 5.134a.314.314 0 0 1-.25.197l-.042.003Zm-2.7-4.522 2.614 3.564 1.715-4.442-2.614-3.564-1.715 4.442Z"/><path fill="#D0D5DD" d="M41.575 93.52c.39-2.45 2.758-4.444 5.296-4.473l-3.309 8.562.018-.047c-1.451-.72-2.29-2.261-2.005-4.043Z"/><path fill="#F9FAFB" d="M43.563 97.922a.314.314 0 0 1-.272-.16c-1.519-.832-2.31-2.497-2.024-4.291.41-2.581 2.923-4.706 5.601-4.737a.312.312 0 0 1 .296.425l-3.308 8.563a.318.318 0 0 1-.293.2Zm-1.68-4.354c-.236 1.482.348 2.81 1.535 3.546l2.986-7.727c-2.204.25-4.179 2.04-4.52 4.18Z"/><path fill="#F7F9FC" d="M51.544 93.521c.453 0 .857-.389.864-.822a5.264 5.264 0 0 0-.153-1.344c.053-.005.104-.007.155-.007.38 0 .678.133.842.376.17.254.183.608.03.996-.338.87-1.38 1.605-2.276 1.605-.379 0-.678-.133-.842-.376-.17-.254-.183-.608-.03-.996.136-.348.383-.675.69-.942.06.284.09.581.085.887-.006.355.261.623.635.623Z"/><path fill="#F9FAFB" d="M51.007 94.636c-.488 0-.878-.183-1.1-.514-.231-.342-.253-.799-.063-1.285.149-.383.417-.751.775-1.062a.313.313 0 0 1 .511.17c.065.31.097.633.092.956a.29.29 0 0 0 .08.216c.059.06.142.09.242.09.28 0 .547-.25.551-.515a4.888 4.888 0 0 0-.144-1.263.313.313 0 0 1 .275-.388c.061-.005.123-.008.185-.008.487 0 .877.183 1.1.514.23.342.252.799.062 1.285-.386.996-1.537 1.804-2.566 1.804Zm-.412-1.897a1.84 1.84 0 0 0-.17.326c-.114.29-.114.542-.002.709.103.154.31.237.582.237.27 0 .558-.08.832-.218-.094.026-.194.04-.294.04a.958.958 0 0 1-.688-.276.924.924 0 0 1-.261-.664c.003-.052.003-.103.001-.154Zm2.048-1.056c.056.333.081.674.077 1.02a1.096 1.096 0 0 1-.188.586c.202-.206.365-.44.46-.684.113-.29.113-.54 0-.708a.546.546 0 0 0-.35-.214Z"/><path fill="#D0D5DD" d="M50.836 95.707c-.83 0-1.505-.325-1.903-.913-.398-.592-.448-1.39-.137-2.19.273-.7.798-1.356 1.479-1.845a.308.308 0 0 1 .251-.05c.088.02.163.076.204.155.184.336.317.7.4 1.08a.316.316 0 0 1-.1.302 2.189 2.189 0 0 0-.605.818c-.114.29-.114.54-.001.709.102.154.31.237.581.237.767 0 1.695-.657 1.985-1.405.114-.29.114-.54.002-.709-.103-.154-.31-.237-.582-.237-.042 0-.085.002-.128.005-.01.002-.018.002-.028.002a.312.312 0 0 1-.303-.236 4.53 4.53 0 0 0-.346-.934.31.31 0 0 1 .21-.444c.259-.06.517-.09.766-.09.83 0 1.505.326 1.902.915.399.591.449 1.39.138 2.189-.577 1.48-2.24 2.641-3.785 2.641Z"/><path fill="#F9FAFB" d="M52.582 90.273c.722 0 1.306.277 1.643.777.34.505.379 1.198.105 1.9-.533 1.37-2.07 2.443-3.494 2.443-.724 0-1.307-.276-1.643-.776-.34-.506-.38-1.2-.106-1.9.261-.67.761-1.269 1.371-1.706.167.307.292.642.367.997a2.488 2.488 0 0 0-.69.942c-.152.387-.14.742.03.996.162.243.461.376.842.376.895 0 1.937-.735 2.276-1.606.151-.387.14-.741-.03-.995-.163-.243-.462-.377-.842-.377-.052 0-.103.003-.156.007a4.84 4.84 0 0 0-.37-.997c.233-.051.466-.08.697-.08Zm0-.625c-.273 0-.553.032-.835.098a.626.626 0 0 0-.42.89c.138.274.246.567.323.87.07.28.322.472.605.472.02 0 .038-.002.057-.003a1.24 1.24 0 0 1 .099-.004c.158 0 .28.037.322.098.039.059.054.202-.032.42-.246.633-1.054 1.208-1.694 1.208-.159 0-.281-.038-.323-.099-.038-.058-.054-.2.032-.419.095-.242.278-.489.518-.697a.626.626 0 0 0 .202-.602 4.35 4.35 0 0 0-.43-1.165.63.63 0 0 0-.55-.326c-.129 0-.256.04-.363.116-.73.524-1.293 1.23-1.59 1.987-.348.895-.287 1.798.17 2.476.457.678 1.225 1.051 2.163 1.051 1.693 0 3.446-1.222 4.078-2.841.348-.896.287-1.799-.17-2.477-.458-.679-1.225-1.053-2.162-1.053Z"/><path fill="#D0D5DD" d="m78.362 96.242-.553 1.428h-22.13l.55-1.428h22.133Z"/><path fill="#D0D5DD" d="M77.81 97.983H55.68a.31.31 0 0 1-.292-.425l.552-1.428c.046-.121.162-.2.292-.2h22.132c.102 0 .2.051.258.136a.31.31 0 0 1 .033.289l-.553 1.427a.315.315 0 0 1-.293.2Zm-21.674-.626h21.46l.31-.802h-21.46l-.31.802ZM76.583 100.854l-.553 1.427H53.9l.55-1.427h22.133Z"/><path fill="#D0D5DD" d="M76.03 102.594H53.898a.31.31 0 0 1-.292-.425l.552-1.428a.311.311 0 0 1 .291-.2h22.132a.31.31 0 0 1 .292.425l-.553 1.428a.313.313 0 0 1-.291.2Zm-21.675-.625h21.46l.31-.803h-21.46l-.31.803ZM89.902 93.037l3.053 4.163-5.207 13.473-3.053-4.161 5.207-13.475Z"/><path fill="#F9FAFB" d="M87.748 110.986a.313.313 0 0 1-.251-.128l-3.053-4.161a.312.312 0 0 1-.039-.297l5.207-13.475a.313.313 0 0 1 .543-.072l3.053 4.162a.312.312 0 0 1 .039.297l-5.207 13.475a.313.313 0 0 1-.25.197c-.014.002-.028.002-.042.002Zm-2.7-4.521 2.614 3.564 4.939-12.784-2.614-3.563-4.939 12.783Z"/><path fill="#D0D5DD" d="m84.696 106.512 3.053 4.161H43.175l-3.053-4.161h44.574Z"/><path fill="#F9FAFB" d="M87.749 110.985H43.175a.308.308 0 0 1-.251-.128l-3.053-4.163a.312.312 0 0 1 .253-.497h44.574c.1 0 .193.047.25.128l3.054 4.163a.314.314 0 0 1-.253.497Zm-44.415-.625h43.798l-2.594-3.538H40.739l2.595 3.538Z"/><path fill="#D0D5DD" d="m116.893 63.084 3.052 4.162L108.284 97.2l-3.053-4.162 11.662-29.953Z"/><path fill="#F9FAFB" d="M108.285 97.512a.313.313 0 0 1-.252-.128l-3.053-4.162a.313.313 0 0 1-.038-.3l11.661-29.952a.308.308 0 0 1 .25-.196.314.314 0 0 1 .293.125l3.052 4.163a.31.31 0 0 1 .039.298l-11.661 29.953a.308.308 0 0 1-.25.196c-.015.001-.027.003-.041.003Zm-2.7-4.522 2.615 3.565 11.393-29.261-2.615-3.566-11.393 29.262Z"/><path fill="#D0D5DD" d="M105.232 93.037H62.194l3.053 4.163h43.038l-3.053-4.163Z"/><path fill="#F9FAFB" d="M108.285 97.512H65.248a.31.31 0 0 1-.252-.128l-3.053-4.162a.312.312 0 0 1 .253-.497h43.038c.1 0 .193.047.251.127l3.053 4.163a.313.313 0 0 1-.253.497Zm-42.88-.625h42.263l-2.594-3.537H62.812l2.594 3.537Z"/><path fill="#98A2B3" d="M97.931 56.527c2.915 0 4.9 1.473 5.485 3.688.226.86.241 1.83.019 2.87a8.58 8.58 0 0 1-.4 1.324c-1.566 4.027-5.989 7.347-10.214 7.825a17.683 17.683 0 0 0-2.008 0c-3.854-.477-5.69-3.798-4.122-7.825 1.691-4.354 6.725-7.882 11.24-7.882Z"/><path fill="#F9FAFB" d="m90.808 72.545-.039-.003c-1.88-.233-3.377-1.136-4.218-2.543-.929-1.556-.984-3.582-.158-5.706 1.735-4.455 6.91-8.08 11.535-8.08 2.976 0 5.139 1.465 5.786 3.92.244.93.253 1.944.022 3.016a8.904 8.904 0 0 1-.415 1.372c-1.586 4.078-6.088 7.527-10.47 8.022-.019.002-.037.003-.055.002a17.323 17.323 0 0 0-1.974 0h-.014Zm1.017-.654c.33 0 .663.01.985.027 4.16-.482 8.426-3.755 9.932-7.623a8.32 8.32 0 0 0 .386-1.277c.208-.976.204-1.893-.015-2.725-.571-2.162-2.507-3.454-5.182-3.454-4.39 0-9.303 3.447-10.953 7.684-.756 1.94-.715 3.772.112 5.158.735 1.23 2.059 2.025 3.73 2.239.337-.02.675-.03 1.005-.03Z"/><path fill="#D0D5DD" d="m106.756 51.53 10.137 11.553h-13.459c.222-1.04.206-2.01-.02-2.87l3.342-8.684Z"/><path fill="#F9FAFB" d="M116.893 63.396h-13.46a.314.314 0 0 1-.305-.379c.208-.976.204-1.893-.015-2.725a.307.307 0 0 1 .011-.192l3.341-8.684a.313.313 0 0 1 .528-.095l10.138 11.554a.315.315 0 0 1-.238.521Zm-13.082-.625h12.393l-9.341-10.647-3.121 8.108c.193.792.215 1.643.069 2.54Z"/><path fill="#98A2B3" d="M91.826 72.203c.337 0 .668.01.993.03 8.405.5 12.539 7.387 9.261 15.808H69.238c3.28-8.421 12.775-15.309 21.571-15.809.34-.02.68-.029 1.017-.029Z"/><path fill="#F9FAFB" d="M102.079 88.355H69.238a.313.313 0 0 1-.292-.426c3.297-8.467 12.892-15.499 21.845-16.007a17.99 17.99 0 0 1 2.045 0c4.03.24 7.253 1.941 9.08 4.789 1.969 3.073 2.132 7.139.454 11.445a.31.31 0 0 1-.291.2ZM69.7 87.73h32.164c1.521-4.042 1.354-7.828-.475-10.682-1.715-2.675-4.765-4.273-8.589-4.503a17.323 17.323 0 0 0-1.973 0c-8.577.488-17.76 7.12-21.127 15.185Z"/><path fill="#D0D5DD" d="m106.755 51.53-3.341 8.684c-.585-2.215-2.57-3.688-5.485-3.688-4.514 0-9.549 3.528-11.243 7.883-1.568 4.026.268 7.347 4.122 7.825-8.796.5-18.291 7.387-21.57 15.808h32.841c3.279-8.421-.856-15.307-9.261-15.808 4.226-.478 8.649-3.8 10.214-7.825a8.58 8.58 0 0 0 .4-1.324h13.46L105.23 93.038H62.194L78.355 51.53H106.755v-.002Z"/><path fill="#F9FAFB" d="M105.232 93.349H62.195a.313.313 0 0 1-.292-.426l16.161-41.508a.314.314 0 0 1 .292-.198h28.4c.103 0 .2.051.257.136a.316.316 0 0 1 .035.289l-3.342 8.684a.313.313 0 0 1-.593-.032c-.571-2.163-2.507-3.454-5.182-3.454-4.389 0-9.303 3.448-10.953 7.684-.755 1.94-.715 3.772.113 5.158.739 1.238 2.072 2.033 3.757 2.243a.312.312 0 0 1-.02.622c-8.578.488-17.761 7.12-21.128 15.185h32.164c1.521-4.042 1.354-7.828-.475-10.682-1.715-2.675-4.765-4.273-8.589-4.503a.313.313 0 0 1-.017-.624c4.17-.47 8.451-3.75 9.959-7.627.167-.428.297-.857.386-1.276a.312.312 0 0 1 .306-.248h13.459a.312.312 0 0 1 .292.426l-11.661 29.953a.315.315 0 0 1-.292.198Zm-42.58-.625h42.366l11.418-29.328h-12.754a8.927 8.927 0 0 1-.358 1.125c-1.358 3.492-4.854 6.522-8.582 7.632 3.139.593 5.646 2.172 7.174 4.555 1.969 3.074 2.132 7.14.454 11.446a.314.314 0 0 1-.292.199h-32.84a.313.313 0 0 1-.292-.426c3.084-7.918 11.677-14.582 20.1-15.828-1.072-.44-1.93-1.157-2.493-2.1-.929-1.556-.985-3.582-.158-5.706 1.734-4.455 6.91-8.08 11.535-8.08 2.626 0 4.619 1.141 5.497 3.097l2.873-7.468H78.57L62.652 92.724Z"/><path fill="#D0D5DD" d="M58.344 59.674a.326.326 0 0 1-.12-.024c-2.333-.96-3.576-3.244-3.165-5.82.543-3.4 3.849-6.166 7.37-6.166.123 0 .232.003.327.008 2.099.102 3.86 1.209 4.71 2.963.16.328.288.682.377 1.051.106.449.156.913.148 1.378-.005.6-.554 1.128-1.175 1.128a.948.948 0 0 1-.685-.275.92.92 0 0 1-.262-.665 3.714 3.714 0 0 0-.058-.72 3.399 3.399 0 0 0-.319-.937c-.602-1.175-1.838-1.878-3.306-1.878-2.405.007-4.661 1.897-5.031 4.212-.254 1.595.48 3.059 1.87 3.73.145.07.213.241.155.393l-.547 1.422a.31.31 0 0 1-.29.2Z"/><path fill="#F9FAFB" d="M62.429 47.977c.104 0 .208.001.31.008 2.048.099 3.673 1.19 4.447 2.787.151.312.27.642.354.99.099.413.147.846.14 1.298-.004.432-.408.82-.862.82-.374 0-.638-.267-.635-.624a4.084 4.084 0 0 0-.062-.778 3.698 3.698 0 0 0-.348-1.024c-.632-1.233-1.954-2.048-3.584-2.048-2.554.008-4.946 2.01-5.34 4.475-.287 1.796.569 3.348 2.042 4.06l-.547 1.422c-2.118-.871-3.372-2.998-2.976-5.482.52-3.257 3.684-5.904 7.06-5.904Zm0-.625c-1.78 0-3.556.666-5.003 1.876-1.45 1.212-2.4 2.83-2.676 4.553-.214 1.341-.002 2.637.616 3.748a5.47 5.47 0 0 0 2.74 2.41.615.615 0 0 0 .484-.004.63.63 0 0 0 .336-.35l.547-1.422a.625.625 0 0 0-.31-.788c-1.283-.618-1.933-1.92-1.698-3.398.347-2.17 2.467-3.942 4.725-3.949 1.346 0 2.478.639 3.026 1.708.137.268.234.556.288.852.039.21.055.432.053.655-.005.342.12.657.352.89.235.238.557.369.907.369.799 0 1.481-.66 1.488-1.44a5.85 5.85 0 0 0-.157-1.45 5.485 5.485 0 0 0-.401-1.117c-.9-1.857-2.763-3.03-4.98-3.138a11.133 11.133 0 0 0-.337-.005Z"/><path fill="#D0D5DD" d="M48.135 86.09a.333.333 0 0 1-.12-.024c-2.316-.966-3.548-3.247-3.14-5.808.542-3.401 3.85-6.168 7.372-6.168.099 0 .195.003.29.007 2.105.093 3.873 1.19 4.733 2.933.163.334.294.688.384 1.054.111.452.166.924.159 1.404-.009.603-.559 1.132-1.177 1.132a.958.958 0 0 1-.687-.276.921.921 0 0 1-.261-.665 3.62 3.62 0 0 0-.067-.76 3.393 3.393 0 0 0-.325-.928c-.608-1.155-1.832-1.846-3.275-1.846l-.032.002c-2.401.02-4.647 1.91-5.014 4.21-.253 1.584.472 3.043 1.847 3.719.146.07.213.242.155.393l-.549 1.424a.313.313 0 0 1-.17.175.38.38 0 0 1-.123.022Z"/><path fill="#F9FAFB" d="M52.248 74.402c.095 0 .187.003.28.007 2.05.09 3.679 1.171 4.462 2.76.154.313.275.643.361.99.104.421.156.864.149 1.324-.006.433-.411.823-.864.823-.374 0-.64-.267-.635-.624.004-.285-.02-.56-.072-.826a3.721 3.721 0 0 0-.356-1.013c-.637-1.213-1.936-2.013-3.551-2.013l-.043.002c-2.543.022-4.92 2.019-5.311 4.475-.285 1.784.56 3.33 2.018 4.047l-.161.418-.388 1.004c-2.101-.878-3.344-2.999-2.95-5.47.517-3.256 3.684-5.904 7.061-5.904Zm0-.625c-3.67 0-7.115 2.885-7.68 6.43-.213 1.336-.003 2.627.61 3.734a5.465 5.465 0 0 0 2.716 2.411.628.628 0 0 0 .486-.001.627.627 0 0 0 .338-.35l.387-1.004.161-.42a.625.625 0 0 0-.306-.786c-1.269-.623-1.912-1.92-1.677-3.387.344-2.157 2.453-3.928 4.7-3.947h.018l.032-.002c1.32.004 2.436.63 2.988 1.68.137.262.237.545.295.842.045.225.066.459.061.696-.005.34.12.654.35.89.235.238.559.368.91.368.797 0 1.48-.66 1.49-1.44a5.843 5.843 0 0 0-.168-1.482 5.509 5.509 0 0 0-.406-1.116c-.913-1.848-2.78-3.01-4.996-3.107a5.668 5.668 0 0 0-.309-.009Z"/><path fill="#D0D5DD" d="M43.031 99.3a.303.303 0 0 1-.12-.025c-2.442-1.029-3.665-3.537-3.04-6.24.74-3.214 3.945-5.73 7.295-5.73.074 0 .147.001.22.004l.047.001c2.096.088 3.865 1.175 4.733 2.906.168.336.3.693.393 1.06.115.458.17.938.163 1.426-.012.603-.56 1.13-1.177 1.13a.959.959 0 0 1-.687-.276.918.918 0 0 1-.261-.664 3.688 3.688 0 0 0-.078-.816 3.367 3.367 0 0 0-.336-.913c-.614-1.13-1.83-1.804-3.255-1.804l-.055.001c-2.386.028-4.625 1.915-4.99 4.21-.256 1.601.448 3.025 1.836 3.713a.312.312 0 0 1 .152.391l-.548 1.425a.312.312 0 0 1-.17.175.289.289 0 0 1-.122.026Z"/><path fill="#F9FAFB" d="M47.165 87.617c.07 0 .14.002.21.004l.045.002c2.046.086 3.674 1.155 4.466 2.733.157.314.282.647.37.997.106.427.159.877.152 1.345-.007.433-.411.822-.864.822-.374 0-.64-.268-.635-.624a4.023 4.023 0 0 0-.084-.886 3.695 3.695 0 0 0-.367-.997c-.646-1.188-1.932-1.968-3.528-1.968l-.058.001c-2.538.03-4.906 2.023-5.296 4.473-.285 1.781.554 3.322 2.005 4.041l-.018.047-.53 1.378c-2.21-.932-3.465-3.241-2.857-5.882.711-3.082 3.805-5.486 6.989-5.486Zm0-.625c-3.49 0-6.827 2.624-7.6 5.972-.66 2.856.636 5.509 3.222 6.599a.613.613 0 0 0 .488-.001.63.63 0 0 0 .338-.35l.531-1.378.018-.047a.625.625 0 0 0-.306-.785c-1.26-.625-1.9-1.922-1.666-3.383.343-2.15 2.444-3.921 4.686-3.946.012 0 .025 0 .037-.002h.014c1.307 0 2.42.614 2.98 1.642.14.257.243.536.304.828.051.24.075.491.07.747-.004.339.12.654.35.887.235.24.559.37.91.37.793 0 1.475-.658 1.49-1.436a5.834 5.834 0 0 0-.173-1.507 5.543 5.543 0 0 0-.417-1.125c-.92-1.835-2.787-2.985-4.997-3.078l-.05-.001a4.175 4.175 0 0 0-.23-.006Z"/><path fill="#D0D5DD" d="M61.072 69.304c-.832 0-1.508-.325-1.901-.915-.399-.591-.449-1.389-.138-2.186.268-.69.783-1.338 1.447-1.824a.315.315 0 0 1 .461.107c.181.342.31.712.386 1.098a.31.31 0 0 1-.097.291c-.264.238-.46.51-.566.785-.114.29-.114.542 0 .711.102.151.31.236.582.236.766 0 1.695-.655 1.987-1.404.113-.29.113-.543 0-.71-.103-.154-.31-.239-.58-.239a1.404 1.404 0 0 0-.205.013.311.311 0 0 1-.302-.239 4.611 4.611 0 0 0-.337-.93.314.314 0 0 1 .207-.44c.273-.066.545-.1.809-.1.83 0 1.505.326 1.901.914.397.59.449 1.388.139 2.187-.583 1.484-2.246 2.645-3.793 2.645Z"/><path fill="#F9FAFB" d="M62.82 63.873c.721 0 1.305.275 1.641.776.34.506.38 1.199.107 1.899-.533 1.37-2.07 2.443-3.496 2.443-.722 0-1.307-.275-1.642-.776-.34-.506-.38-1.199-.106-1.899.256-.658.744-1.249 1.34-1.685.164.313.285.652.355 1.013-.287.26-.52.572-.648.904-.152.389-.14.742.03.997.164.242.461.375.842.375.896 0 1.939-.734 2.278-1.603.15-.388.14-.741-.032-.997-.163-.243-.461-.376-.84-.376-.067 0-.135.004-.203.012a4.804 4.804 0 0 0-.36-.993c.243-.058.489-.09.733-.09Zm0-.625c-.288 0-.585.036-.881.107a.626.626 0 0 0-.416.883c.135.274.24.566.314.866a.626.626 0 0 0 .68.472 1.08 1.08 0 0 1 .133-.008c.157 0 .28.037.32.098.04.058.055.203-.031.424-.245.629-1.053 1.204-1.695 1.204-.158 0-.282-.039-.323-.1-.04-.059-.052-.201.033-.42.089-.227.261-.465.486-.668a.628.628 0 0 0 .195-.584 4.362 4.362 0 0 0-.416-1.182.625.625 0 0 0-.922-.214c-.712.52-1.265 1.216-1.555 1.962-.35.893-.287 1.796.17 2.475.453.678 1.221 1.052 2.162 1.052 1.694 0 3.448-1.222 4.079-2.842.347-.896.284-1.797-.171-2.475-.457-.675-1.225-1.05-2.163-1.05Z"/><path fill="#D0D5DD" d="M53.239 72.884a.32.32 0 0 1-.12-.024c-2.323-.964-3.56-3.247-3.148-5.815.541-3.399 3.847-6.164 7.37-6.164.1 0 .202 0 .305.005h.004c2.094.098 3.857 1.196 4.715 2.94a5.243 5.243 0 0 1 .383 1.056c.11.443.162.913.156 1.395-.008.601-.558 1.129-1.178 1.129a.955.955 0 0 1-.686-.277.916.916 0 0 1-.258-.663 3.533 3.533 0 0 0-.07-.759 3.325 3.325 0 0 0-1.617-2.264 3.88 3.88 0 0 0-1.866-.508l-.106-.001h-.04c-2.4.026-4.651 1.913-5.017 4.21-.252 1.588.477 3.05 1.859 3.724a.31.31 0 0 1 .154.393l-.55 1.423a.315.315 0 0 1-.29.2Z"/><path fill="#F9FAFB" d="M57.338 61.191c.099 0 .198 0 .293.006h.002c2.044.094 3.668 1.178 4.45 2.765v.002c.154.31.273.644.36.99.102.418.15.858.145 1.315-.005.433-.41.821-.865.821-.372 0-.637-.268-.632-.622a3.928 3.928 0 0 0-.075-.825 3.636 3.636 0 0 0-1.767-2.474 4.224 4.224 0 0 0-2.015-.55l-.126-.001h-.025c-2.568.028-4.936 2.022-5.327 4.473-.286 1.792.564 3.34 2.031 4.056l-.55 1.422c-2.107-.875-3.357-2.997-2.96-5.478.518-3.252 3.684-5.9 7.061-5.9Zm0-.625c-1.779 0-3.557.667-5.004 1.877-1.45 1.212-2.4 2.829-2.675 4.551-.214 1.34-.003 2.633.613 3.742.601 1.087 1.544 1.92 2.726 2.411a.622.622 0 0 0 .485-.003.628.628 0 0 0 .337-.35l.55-1.422a.625.625 0 0 0-.31-.787c-1.274-.621-1.922-1.923-1.687-3.396.343-2.152 2.458-3.923 4.715-3.948h.045c.025 0 .05 0 .073.002h.013a3.584 3.584 0 0 1 1.718.465 3.024 3.024 0 0 1 1.467 2.053c.045.226.066.46.062.696a1.225 1.225 0 0 0 1.257 1.257c.797 0 1.48-.659 1.49-1.438a5.855 5.855 0 0 0-.163-1.474 5.541 5.541 0 0 0-.394-1.088c-.004-.011-.01-.021-.014-.03-.91-1.848-2.772-3.012-4.981-3.115h-.005c-.108-.003-.215-.003-.318-.003Z"/><path fill="#98A2B3" d="m118.349 49.28.273 1.712c.166 1.026.87 1.83 1.884 2.147l1.693.528-1.861.528a4.142 4.142 0 0 0-2.569 2.147l-.82 1.712-.275-1.712c-.166-1.027-.87-1.83-1.884-2.147l-1.691-.528 1.859-.528a4.138 4.138 0 0 0 2.568-2.147l.823-1.713ZM40.659 36.508l.21 1.312c.126.788.666 1.404 1.444 1.646l1.297.404-1.426.407a3.17 3.17 0 0 0-1.97 1.645l-.629 1.314-.21-1.314c-.126-.788-.666-1.403-1.444-1.645l-1.297-.405 1.426-.404a3.172 3.172 0 0 0 1.97-1.646l.629-1.314Z"/><path fill="#F7F9FC" d="m96.007 82.193.117.732c.07.438.372.782.805.917l.723.225-.795.225c-.476.136-.887.48-1.099.917l-.35.732-.118-.732a1.138 1.138 0 0 0-.804-.917l-.723-.225.795-.225c.477-.136.887-.48 1.098-.917l.351-.732Z"/><path fill="#98A2B3" d="m31.88 94.365.116.732c.07.44.372.782.806.917l.722.225-.795.225c-.476.136-.887.479-1.098.918l-.35.732-.117-.732a1.138 1.138 0 0 0-.804-.918l-.722-.225.794-.225a1.76 1.76 0 0 0 1.097-.917l.35-.732Z"/></svg>