<svg xmlns="http://www.w3.org/2000/svg" width="32" height="32" fill="none"><path fill="#909090" d="m24.1 2.07 5.564 5.8v22.056H8.879v.072h20.856V7.943L24.1 2.07Z"/><path fill="#F4F4F4" d="M24.032 2H8.809v27.928h20.856V7.873L24.032 2Z"/><path fill="#7A7B7C" d="M8.656 3.5h-6.39v6.827h20.1V3.5H8.656Z"/><path fill="#DD2025" d="M22.471 10.21H2.395V3.38H22.47v6.832Z"/><path fill="#464648" d="M9.053 4.535H7.746v4.8h1.028V7.716l.227.013c.22-.004.44-.043.647-.117.182-.063.35-.162.493-.29.146-.124.26-.28.335-.455.1-.291.136-.601.105-.908a2.24 2.24 0 0 0-.114-.644 1.172 1.172 0 0 0-.687-.65 2.148 2.148 0 0 0-.728-.13M8.863 6.83h-.089V5.35h.193a.57.57 0 0 1 .46.181.92.92 0 0 1 .182.558c0 .246 0 .47-.222.626a.943.943 0 0 1-.524.115ZM12.532 4.522c-.111 0-.22.008-.295.01l-.238.007h-.78v4.8h.918c.35.01.7-.05 1.028-.175a1.71 1.71 0 0 0 .68-.491c.177-.22.304-.475.373-.75.078-.31.117-.628.114-.948.02-.378-.01-.757-.087-1.127a1.778 1.778 0 0 0-.935-1.133 2.412 2.412 0 0 0-.55-.178 1.282 1.282 0 0 0-.227-.017m-.182 3.937h-.1V5.393h.013c.206-.024.415.013.6.107.135.108.246.244.324.4a1.3 1.3 0 0 1 .142.526c.009.22 0 .4 0 .549.004.171-.007.343-.033.513-.031.174-.088.342-.17.5-.091.146-.215.269-.362.36a.673.673 0 0 1-.416.106M17.43 4.54H15v4.8h1.028V7.434h1.3v-.892h-1.3V5.431h1.4V4.54"/><path fill="#DD2025" d="M21.78 20.253s3.189-.578 3.189.512c0 1.088-1.975.645-3.188-.512Zm-2.356.084a7.55 7.55 0 0 0-1.473.489l.4-.9c.4-.9.815-2.127.815-2.127a14.212 14.212 0 0 0 1.658 2.252c-.472.07-.94.166-1.4.288v-.002Zm-1.262-6.5c0-.95.307-1.208.546-1.208.239 0 .508.114.517.939a10.79 10.79 0 0 1-.517 2.434 4.425 4.425 0 0 1-.547-2.162v-.004Zm-4.65 10.515c-.977-.585 2.052-2.386 2.6-2.444-.002.002-1.575 3.056-2.6 2.444ZM25.9 20.893c-.01-.1-.1-1.207-2.07-1.16a14.236 14.236 0 0 0-2.453.174 12.54 12.54 0 0 1-2.012-2.655c.346-1.001.556-2.044.623-3.1-.03-1.2-.316-1.888-1.236-1.878-.92.01-1.054.815-.933 2.013.118.805.342 1.59.665 2.338 0 0-.425 1.323-.987 2.639-.562 1.316-.946 2.006-.946 2.006a9.623 9.623 0 0 0-2.725 1.4c-.824.766-1.16 1.355-.725 1.944.374.508 1.683.623 2.853-.91a22.546 22.546 0 0 0 1.7-2.492s1.784-.488 2.339-.622c.555-.134 1.226-.24 1.226-.24s1.629 1.638 3.2 1.58c1.57-.058 1.495-.939 1.485-1.035"/><path fill="#909090" d="M23.953 2.078v5.873h5.633l-5.633-5.873Z"/><path fill="#F4F4F4" d="M24.031 2v5.873h5.633L24.031 2Z"/><path fill="#fff" d="M8.975 4.457H7.668v4.8H8.7V7.639l.228.013c.22-.004.439-.043.647-.117.182-.063.35-.162.493-.291.144-.123.258-.279.332-.454.1-.291.136-.601.105-.908a2.24 2.24 0 0 0-.114-.644 1.174 1.174 0 0 0-.687-.65 2.149 2.149 0 0 0-.73-.131m-.189 2.294h-.089v-1.48h.194a.57.57 0 0 1 .459.181.92.92 0 0 1 .183.558c0 .246 0 .469-.222.626a.942.942 0 0 1-.524.114M12.454 4.444c-.11 0-.219.008-.295.01l-.235.007h-.78v4.8h.918c.351.01.7-.05 1.029-.175a1.71 1.71 0 0 0 .68-.491c.177-.22.304-.476.372-.75.08-.31.117-.629.114-.948.02-.378-.01-.757-.086-1.127a1.776 1.776 0 0 0-.935-1.133 2.411 2.411 0 0 0-.55-.178 1.28 1.28 0 0 0-.227-.017m-.182 3.937h-.1V5.315h.013c.206-.024.414.013.6.107a1.2 1.2 0 0 1 .324.4c.083.163.132.342.141.526.01.22 0 .4 0 .549.005.171-.006.343-.033.513-.03.174-.087.342-.168.5a1.13 1.13 0 0 1-.364.36.673.673 0 0 1-.415.106M17.352 4.46h-2.43v4.8h1.028V7.358h1.3v-.892h-1.3V5.353h1.4V4.46"/></svg>