<svg xmlns="http://www.w3.org/2000/svg" width="24" height="24" fill="none"><path fill="#D8D8FF" d="M13.5 9a1.5 1.5 0 1 1 0-3 1.5 1.5 0 0 1 0 3Z"/><path fill="#B2B1FF" d="M19 2H5a3.009 3.009 0 0 0-3 3v8.86l3.88-3.88a3.075 3.075 0 0 1 4.24 0l2.871 2.887.888-.888a3.008 3.008 0 0 1 4.242 0L22 15.86V5a3.01 3.01 0 0 0-3-3Zm-5.5 7a1.5 1.5 0 1 1 0-3 1.5 1.5 0 0 1 0 3Z"/><path fill="#6563FF" d="M10.12 9.98a3.075 3.075 0 0 0-4.24 0L2 13.86V19a3.009 3.009 0 0 0 3 3h14a3 3 0 0 0 2.16-.92L10.12 9.98Z"/><path fill="#D8D8FF" d="m22.001 15.858-3.879-3.88a3.008 3.008 0 0 0-4.242 0l-.888.889 8.165 8.209c.542-.555.845-1.3.844-2.076v-3.142Z"/></svg>