<svg width="362" height="56" viewBox="0 0 362 56" fill="none" xmlns="http://www.w3.org/2000/svg">
<rect width="362" height="56" fill="#7538BA"/>
<mask id="mask0_3_73" style="mask-type:alpha" maskUnits="userSpaceOnUse" x="0" y="0" width="362" height="56">
<rect width="362" height="56" fill="#7538BA"/>
</mask>
<g mask="url(#mask0_3_73)">
<g opacity="0.2">
<path d="M12.8319 -3.53757L0.921387 -5L-7.00012 59.5155L4.91043 60.9779L12.8319 -3.53757Z" fill="#F4EBFF"/>
<path d="M30.664 -3.53757L18.7534 -5L10.8319 59.5155L22.7425 60.9779L30.664 -3.53757Z" fill="#F4EBFF"/>
<path d="M48.496 -3.53757L36.5854 -5L28.6639 59.5155L40.5745 60.9779L48.496 -3.53757Z" fill="#FECAE7"/>
<path d="M66.328 -3.53757L54.4175 -5L46.496 59.5155L58.4065 60.9779L66.328 -3.53757Z" fill="#F4EBFF"/>
<path d="M84.1601 -3.53757L72.2495 -5L64.328 59.5155L76.2386 60.9779L84.1601 -3.53757Z" fill="#FECAE7"/>
<path d="M101.992 -3.53757L90.0815 -5L82.16 59.5155L94.0706 60.9779L101.992 -3.53757Z" fill="#F4EBFF"/>
<path d="M119.824 -3.53757L107.914 -5L99.9921 59.5155L111.903 60.9779L119.824 -3.53757Z" fill="#FECAE7"/>
<path d="M137.656 -3.53757L125.746 -5L117.824 59.5155L129.735 60.9779L137.656 -3.53757Z" fill="#F4EBFF"/>
<path d="M155.488 -3.53757L143.578 -5L135.656 59.5155L147.567 60.9779L155.488 -3.53757Z" fill="#FECAE7"/>
<path d="M173.32 -3.53757L161.41 -5L153.488 59.5155L165.399 60.9779L173.32 -3.53757Z" fill="#F4EBFF"/>
<path d="M191.152 -3.53757L179.242 -5L171.32 59.5155L183.231 60.9779L191.152 -3.53757Z" fill="#FECAE7"/>
<path d="M208.984 -3.53757L197.074 -5L189.152 59.5155L201.063 60.9779L208.984 -3.53757Z" fill="#F4EBFF"/>
<path d="M226.816 -3.53757L214.906 -5L206.984 59.5155L218.895 60.9779L226.816 -3.53757Z" fill="#FECAE7"/>
<path d="M244.648 -3.53757L232.738 -5L224.816 59.5155L236.727 60.9779L244.648 -3.53757Z" fill="#F4EBFF"/>
<path d="M262.48 -3.53757L250.569 -5L242.648 59.5155L254.558 60.9779L262.48 -3.53757Z" fill="#FECAE7"/>
<path d="M280.312 -3.53757L268.401 -5L260.48 59.5155L272.39 60.9779L280.312 -3.53757Z" fill="#F4EBFF"/>
<path d="M298.144 -3.53757L286.233 -5L278.312 59.5155L290.222 60.9779L298.144 -3.53757Z" fill="#FECAE7"/>
<path d="M315.976 -3.53757L304.065 -5L296.144 59.5155L308.054 60.9779L315.976 -3.53757Z" fill="#F4EBFF"/>
<path d="M333.808 -3.53757L321.897 -5L313.976 59.5155L325.887 60.9779L333.808 -3.53757Z" fill="#FECAE7"/>
<path d="M351.64 -3.53757L339.729 -5L331.808 59.5155L343.719 60.9779L351.64 -3.53757Z" fill="#F4EBFF"/>
<path d="M369.473 -3.53757L357.562 -5L349.641 59.5155L361.552 60.9779L369.473 -3.53757Z" fill="#FECAE7"/>
</g>
</g>
</svg>
