<svg xmlns="http://www.w3.org/2000/svg" width="364" height="328" fill="none"><path stroke="#484848" stroke-width="2" d="M1 225.84v28.162a4 4 0 0 0 4 4h26.591M34.14 11.004H5a4 4 0 0 0-4 4v26.875M363 225.84v28.162a4 4 0 0 1-4 4h-27.866M363 43.16V14.998a4 4 0 0 0-4-4h-27.866"/><ellipse cx="182" cy="134.5" fill="#3A414E" rx="133.264" ry="134.5"/><path fill="#D1D1D1" d="M237.809 18.966c1.434-2.968.209-6.551-2.811-7.872A132.224 132.224 0 0 0 183.743.01c-3.312-.043-5.911 2.74-5.807 6.051l.181 5.72c.105 3.314 2.879 5.898 6.193 5.965a114.795 114.795 0 0 1 42.903 9.262c3.062 1.312 6.671.082 8.12-2.917l2.476-5.126Z"/><g opacity=".5"><path fill="#fff" d="M182.107 31.269c46.1.657 83.246 41.506 85.456 93.379 3.976 4.036 5.983 9.201 5.983 15.394 0 9.284-4.477 20.152-12.623 30.704-7.673 23.752-21.095 44.932-37.137 58.659 3.762 15.051 14.407 26.446 31.684 33.925 2.285 1 6.976 2.009 12.41 3.185 23.426 5.054 67.047 14.467 77.961 55.076a4.627 4.627 0 0 1-3.279 5.674 4.677 4.677 0 0 1-3.527-.458 4.646 4.646 0 0 1-2.168-2.81c-9.447-35.147-47.949-43.468-70.957-48.43-6.158-1.323-11.016-2.379-14.146-3.73-26.473-11.469-35.103-29.88-37.685-43.312a4.614 4.614 0 0 1 1.653-4.47c15.81-12.682 29.149-33.408 36.58-56.882.169-.53.434-1.025.78-1.462 7.189-9.127 11.156-18.245 11.156-25.659 0-4.221-1.356-7.331-4.264-9.784a4.634 4.634 0 0 1-1.653-3.416c-1.198-47.82-34.684-85.734-76.224-86.308l-.994-.066c-41.335.241-75.034 37.36-77.087 84.513a4.606 4.606 0 0 1-.65 2.172 4.65 4.65 0 0 1-1.607 1.605c-4.413 2.619-6.373 6.091-6.373 11.265 0 8.859 5.574 19.976 15.281 30.491.422.458.748.996.957 1.582 7.338 20.476 18.967 38.277 32.752 50.134a4.615 4.615 0 0 1 1.532 4.378c-2.582 13.441-11.212 31.861-37.685 43.312-2.991 1.286-7.589 2.379-13.413 3.758-23.24 5.517-62.123 14.737-71.69 50.309a4.66 4.66 0 0 1-2.167 2.802 4.688 4.688 0 0 1-3.518.475 4.64 4.64 0 0 1-2.821-2.154 4.615 4.615 0 0 1-.467-3.511c10.998-40.895 54.915-51.309 78.518-56.9 5.164-1.222 9.624-2.286 11.862-3.258 17.314-7.488 27.969-18.921 31.712-34.027-13.868-12.654-25.517-30.732-33.031-51.309-10.877-12.015-17.09-25.113-17.091-36.063 0-7.581 2.954-13.552 8.769-17.81 3.26-50.976 40.563-90.751 85.828-90.992l1.383.019Z"/><path stroke="#fff" d="M182.107 31.269c46.1.657 83.246 41.506 85.456 93.379 3.976 4.036 5.983 9.201 5.983 15.394 0 9.284-4.477 20.152-12.623 30.704-7.673 23.752-21.095 44.932-37.137 58.659 3.762 15.051 14.407 26.446 31.684 33.925 2.285 1 6.976 2.009 12.41 3.185 23.426 5.054 67.047 14.467 77.961 55.076a4.627 4.627 0 0 1-3.279 5.674 4.677 4.677 0 0 1-3.527-.458 4.646 4.646 0 0 1-2.168-2.81c-9.447-35.147-47.949-43.468-70.957-48.43-6.158-1.323-11.016-2.379-14.146-3.73-26.473-11.469-35.103-29.88-37.685-43.312a4.614 4.614 0 0 1 1.653-4.47c15.81-12.682 29.149-33.408 36.58-56.882.169-.53.434-1.025.78-1.462 7.189-9.127 11.156-18.245 11.156-25.659 0-4.221-1.356-7.331-4.264-9.784a4.634 4.634 0 0 1-1.653-3.416c-1.198-47.82-34.684-85.734-76.224-86.308l-.994-.066c-41.335.241-75.034 37.36-77.087 84.513a4.606 4.606 0 0 1-.65 2.172 4.65 4.65 0 0 1-1.607 1.605c-4.413 2.619-6.373 6.091-6.373 11.265 0 8.859 5.574 19.976 15.281 30.491.422.458.748.996.957 1.582 7.338 20.476 18.967 38.277 32.752 50.134a4.615 4.615 0 0 1 1.532 4.378c-2.582 13.441-11.212 31.861-37.685 43.312-2.991 1.286-7.589 2.379-13.413 3.758-23.24 5.517-62.123 14.737-71.69 50.309a4.66 4.66 0 0 1-2.167 2.802 4.688 4.688 0 0 1-3.518.475 4.64 4.64 0 0 1-2.821-2.154 4.615 4.615 0 0 1-.467-3.511c10.998-40.895 54.915-51.309 78.518-56.9 5.164-1.222 9.624-2.286 11.862-3.258 17.314-7.488 27.969-18.921 31.712-34.027-13.868-12.654-25.517-30.732-33.031-51.309-10.877-12.015-17.09-25.113-17.091-36.063 0-7.581 2.954-13.552 8.769-17.81 3.26-50.976 40.563-90.751 85.828-90.992l1.383.019Z"/></g></svg>