<svg xmlns="http://www.w3.org/2000/svg" width="150" height="150" fill="none"><path fill="#F9FAFB" d="M74.999 121.988c28.319 0 51.276-9.006 51.276-20.115 0-11.11-22.957-20.115-51.276-20.115-28.32 0-51.276 9.006-51.276 20.115 0 11.109 22.957 20.115 51.276 20.115Z"/><path fill="#D0D5DD" d="M41.762 89.23a1.056 1.056 0 0 0-1.453-.345l-.898.554-.555-.898a1.056 1.056 0 0 0-1.797 1.108l.555.898 1.108 1.798 1.797-1.109.899-.554c.495-.307.65-.957.344-1.453Z"/><path fill="#667185" d="M43.903 53.823h-3.965l4.263-1.874-.298 1.874Z"/><path fill="#F9FAFB" d="M43.903 54.134h-3.966a.313.313 0 0 1-.125-.599l4.264-1.872a.314.314 0 0 1 .435.336l-.299 1.872a.317.317 0 0 1-.31.263Zm-2.478-.625h2.21l.166-1.043-2.376 1.043Z"/><path fill="#E4E7EC" d="m97.219 30.629-3.37 21.132-.329 2.058-.407 2.553 1.596-.932 2.107 2.872.328-2.058 3.371-21.132-3.296-4.493Z"/><path fill="#F9FAFB" d="M96.816 58.625a.31.31 0 0 1-.251-.128l-1.94-2.646-1.353.79a.31.31 0 0 1-.335-.012.31.31 0 0 1-.132-.307L96.91 30.58a.31.31 0 0 1 .56-.135l3.296 4.494c.05.066.069.15.057.234l-3.699 23.19a.31.31 0 0 1-.308.263Zm-2.107-3.497c.097 0 .192.044.253.128l1.664 2.269 3.559-22.322-2.776-3.785-3.883 24.352 1.025-.6a.325.325 0 0 1 .158-.042Z"/><path fill="#D0D5DD" d="M39.934 53.82h3.968l-.409 2.557-3.56-2.557Z"/><path fill="#F9FAFB" d="M43.493 56.69a.312.312 0 0 1-.182-.059l-3.56-2.556a.312.312 0 0 1 .182-.567H43.9a.313.313 0 0 1 .308.36l-.408 2.558a.312.312 0 0 1-.307.264Zm-2.589-2.557 2.36 1.694.27-1.694h-2.63Z"/><path fill="#F7F9FC" d="m97.217 30.629-3.37 21.132-.328 2.058-.407 2.553-21.384 12.499h-8.82l-.208 1.305-19.208-13.8.409-2.557.298-1.873 1.36-8.532h13.028l2.004-12.568.26-.217h36.366Z"/><path fill="#D0D5DD" d="m62.004 74.559-2.608 16.355H34.019l18.542-10.836 9.443-5.52ZM59.396 90.914l3.296 4.493H37.315l-3.295-4.493h25.376Z"/><path fill="#F9FAFB" d="M63.308 95.72H37.157l-3.755-5.118h26.152l3.754 5.118Zm-25.835-.625h24.602l-2.838-3.868H34.636l2.837 3.868Z"/><path fill="#D0D5DD" d="m97.483 53.82 3.296 4.493-2.401 15.052-3.296-4.493 2.401-15.052Z"/><path fill="#F9FAFB" d="M98.377 73.678a.31.31 0 0 1-.251-.128l-3.296-4.493a.313.313 0 0 1-.057-.235l2.4-15.051a.31.31 0 0 1 .235-.255.31.31 0 0 1 .325.12l3.296 4.493c.05.067.069.151.057.235l-2.4 15.051a.31.31 0 0 1-.309.263Zm-2.966-4.885 2.776 3.785 2.263-14.184-2.777-3.785-2.262 14.184Z"/><path fill="#D0D5DD" d="m111.395 68.871 3.296 4.493-4.844 30.372-3.296-4.493 4.844-30.372Z"/><path fill="#F9FAFB" d="M109.846 104.049a.309.309 0 0 1-.251-.128l-3.296-4.493a.31.31 0 0 1-.057-.234l4.844-30.373a.312.312 0 0 1 .56-.134l3.296 4.493c.05.066.069.151.057.234l-4.845 30.373a.309.309 0 0 1-.308.262Zm-2.967-4.885 2.777 3.785 4.705-29.504-2.776-3.785-4.706 29.505Z"/><path fill="#D0D5DD" d="m97.374 99.242-.188 1.184-1.24 7.775 3.295 4.494 1.24-7.776.189-1.184-3.296-4.493Z"/><path fill="#F9FAFB" d="M99.24 113.008a.31.31 0 0 1-.25-.128l-3.297-4.494a.314.314 0 0 1-.056-.235l1.429-8.959a.31.31 0 0 1 .56-.135l3.295 4.494c.05.067.07.151.057.235l-1.429 8.958a.31.31 0 0 1-.235.254.266.266 0 0 1-.073.01Zm-2.966-4.886 2.776 3.784 1.291-8.09-2.777-3.785-1.29 8.091Z"/><path fill="#D0D5DD" d="m88.086 99.246 1.039 1.183 6.82 7.775 1.24-7.775.188-1.183h-9.287Z"/><path fill="#F9FAFB" d="M95.944 108.517a.31.31 0 0 1-.235-.107l-7.858-8.958a.314.314 0 0 1-.05-.335.313.313 0 0 1 .285-.183h9.286a.313.313 0 0 1 .308.36l-1.43 8.959a.313.313 0 0 1-.306.264Zm-7.168-8.958 6.964 7.94 1.266-7.94h-8.23Z"/><path fill="#98A2B3" d="m39.935 53.82 3.56 2.557 19.208 13.8-.699 4.38-9.443 5.519L34.02 90.912l5.915-37.092Z"/><path fill="#F9FAFB" d="M34.02 91.224a.31.31 0 0 1-.308-.361l5.914-37.092a.312.312 0 0 1 .492-.204l22.768 16.357c.096.07.145.186.127.302l-.7 4.38a.31.31 0 0 1-.15.22L34.178 91.181a.312.312 0 0 1-.159.043Zm6.144-36.856-5.732 35.94L61.719 74.36l.645-4.043-22.2-15.949Z"/><path fill="#98A2B3" d="m97.483 53.82-2.401 15.052H71.73L97.483 53.82Z"/><path fill="#F9FAFB" d="M95.082 69.184H71.73a.311.311 0 0 1-.157-.582l25.752-15.051a.312.312 0 0 1 .467.32L95.39 68.92a.311.311 0 0 1-.308.263Zm-22.197-.625h21.93l2.254-14.136-24.184 14.136Z"/><path fill="#D0D5DD" d="M95.082 68.871h16.315l-4.844 30.372H58.066l1.33-8.332 2.608-16.355.699-4.38.208-1.305h32.17Zm3.408 17.704c.443 0 .856-.344.924-.77.068-.426-.235-.771-.678-.771H70.019c-.44 0-.854.345-.922.772-.068.425.235.77.675.77H98.49Zm1.097-6.883c.443 0 .856-.346.924-.772.068-.425-.235-.77-.678-.77H71.118c-.44 0-.854.346-.921.77-.068.426.235.772.675.772h28.715Zm-2.196 13.767c.444 0 .856-.345.924-.773.068-.425-.235-.77-.678-.77H80.95c-.443 0-.856.345-.924.77-.068.427.235.773.678.773H97.39Z"/><path fill="#F9FAFB" d="M106.552 99.556H58.066a.313.313 0 0 1-.308-.361l4.844-30.372a.313.313 0 0 1 .308-.264h48.487a.313.313 0 0 1 .308.36l-4.845 30.373a.31.31 0 0 1-.308.264Zm-48.12-.625h47.853l4.745-29.747H63.177L58.433 98.93Zm38.959-5.16H80.702c-.305 0-.587-.125-.773-.342a.966.966 0 0 1-.213-.791c.093-.58.633-1.034 1.232-1.034h16.689c.305 0 .587.125.773.342.184.215.26.496.213.789-.092.582-.633 1.036-1.232 1.036ZM80.949 92.23c-.289 0-.57.232-.614.507a.346.346 0 0 0 .071.288c.068.079.174.122.297.122h16.69c.288 0 .57-.233.615-.508a.344.344 0 0 0-.071-.286.384.384 0 0 0-.299-.124H80.95v.001Zm17.54-5.341H69.774a1.01 1.01 0 0 1-.772-.342.963.963 0 0 1-.213-.79c.093-.58.633-1.035 1.23-1.035h28.717c.306 0 .588.125.774.342.183.215.26.497.213.791-.093.58-.634 1.034-1.232 1.034Zm-28.47-1.542c-.29 0-.57.233-.613.508a.344.344 0 0 0 .071.287c.068.079.172.122.296.122H98.49c.288 0 .57-.232.614-.507a.346.346 0 0 0-.071-.288.383.383 0 0 0-.299-.122H70.019Zm29.568-5.342H70.87c-.305 0-.586-.125-.77-.341a.962.962 0 0 1-.213-.792c.093-.58.632-1.033 1.23-1.033h28.717c.306 0 .589.125.774.341a.963.963 0 0 1 .212.79c-.093.581-.635 1.035-1.233 1.035Zm-28.47-1.541c-.288 0-.57.232-.612.507a.346.346 0 0 0 .07.287c.067.08.173.122.296.122h28.717c.29 0 .571-.233.615-.508a.336.336 0 0 0-.07-.285.384.384 0 0 0-.299-.123H71.117Z"/><path fill="#98A2B3" d="M99.835 78.152c.443 0 .745.346.677.77-.068.426-.48.772-.923.772H70.872c-.44 0-.743-.346-.675-.772.068-.425.48-.77.92-.77h28.718Z"/><path fill="#98A2B3" d="M99.588 80.013H70.87a1.01 1.01 0 0 1-.776-.345.973.973 0 0 1-.214-.797c.093-.582.636-1.039 1.236-1.039h28.717c.308 0 .591.125.779.345a.972.972 0 0 1 .214.794c-.093.585-.638 1.042-1.24 1.042Zm-28.47-1.542c-.284 0-.562.23-.607.501a.338.338 0 0 0 .07.282c.066.078.17.12.291.12H99.59c.286 0 .565-.23.608-.503a.331.331 0 0 0-.069-.28.377.377 0 0 0-.293-.121H71.118ZM98.737 85.035c.443 0 .746.346.678.772-.068.425-.48.77-.924.77H69.774c-.44 0-.743-.346-.675-.77.069-.426.481-.772.923-.772h28.715Z"/><path fill="#98A2B3" d="M98.49 86.894H69.773a1.01 1.01 0 0 1-.776-.344.97.97 0 0 1-.214-.795c.093-.583.636-1.04 1.236-1.04h28.717c.308 0 .592.125.778.344.184.217.26.5.214.797-.093.583-.636 1.038-1.238 1.038Zm-28.47-1.542c-.285 0-.563.23-.608.503a.337.337 0 0 0 .07.28c.066.078.17.121.291.121H98.49c.286 0 .565-.229.608-.5a.338.338 0 0 0-.069-.283.376.376 0 0 0-.293-.12H70.019ZM97.634 91.918c.443 0 .746.346.678.77-.069.426-.481.772-.924.772H80.699c-.443 0-.746-.346-.678-.773.068-.425.48-.769.924-.769h16.689Z"/><path fill="#98A2B3" d="M97.39 93.778H80.7c-.308 0-.591-.125-.777-.344a.973.973 0 0 1-.214-.797c.093-.582.636-1.04 1.237-1.04h16.69c.308 0 .591.126.779.345a.968.968 0 0 1 .213.795c-.093.584-.637 1.041-1.239 1.041Zm-16.442-1.541c-.286 0-.565.229-.608.5a.338.338 0 0 0 .069.283c.067.078.17.12.293.12h16.689c.286 0 .565-.23.608-.502a.336.336 0 0 0-.07-.28.376.376 0 0 0-.292-.121h-16.69Z"/><path fill="#D0D5DD" d="m88.089 99.246 3.296 4.493H61.362l-3.296-4.493H88.09Z"/><path fill="#F9FAFB" d="M91.384 104.052H61.362a.311.311 0 0 1-.252-.128l-3.295-4.493a.312.312 0 0 1 .252-.497H88.09c.1 0 .193.047.25.127l3.297 4.493a.312.312 0 0 1-.253.498Zm-29.864-.625h29.247l-2.837-3.868H58.684l2.836 3.868Z"/><path fill="#D0D5DD" d="m95.948 108.204-6.82-7.775-1.038-1.183 3.296 4.493 1.037 1.183 6.821 7.777-3.296-4.495Z"/><path fill="#F9FAFB" d="M99.243 113.01a.308.308 0 0 1-.235-.107l-7.858-8.958-.017-.021-3.295-4.493a.314.314 0 0 1 .487-.391l7.858 8.958.017.021 3.296 4.493a.314.314 0 0 1-.253.498Z"/><path fill="#D0D5DD" d="m106.551 99.246 3.296 4.493h-9.176l-3.296-4.493h9.176Z"/><path fill="#F9FAFB" d="M109.847 104.052h-9.177a.31.31 0 0 1-.251-.128l-3.296-4.493a.312.312 0 0 1 .253-.497h9.176c.1 0 .193.047.252.127l3.295 4.493a.312.312 0 0 1-.252.498Zm-9.018-.625h8.401l-2.837-3.868h-8.402l2.838 3.868ZM62.7 70.491a.312.312 0 0 1-.182-.058l-19.208-13.8a.314.314 0 0 1-.127-.303l2.067-12.961a.312.312 0 0 1 .108-.19L60.39 30.61l.263-.219a.308.308 0 0 1 .2-.072h36.365a.313.313 0 0 1 .308.361l-4.105 25.744a.31.31 0 0 1-.152.22L71.886 69.144a.315.315 0 0 1-.158.043h-8.553l-.167 1.042a.312.312 0 0 1-.308.262ZM43.83 56.237 62.47 69.63l.129-.805a.313.313 0 0 1 .308-.264h8.735l21.183-12.382 4.025-25.237H60.965l-.175.145L45.85 43.579 43.83 56.237Z"/><path fill="#D0D5DD" d="M60.594 30.848 58.59 43.416H45.562l15.032-12.568Z"/><path fill="#F9FAFB" d="M58.59 43.727H45.56a.313.313 0 0 1-.2-.551l15.033-12.568a.313.313 0 0 1 .508.288l-2.004 12.569a.31.31 0 0 1-.309.262Zm-12.167-.625h11.9l1.83-11.48-13.73 11.48Z"/><path fill="#98A2B3" d="M97.411 25.18c5.273 0 8.888 4.12 8.077 9.205-.811 5.085-5.742 9.206-11.013 9.206-5.272 0-8.887-4.121-8.076-9.206.811-5.084 5.74-9.205 11.012-9.205Zm.511 3.687c.146-.61-.287-1.137-.91-1.137-.028 0-.055.001-.083.003-.614.04-1.152.548-1.205 1.134l-.81 9.217c-.02.208.126.379.346.394l.03.002c.231 0 .452-.172.505-.396l2.127-9.217Zm-3.04 12.174c.563 0 1.09-.44 1.175-.982.086-.543-.298-.982-.86-.982-.563 0-1.09.439-1.176.982-.087.541.299.982.861.982Z"/><path fill="#F9FAFB" d="M94.477 43.903c-2.685 0-5.038-1.023-6.625-2.883-1.536-1.8-2.161-4.174-1.761-6.683.833-5.221 5.91-9.47 11.322-9.47 2.685 0 5.037 1.024 6.625 2.883 1.536 1.8 2.161 4.174 1.761 6.684-.833 5.222-5.913 9.47-11.322 9.47Zm2.936-18.41c-5.117 0-9.918 4.01-10.704 8.942-.371 2.327.204 4.521 1.62 6.18 1.464 1.718 3.65 2.663 6.148 2.663 5.116 0 9.918-4.01 10.704-8.943.371-2.326-.204-4.52-1.62-6.179-1.465-1.718-3.65-2.664-6.148-2.664Zm-2.53 15.86c-.363 0-.7-.147-.919-.405a1.144 1.144 0 0 1-.251-.94c.105-.666.704-1.194 1.385-1.24a.663.663 0 0 1-.493-.711l.81-9.216c.066-.745.723-1.367 1.495-1.418a1.252 1.252 0 0 1 1.099.463c.23.29.31.674.22 1.053l-2.13 9.216a.852.852 0 0 1-.682.627c.276.048.524.182.697.388.218.255.307.589.252.939-.11.697-.763 1.244-1.482 1.244Zm.313-1.965c-.407 0-.804.33-.867.72a.53.53 0 0 0 .11.434c.103.12.26.186.445.186.407 0 .804-.329.866-.72a.53.53 0 0 0-.11-.434.571.571 0 0 0-.444-.186Zm1.817-11.346-.06.003c-.46.03-.878.42-.917.85l-.81 9.217c0 .016.002.029.009.037.008.01.026.017.047.018.095 0 .19-.073.209-.154l2.129-9.215v-.003a.6.6 0 0 0-.103-.524.628.628 0 0 0-.504-.229Z"/><path fill="#F9FAFB" d="M95.2 39.074c.562 0 .948.44.86.982-.087.543-.612.982-1.175.982-.562 0-.948-.439-.86-.982.087-.543.612-.982 1.174-.982Z"/><path fill="#F9FAFB" d="M94.885 41.11a.944.944 0 0 1-.735-.32.903.903 0 0 1-.196-.742c.092-.574.65-1.04 1.244-1.04.297 0 .558.114.734.32.171.2.24.464.196.742-.091.572-.648 1.04-1.243 1.04Zm.313-1.965c-.53 0-1.025.414-1.107.924a.773.773 0 0 0 .163.63c.15.175.373.273.63.273.529 0 1.025-.414 1.107-.924a.773.773 0 0 0-.164-.63.809.809 0 0 0-.63-.273ZM97.01 27.73c.624 0 1.057.527.912 1.138l-2.13 9.217a.533.533 0 0 1-.504.395h-.03c-.22-.016-.366-.187-.346-.395l.81-9.217c.052-.586.591-1.093 1.205-1.135l.083-.003Z"/><path fill="#F9FAFB" d="M95.29 38.55a.441.441 0 0 1-.347-.153.427.427 0 0 1-.097-.32l.81-9.216c.055-.617.624-1.155 1.269-1.198.357-.026.687.113.892.371a.988.988 0 0 1 .173.849l-2.129 9.216a.595.595 0 0 1-.57.45Zm1.722-10.75c-.025 0-.05 0-.077.002-.58.04-1.092.52-1.14 1.071l-.81 9.217a.29.29 0 0 0 .065.216c.051.06.128.098.217.103l.025.002c.2 0 .391-.15.436-.342l2.129-9.217a.839.839 0 0 0-.147-.73.881.881 0 0 0-.698-.323Z"/></svg>