<svg xmlns="http://www.w3.org/2000/svg" width="150" height="150" fill="none"><path fill="#F9FAFB" d="M120.844 66.48a2.884 2.884 0 1 0 0-5.768 2.884 2.884 0 0 0 0 5.768ZM74.999 127.039c28.319 0 51.276-9.006 51.276-20.115 0-11.11-22.957-20.115-51.276-20.115-28.32 0-51.276 9.005-51.276 20.115 0 11.109 22.957 20.115 51.276 20.115Z"/><path fill="#D0D5DD" d="m73.354 34.488-2.13 13.356H57.378l15.975-13.356Z"/><path fill="#F9FAFB" d="M71.224 48.157H57.379a.313.313 0 0 1-.201-.551l15.975-13.358a.313.313 0 0 1 .508.29l-2.13 13.356a.308.308 0 0 1-.307.263Zm-12.984-.625h12.717l1.957-12.268L58.24 47.532ZM74.63 59.596a.314.314 0 0 1-.252-.128l-.843-1.15a.314.314 0 0 1 .043-.418.311.311 0 0 1 .42.003c.005.005.012.011.017.018a.189.189 0 0 1 .016.018c.014.017.029.039.044.06l.807 1.1a.312.312 0 0 1-.251.497Z"/><mask id="a" width="2" height="3" x="73" y="57" maskUnits="userSpaceOnUse" style="mask-type:luminance"><path fill="#fff" d="M74.63 59.596a.314.314 0 0 1-.252-.128l-.843-1.15a.314.314 0 0 1 .043-.418.311.311 0 0 1 .42.003c.005.005.012.011.017.018a.189.189 0 0 1 .016.018c.014.017.029.039.044.06l.807 1.1a.312.312 0 0 1-.251.497Z"/></mask><g mask="url(#a)"><path fill="#667185" d="m74.454 58.965 3.503 4.775c-.208-.284-.43-.56-.667-.83-2.59-2.952-6.366-4.428-10.378-4.428-1.74 0-3.523.278-5.275.833l-3.502-4.775a17.477 17.477 0 0 1 5.275-.833c4.01 0 7.787 1.476 10.377 4.428.237.27.459.546.667.83Z"/><path fill="#F9FAFB" d="M77.957 64.053a.314.314 0 0 1-.253-.128c-.203-.278-.422-.55-.65-.81-2.445-2.786-6.047-4.32-10.143-4.32-1.726 0-3.468.274-5.18.818a.316.316 0 0 1-.348-.113l-3.502-4.775a.312.312 0 0 1 .158-.483 17.748 17.748 0 0 1 5.37-.847c4.277 0 8.047 1.61 10.612 4.533.24.274.47.561.685.853l3.5 4.772.002.003a.311.311 0 0 1-.251.497ZM66.913 58.17c3.207 0 6.127.905 8.47 2.59l-1.18-1.61c-.203-.278-.422-.55-.65-.81-2.446-2.786-6.047-4.32-10.143-4.32-1.586 0-3.186.231-4.763.691l3.11 4.24a17.67 17.67 0 0 1 5.156-.782Z"/></g><path fill="#F9FAFB" d="M56.104 81.025a.312.312 0 0 1-.233-.104l-.049-.055a8.852 8.852 0 0 1-.458-.571L51.86 75.52a.312.312 0 0 1 .504-.37l.003.005c.132.179.274.355.422.525l.045.05.02.023 3.502 4.775a.312.312 0 0 1-.253.497Z"/><mask id="b" width="6" height="7" x="51" y="75" maskUnits="userSpaceOnUse" style="mask-type:luminance"><path fill="#fff" d="M56.104 81.025a.312.312 0 0 1-.233-.104l-.049-.055a8.852 8.852 0 0 1-.458-.571L51.86 75.52a.312.312 0 0 1 .504-.37l.003.005c.132.179.274.355.422.525l.045.05.02.023 3.502 4.775a.312.312 0 0 1-.253.497Z"/></mask><g mask="url(#b)" opacity=".6"><path fill="#667185" d="m52.854 76.21 3.503 4.776a8.277 8.277 0 0 1-.743-.875l-3.503-4.775a7.805 7.805 0 0 0 .743.875Z"/><path fill="#F9FAFB" d="M56.358 81.298a.311.311 0 0 1-.224-.095 7.86 7.86 0 0 1-.772-.908l-3.503-4.775a.312.312 0 1 1 .504-.37l.003.005a7.934 7.934 0 0 0 .713.837l.029.033L56.61 80.8a.313.313 0 0 1-.253.498Z"/></g><path fill="#F9FAFB" d="M56.359 81.295a.311.311 0 0 1-.224-.094 7.364 7.364 0 0 1-.265-.283l-.01-.012c-.036-.044-.078-.102-.116-.157l-.043-.06-3.353-4.57a.312.312 0 0 1 .485-.393c.08.089.162.176.245.262l.03.034 3.502 4.775a.313.313 0 0 1-.251.498Z"/><mask id="c" width="5" height="7" x="52" y="75" maskUnits="userSpaceOnUse" style="mask-type:luminance"><path fill="#fff" d="M56.359 81.295a.311.311 0 0 1-.224-.094 7.364 7.364 0 0 1-.265-.283l-.01-.012c-.036-.044-.078-.102-.116-.157l-.043-.06-3.353-4.57a.312.312 0 0 1 .485-.393c.08.089.162.176.245.262l.03.034 3.502 4.775a.313.313 0 0 1-.251.498Z"/></mask><g mask="url(#c)" opacity=".6"><path fill="#667185" d="m52.856 76.207 3.503 4.775a8.277 8.277 0 0 1-.743-.875l-3.503-4.775a7.8 7.8 0 0 0 .743.875Z"/><path fill="#F9FAFB" d="M56.36 81.294a.311.311 0 0 1-.224-.095 7.924 7.924 0 0 1-.772-.908l-3.503-4.775a.312.312 0 0 1 .504-.37l.003.005a7.902 7.902 0 0 0 .713.837l.029.034 3.502 4.774a.313.313 0 0 1-.252.498Z"/></g><path fill="#E4E7EC" d="M71.031 70.342a11.482 11.482 0 0 1-1.11 2.438 12.549 12.549 0 0 1-2.703 3.136c-2.342 1.96-5.159 2.938-7.82 2.938-2.66 0-5.164-.98-6.88-2.938C49.08 72 50.091 65.652 54.776 61.738c2.343-1.96 5.16-2.937 7.82-2.937s5.165.979 6.881 2.937a8.356 8.356 0 0 1 .754 1.008 8.034 8.034 0 0 1 1.056 2.54c.377 1.619.28 3.363-.257 5.056Z"/><path fill="#98A2B3" d="M71.29 65.285h-9.162c-.967 0-1.632-.754-1.482-1.687.149-.934 1.053-1.688 2.021-1.688h6.956a8.032 8.032 0 0 1 1.667 3.375ZM71.03 70.341a11.476 11.476 0 0 1-1.11 2.438c-.155.257-.32.51-.499.76h-8.706c-.918 0-1.543-.716-1.402-1.6.141-.882.997-1.6 1.912-1.6h9.806v.002Z"/><path fill="#F7F9FC" d="M73.633 34.258h38.646l-.59 3.703-10.156 63.675H48.802l3.072-19.259c2.022 1.047 4.33 1.571 6.72 1.571 3.213 0 6.575-.946 9.602-2.839h27.097c.47 0 .908-.366.982-.82.072-.452-.25-.819-.72-.819H70.442c2.294-1.933 3.996-4.255 5.068-6.708h21.115c.47 0 .908-.367.98-.818.073-.453-.25-.82-.719-.82H76.13c.713-2.236.91-4.531.571-6.71h21.255c.471 0 .909-.366.981-.817.072-.453-.25-.821-.72-.821H76.336a12.247 12.247 0 0 0-2.545-4.642c-2.59-2.951-6.366-4.428-10.378-4.428-2.388 0-4.86.524-7.215 1.57l1.185-7.432h13.844l2.13-13.354.277-.232Zm20.33 55.197c.47 0 .908-.367.981-.82.073-.452-.25-.819-.719-.819H61.26c-.468 0-.907.367-.98.818-.072.453.25.821.719.821h32.964Zm5.325-33.386c.47 0 .908-.367.98-.818.072-.453-.25-.821-.72-.821H77.204c-.47 0-.907.367-.98.82-.072.452.248.819.719.819h22.346Z"/><path fill="#F9FAFB" d="M101.533 101.947h-52.73a.311.311 0 0 1-.309-.361l3.072-19.258a.312.312 0 0 1 .453-.228c1.942 1.005 4.215 1.536 6.576 1.536 3.255 0 6.517-.965 9.435-2.792a.316.316 0 0 1 .165-.047h27.098c.316 0 .625-.256.672-.557a.39.39 0 0 0-.08-.32.423.423 0 0 0-.331-.137H70.44a.313.313 0 0 1-.201-.551c2.175-1.834 3.898-4.114 4.983-6.595a.313.313 0 0 1 .286-.187h21.115c.317 0 .626-.254.673-.556a.392.392 0 0 0-.08-.32.423.423 0 0 0-.331-.138H76.129a.314.314 0 0 1-.299-.407c.696-2.182.889-4.453.56-6.565a.311.311 0 0 1 .308-.361h21.256c.316 0 .625-.255.672-.556a.392.392 0 0 0-.08-.32.423.423 0 0 0-.331-.138h-21.88a.312.312 0 0 1-.3-.225 11.883 11.883 0 0 0-2.481-4.524c-2.446-2.786-6.047-4.32-10.143-4.32-2.367 0-4.818.532-7.09 1.542a.316.316 0 0 1-.317-.037.31.31 0 0 1-.118-.297l1.184-7.432a.313.313 0 0 1 .309-.264h13.578l2.087-13.092a.314.314 0 0 1 .107-.19l.278-.235a.316.316 0 0 1 .201-.074h38.649a.313.313 0 0 1 .308.361l-10.746 67.378a.31.31 0 0 1-.308.267Zm-52.365-.625h52.098l10.646-66.753H73.747l-.102.086-2.11 13.24a.313.313 0 0 1-.31.264H57.649l-1.054 6.61c2.201-.9 4.546-1.373 6.818-1.373 4.278 0 8.047 1.61 10.613 4.533a12.512 12.512 0 0 1 2.541 4.535h21.652c.319 0 .614.13.806.357.192.225.271.518.221.825-.097.606-.663 1.082-1.29 1.082H77.06c.253 1.97.078 4.058-.51 6.083h20.337c.32 0 .614.13.807.357.191.225.27.518.22.825-.097.607-.663 1.082-1.29 1.082H75.712c-1.018 2.252-2.543 4.337-4.443 6.083h24.285c.32 0 .614.13.807.357.191.225.27.517.22.824-.097.607-.663 1.083-1.29 1.083H68.284c-2.998 1.858-6.347 2.839-9.69 2.839-2.307 0-4.536-.488-6.48-1.415l-2.946 18.476Zm44.794-11.554H60.998c-.318 0-.612-.13-.805-.357a1.004 1.004 0 0 1-.221-.826c.097-.607.662-1.082 1.287-1.082h32.964c.32 0 .614.13.807.356.192.226.27.517.22.824-.095.608-.662 1.085-1.288 1.085Zm-32.703-1.64c-.315 0-.622.255-.67.556a.395.395 0 0 0 .079.323.42.42 0 0 0 .329.137H93.96c.316 0 .625-.255.672-.557a.39.39 0 0 0-.08-.32.423.423 0 0 0-.331-.137H61.259v-.001Zm38.028-31.746H76.941c-.32 0-.612-.13-.805-.356a1.004 1.004 0 0 1-.221-.824c.097-.608.662-1.083 1.287-1.083h22.346c.32 0 .614.13.807.357.192.225.271.518.221.825-.096.606-.663 1.08-1.289 1.08Zm-22.085-1.64c-.315 0-.622.256-.67.558a.387.387 0 0 0 .079.32.423.423 0 0 0 .33.135h22.346c.317 0 .625-.254.672-.555a.392.392 0 0 0-.079-.321.423.423 0 0 0-.332-.138H77.202v.002Z"/><g opacity=".5"><path fill="#D0D5DD" d="m55.21 61.45-.333 2.084c-.051.039-.103.078-.153.12-1.129.942-1.372 2.473-.544 3.416.036.042.075.082.115.12l-1.439 9.019a8.277 8.277 0 0 1-.301-.325c-1.708-1.949-2.311-4.503-1.903-7.056.407-2.554 1.824-5.107 4.154-7.054.13-.11.267-.22.403-.325Z" opacity=".6"/></g><path fill="#D0D5DD" d="M96.886 71.125c.471 0 .792.367.72.82-.073.452-.511.819-.981.819H75.51c.237-.54.444-1.088.618-1.639h20.758Z"/><path fill="#D0D5DD" d="M96.624 73.075H75.51a.31.31 0 0 1-.261-.142.315.315 0 0 1-.025-.296c.235-.536.439-1.076.607-1.606a.31.31 0 0 1 .298-.219h20.757c.32 0 .614.131.807.357.192.225.271.519.221.825-.096.606-.662 1.081-1.289 1.081Zm-20.643-.625h20.643c.317 0 .625-.254.672-.556a.391.391 0 0 0-.079-.32.423.423 0 0 0-.332-.138h-20.53c-.111.336-.236.675-.374 1.014ZM95.555 79.469c.47 0 .791.366.719.818-.072.453-.511.82-.982.82H68.193a19.625 19.625 0 0 0 2.248-1.637h25.114v-.001Z"/><path fill="#D0D5DD" d="M95.292 81.419H68.193a.312.312 0 0 1-.165-.578 19.558 19.558 0 0 0 2.148-1.56l.059-.048a.33.33 0 0 1 .205-.077h25.114c.32 0 .614.13.807.357.192.225.27.517.221.824-.097.605-.662 1.082-1.29 1.082Zm-26.063-.625h26.063c.316 0 .625-.256.672-.557a.39.39 0 0 0-.08-.32.423.423 0 0 0-.331-.137h-25c-.425.355-.868.694-1.324 1.014Z"/><path fill="#E4E7EC" d="m115.433 38.558-.494 3.105-.096.599-10.06 63.074H51.518l-2.715-3.702h52.73l10.156-63.672.592-3.704 3.152 4.3Z"/><path fill="#F9FAFB" d="M104.783 105.648H51.519a.31.31 0 0 1-.252-.127l-2.716-3.702a.31.31 0 0 1-.026-.326.31.31 0 0 1 .279-.171h52.464l10.113-63.41.592-3.704a.311.311 0 0 1 .56-.135l3.153 4.3c.05.067.069.152.057.234l-.591 3.704-10.061 63.075a.312.312 0 0 1-.308.262Zm-53.107-.625h52.839l10.019-62.81.57-3.576-2.634-3.591-.473 2.965-10.156 63.672a.312.312 0 0 1-.308.264H49.419l2.257 3.076Z"/><path fill="#D0D5DD" d="m108.032 109.039 3.503 4.775H58.802l-3.503-4.775h52.733Z"/><path fill="#F9FAFB" d="M111.534 114.127H58.801a.311.311 0 0 1-.251-.128l-3.503-4.775a.312.312 0 0 1 .253-.497h52.733c.1 0 .193.047.251.127l3.503 4.775a.312.312 0 0 1-.253.498Zm-52.575-.625h51.959l-3.045-4.15H55.915l3.044 4.15Z"/><path fill="#F7F9FC" d="m118.778 41.664-10.746 67.376H55.299l.59-3.704h48.895l10.154-63.672h3.84Z"/><path fill="#F9FAFB" d="M108.032 109.353H55.298a.311.311 0 0 1-.308-.361l.59-3.703a.314.314 0 0 1 .309-.264h48.627l10.113-63.41a.314.314 0 0 1 .308-.263h3.841a.313.313 0 0 1 .308.36L108.34 109.09a.313.313 0 0 1-.308.264Zm-52.367-.625h52.1l10.646-66.751h-3.207l-10.113 63.409a.312.312 0 0 1-.308.264H56.155l-.49 3.078Z"/><path fill="#E4E7EC" d="m118.777 41.664 3.503 4.775-10.746 67.376-3.503-4.775 10.746-67.376Z"/><path fill="#F9FAFB" d="M111.534 114.128a.31.31 0 0 1-.252-.128l-3.503-4.775a.313.313 0 0 1-.057-.234l10.746-67.377a.312.312 0 0 1 .56-.134l3.503 4.775c.05.066.069.151.057.234l-10.746 67.377a.311.311 0 0 1-.308.262Zm-3.174-5.168 2.982 4.067 10.607-66.508-2.982-4.067-10.607 66.508Z"/><path fill="#667185" d="M49.987 81.184 31.79 96.396c-.043.036-.088.068-.132.102l-.061.045c-.036.025-.074.047-.11.071-.026.017-.053.035-.079.05l-.06.032a2.11 2.11 0 0 1-.402.174l-.095.03-.076.021c-.04.01-.08.02-.121.028l-.074.014a4.259 4.259 0 0 1-.132.018l-.062.007c-.064.005-.13.008-.193.008-.545 0-1.056-.2-1.407-.6l-.649-.739a1.729 1.729 0 0 1-.09-.112l3.503 4.775c.027.039.058.076.09.112l.648.739c.352.4.863.6 1.408.6.063 0 .127-.003.193-.008.02-.002.041-.006.062-.007l.132-.018.074-.014a1.74 1.74 0 0 0 .197-.049c.018-.005.037-.009.055-.015l.04-.015c.067-.023.134-.049.2-.077l.04-.015c.005-.003.01-.006.015-.007.05-.024.098-.049.148-.075.019-.01.037-.017.055-.028a.01.01 0 0 0 .005-.004c.026-.015.053-.033.08-.05.033-.021.067-.04.1-.064a.025.025 0 0 0 .009-.007l.061-.046c.034-.025.068-.048.1-.075a.364.364 0 0 0 .032-.026l18.197-15.212-3.504-4.775Z"/><path fill="#F9FAFB" d="M33.695 102.083c-.659 0-1.242-.251-1.642-.707l-.649-.739a1.884 1.884 0 0 1-.107-.133l-3.5-4.772c0-.002-.002-.002-.002-.003a.312.312 0 0 1 .502-.37l.002.003c.022.03.046.06.07.09l.65.738c.279.318.695.493 1.172.493.055 0 .11-.003.165-.008l.055-.007.114-.015.048-.01.017-.004.106-.024.068-.018.082-.026c.058-.02.117-.042.175-.067l.047-.02a2.29 2.29 0 0 0 .13-.066l.054-.028.034-.022.059-.038.073-.047c.009-.005.017-.012.025-.02l.04-.03c.035-.026.071-.051.105-.08L49.785 80.94a.313.313 0 0 1 .451.054l3.503 4.775a.313.313 0 0 1-.051.425l-18.23 15.246c-.03.024-.06.046-.09.067l-.04.029-.05.037a1.472 1.472 0 0 1-.096.063l-.051.032-.059.036a.658.658 0 0 1-.061.032l-.012.005a2.78 2.78 0 0 1-.167.085l-.017.009-.044.018a2.959 2.959 0 0 1-.27.102c-.013.005-.03.009-.045.013l-.016.004-.087.024c-.046.011-.09.022-.136.03l-.015.003-.07.014-.148.021-.019.002a2.099 2.099 0 0 1-.27.017Zm-4.003-4.825 2.111 2.878c.022.03.047.061.072.09l.649.739c.311.356.8.532 1.337.486l.055-.007c.037-.004.076-.008.113-.015l.048-.01.016-.003c.036-.006.071-.015.106-.023.022-.006.044-.013.068-.018l.047-.013.035-.014c.058-.019.118-.041.176-.068l.036-.014.01-.004c.046-.021.089-.044.133-.068.011-.007.024-.012.035-.018l.01-.005a.026.026 0 0 1 .01-.006c.01-.005.022-.014.034-.021l.066-.04c.019-.011.038-.024.056-.036l.034-.025.053-.04.062-.048.028-.022 17.974-15.025-3.132-4.27L31.99 96.635c-.045.036-.09.07-.135.104l-.03.024c-.017.012-.033.025-.05.036a4.17 4.17 0 0 1-.1.064l-.048.03c-.02.014-.042.027-.063.04l-.05.026-.018.01c-.054.028-.11.058-.165.084-.015.007-.03.014-.047.02l-.015.006a2.6 2.6 0 0 1-.33.12l-.088.023c-.045.011-.09.023-.137.031l-.015.003c-.022.004-.046.01-.068.012-.05.009-.098.015-.148.021l-.02.003c-.016.003-.035.004-.053.005a2.448 2.448 0 0 1-.72-.04Z"/><path fill="#98A2B3" d="M76.7 64.414a12.665 12.665 0 0 0-.368-1.639 12.22 12.22 0 0 0-2.544-4.642c-2.59-2.951-6.367-4.426-10.378-4.426-2.39 0-4.86.522-7.215 1.57a19.487 19.487 0 0 0-4.58 2.862c-6.319 5.28-8.203 13.503-4.816 19.405L28.6 92.76c-.956.797-1.161 2.093-.461 2.894l.649.74c.35.4.863.6 1.405.6a2.51 2.51 0 0 0 1.597-.6l18.199-15.212c.594.451 1.225.851 1.885 1.193 2.022 1.046 4.33 1.57 6.72 1.57 3.214 0 6.577-.944 9.6-2.838a19.87 19.87 0 0 0 2.25-1.639c2.292-1.935 3.995-4.255 5.067-6.71.235-.537.443-1.087.617-1.638.712-2.231.91-4.53.572-6.706Zm-9.481 11.503c-2.344 1.96-5.16 2.937-7.821 2.937-2.66 0-5.164-.979-6.88-2.937C49.08 72 50.091 65.653 54.776 61.739c2.343-1.96 5.16-2.938 7.82-2.938s5.165.98 6.881 2.938a8.34 8.34 0 0 1 .754 1.008 8.034 8.034 0 0 1 1.056 2.54c.375 1.62.28 3.364-.258 5.056a11.476 11.476 0 0 1-1.11 2.438 12.45 12.45 0 0 1-2.701 3.136Z"/><path fill="#F9FAFB" d="M30.192 97.307c-.658 0-1.242-.251-1.64-.708l-.649-.74a2.049 2.049 0 0 1-.486-1.52c.054-.68.411-1.344.982-1.82L46.4 77.471c-1.584-2.903-1.989-6.42-1.136-9.936.882-3.635 3.067-7.057 6.152-9.636a19.803 19.803 0 0 1 4.654-2.907c2.347-1.045 4.886-1.597 7.343-1.597 4.278 0 8.047 1.61 10.612 4.533a12.492 12.492 0 0 1 2.61 4.76c.16.543.286 1.106.375 1.677.344 2.207.142 4.577-.583 6.85a16.706 16.706 0 0 1-.628 1.668c-1.122 2.569-2.906 4.927-5.154 6.824a20.11 20.11 0 0 1-2.285 1.664c-3.014 1.887-6.39 2.886-9.765 2.886-2.46 0-4.834-.556-6.864-1.606A13.354 13.354 0 0 1 50 81.58L31.988 96.633a2.817 2.817 0 0 1-1.797.674Zm33.22-43.288c-2.37 0-4.821.534-7.09 1.544a19.184 19.184 0 0 0-4.506 2.815c-6.13 5.123-8.127 13.12-4.745 19.01a.313.313 0 0 1-.07.395L28.798 93c-.442.37-.72.875-.76 1.389-.032.401.086.777.334 1.06l.648.738c.28.32.695.495 1.171.495.494 0 .992-.188 1.397-.528l18.199-15.211a.313.313 0 0 1 .39-.009c.582.443 1.2.835 1.839 1.164 1.942 1.005 4.217 1.536 6.578 1.536 3.257 0 6.52-.965 9.433-2.79.751-.47 1.476-.997 2.214-1.614 2.175-1.833 3.897-4.114 4.982-6.594.235-.536.438-1.077.605-1.607.696-2.184.89-4.453.562-6.565a12.372 12.372 0 0 0-.357-1.598 11.864 11.864 0 0 0-2.48-4.525c-2.445-2.786-6.048-4.32-10.143-4.32Zm-4.014 25.148c-2.869 0-5.396-1.08-7.117-3.045-1.536-1.75-2.276-4.066-2.086-6.525.233-3.015 1.83-5.968 4.38-8.098 2.323-1.942 5.171-3.011 8.023-3.011 2.868 0 5.395 1.08 7.116 3.044a8.744 8.744 0 0 1 .783 1.046 8.385 8.385 0 0 1 1.098 2.637c.385 1.66.293 3.466-.266 5.221a11.584 11.584 0 0 1-1.14 2.506c-.168.276-.334.532-.512.782a12.926 12.926 0 0 1-2.257 2.433c-2.322 1.94-5.171 3.01-8.022 3.01Zm3.2-20.054c-2.705 0-5.411 1.018-7.621 2.865-2.422 2.023-3.94 4.82-4.159 7.668-.177 2.289.51 4.442 1.934 6.064 1.6 1.826 3.96 2.832 6.646 2.832 2.704 0 5.41-1.018 7.62-2.865a12.3 12.3 0 0 0 2.636-3.059c.313-.518.583-1.057.803-1.603.102-.25.195-.508.277-.768.523-1.648.61-3.34.251-4.893a7.792 7.792 0 0 0-1.739-3.41c-1.603-1.826-3.964-2.831-6.648-2.831Z"/><path fill="#F7F9FC" d="M59.778 66.757a.993.993 0 0 0-.11-.225.969.969 0 0 0-.103-.138 1.232 1.232 0 0 0-.94-.402l-.09.003c-.337.02-.685.153-.98.399-.372.31-.575.734-.586 1.14-.008.291.082.573.278.797.235.267.576.401.94.401s.749-.133 1.068-.4c.152-.129.277-.273.371-.43.045-.072.08-.147.113-.225.125-.306.14-.632.039-.92Z"/><path fill="#F7F9FC" d="M58.64 64.293a1.935 1.935 0 0 0-.373-.64c-.414-.472-1.018-.708-1.659-.708a2.94 2.94 0 0 0-1.883.707c-1.13.942-1.372 2.472-.544 3.415.037.042.075.083.115.12.405.392.958.586 1.543.586.375 0 .764-.08 1.135-.242.262-.114.515-.269.75-.464.266-.224.486-.48.651-.755.063-.104.118-.211.164-.32.011-.026.022-.05.032-.077.22-.54.246-1.116.07-1.623Z"/><path fill="#D0D5DD" d="M104.783 105.334H51.518l-2.715-3.701h52.73l3.25 3.701Z"/><path fill="#F9FAFB" d="M104.783 105.647H51.519a.311.311 0 0 1-.252-.128l-2.716-3.701a.312.312 0 0 1 .253-.498h52.73c.09 0 .175.039.235.107l3.25 3.702c.08.091.1.223.05.334a.316.316 0 0 1-.286.184Zm-53.107-.625h52.415l-2.701-3.077H49.417l2.259 3.077Z"/><path fill="#D0D5DD" d="M98.216 62.777c.47 0 .792.367.72.821-.073.452-.512.818-.981.818H76.699a12.835 12.835 0 0 0-.365-1.639h21.882Z"/><path fill="#D0D5DD" d="M97.955 64.729H76.7a.312.312 0 0 1-.309-.266 12.212 12.212 0 0 0-.357-1.598.31.31 0 0 1 .05-.275.31.31 0 0 1 .25-.125h21.884c.319 0 .613.13.806.357.192.225.271.518.221.825-.097.607-.663 1.082-1.29 1.082Zm-20.99-.625h20.99c.317 0 .625-.254.672-.556a.392.392 0 0 0-.079-.32.423.423 0 0 0-.332-.138H76.744c.087.335.161.673.22 1.014ZM99.548 54.434c.471 0 .792.366.719.82-.072.452-.51.819-.98.819H76.94c-.47 0-.79-.367-.718-.819.072-.452.51-.82.98-.82h22.345Z"/><path fill="#D0D5DD" d="M99.287 56.384H76.94c-.32 0-.613-.13-.806-.356a1.004 1.004 0 0 1-.22-.824c.097-.607.662-1.083 1.287-1.083h22.346c.32 0 .614.13.807.357.191.225.271.518.221.825-.096.606-.663 1.08-1.29 1.08Zm-22.085-1.64c-.315 0-.622.256-.67.558a.392.392 0 0 0 .078.32.424.424 0 0 0 .33.137h22.347c.316 0 .625-.255.672-.556a.392.392 0 0 0-.08-.32.423.423 0 0 0-.331-.138H77.202ZM94.22 87.816c.472 0 .792.367.72.819-.072.452-.51.82-.982.82H60.996c-.468 0-.79-.366-.718-.82.072-.452.51-.819.979-.819H94.22Z"/><path fill="#D0D5DD" d="M93.96 89.768H60.998c-.318 0-.611-.13-.804-.356a1.004 1.004 0 0 1-.221-.826c.097-.607.662-1.082 1.287-1.082h32.963c.32 0 .614.13.807.357.191.225.27.516.22.823-.095.607-.662 1.084-1.288 1.084Zm-32.702-1.64c-.316 0-.622.255-.671.556a.395.395 0 0 0 .08.323.419.419 0 0 0 .328.137H93.96c.317 0 .625-.255.672-.557a.39.39 0 0 0-.079-.32.423.423 0 0 0-.332-.137H61.258v-.001Z"/><path fill="#D0D5DD" d="M80.202 69.189a13.58 13.58 0 0 0-.083-.478l-.008-.046-.02-.089a12.12 12.12 0 0 0-.086-.386c-.011-.047-.022-.096-.035-.143a14.262 14.262 0 0 0-.133-.496c-.065-.224-.14-.445-.218-.664-.01-.028-.017-.055-.028-.083-.01-.03-.024-.057-.033-.085a11.446 11.446 0 0 0-.553-1.268l-.033-.07c-.017-.034-.038-.067-.055-.1-.07-.136-.144-.268-.219-.4-.032-.055-.061-.11-.094-.165a11.61 11.61 0 0 0-.337-.536v-.003c-.1-.147-.2-.293-.306-.437l-3.503-4.775a11.915 11.915 0 0 1 .644.976l.095.164a16.362 16.362 0 0 1 .308.57 12.064 12.064 0 0 1 .315.675 11.357 11.357 0 0 1 .297.76 12.332 12.332 0 0 1 .385 1.305c.03.128.059.255.085.385.01.045.02.09.028.136.03.158.06.318.083.477.339 2.177.14 4.474-.57 6.709a16.401 16.401 0 0 1-.619 1.639l-.15.33-.122.259-.104.214c-.043.086-.088.17-.132.256a12.143 12.143 0 0 1-.253.467l-.117.207-.151.256-.113.186c-.133.215-.27.429-.413.64l-.086.126c-.148.216-.3.428-.459.64l-.057.073a21.584 21.584 0 0 1-.497.626c-.15.18-.304.361-.463.538l-.075.082c-.129.143-.26.283-.395.423l-.136.14c-.142.144-.288.288-.435.428l-.063.061c-.089.084-.179.166-.27.25-.048.044-.096.09-.146.134a20.29 20.29 0 0 1-1.511 1.218l-.085.062a21.28 21.28 0 0 1-1.082.73c-.208.132-.418.257-.63.377-.056.032-.112.061-.167.093-.187.105-.373.206-.56.303l-.213.11c-.205.104-.412.203-.62.299l-.112.05c-.048.023-.098.044-.147.065-.136.06-.272.12-.41.175l-.204.082-.36.14c-.072.028-.145.054-.217.08-.118.044-.237.084-.355.124a9.945 9.945 0 0 1-.218.072c-.097.032-.196.061-.293.092l-.36.107a17.666 17.666 0 0 1-.637.168c-.094.024-.189.046-.282.067-.12.028-.239.053-.358.078-.093.019-.188.038-.28.055-.122.022-.242.044-.363.064l-.277.044-.37.052c-.088.01-.178.023-.267.034-.13.016-.257.027-.385.038-.083.007-.168.017-.251.022-.142.011-.282.018-.422.025l-.212.011c-.21.009-.42.013-.63.013-2.39 0-4.697-.524-6.721-1.571a12.648 12.648 0 0 1-1.885-1.195l3.503 4.776c.593.454 1.224.85 1.885 1.194 2.022 1.047 4.33 1.57 6.72 1.57.209 0 .419-.003.63-.012.07-.002.14-.008.21-.01.141-.008.283-.015.423-.026l.25-.022c.13-.011.257-.024.386-.037.09-.01.178-.023.267-.034.123-.016.247-.032.37-.051a18.899 18.899 0 0 0 .64-.109l.28-.055c.12-.025.24-.05.358-.078a16.965 16.965 0 0 0 .639-.158c.093-.025.186-.05.28-.077.12-.034.24-.07.36-.107.06-.018.122-.034.181-.052l.113-.038c.072-.023.144-.049.218-.072.118-.04.236-.08.354-.124l.218-.08c.12-.045.24-.092.36-.14l.204-.082c.137-.057.273-.116.41-.175.048-.023.098-.042.147-.064a.236.236 0 0 1 .026-.011c.028-.013.056-.028.084-.04a18.1 18.1 0 0 0 .62-.3 18.025 18.025 0 0 0 .772-.413c.04-.021.081-.04.12-.064l.047-.028a18.573 18.573 0 0 0 1.263-.792l.057-.037c.13-.09.262-.183.393-.278l.085-.062a19.534 19.534 0 0 0 1.508-1.22c.05-.044.097-.089.146-.133.09-.084.182-.165.27-.25l.014-.013c.017-.015.032-.032.048-.047.148-.142.293-.286.436-.43.046-.046.09-.094.134-.14.135-.14.267-.28.396-.423l.059-.062.015-.019c.158-.177.312-.356.462-.537.038-.044.074-.089.11-.133.132-.163.263-.327.388-.492.014-.02.03-.038.044-.057l.013-.017c.158-.21.31-.423.458-.639.03-.041.057-.083.086-.124.143-.213.282-.427.415-.642l.027-.04.086-.146.151-.256.117-.207a14.242 14.242 0 0 0 .382-.723c.036-.071.07-.142.105-.214.042-.086.082-.172.123-.259.016-.037.036-.073.052-.11l.098-.22c.237-.54.444-1.088.618-1.639.72-2.237.92-4.535.58-6.712Z"/><path fill="#F9FAFB" d="M62.095 89.035c-2.46 0-4.833-.556-6.864-1.607a13.082 13.082 0 0 1-1.931-1.224.303.303 0 0 1-.063-.063l-3.503-4.776a.313.313 0 0 1 .442-.433c.57.438 1.189.83 1.839 1.165 1.941 1.006 4.215 1.537 6.576 1.537.196 0 .404-.005.618-.013.04-.001.08-.004.12-.007l.087-.005c.14-.007.277-.014.416-.025l.16-.014.085-.009c.13-.01.255-.023.378-.037.065-.007.13-.017.196-.025l.068-.008c.12-.016.242-.032.364-.05l.243-.04.028-.005a15.749 15.749 0 0 0 .983-.194c.093-.021.185-.043.278-.066.116-.029.234-.058.351-.09.092-.025.184-.049.275-.075.118-.033.236-.07.354-.106l.04-.012a12.678 12.678 0 0 0 .462-.149c.116-.038.232-.079.348-.122.071-.026.143-.051.214-.079.118-.044.236-.09.354-.138l.055-.02.147-.059c.135-.055.268-.114.403-.172l.064-.028.08-.034.108-.052a18.642 18.642 0 0 0 1.371-.697l.068-.037c.032-.019.064-.035.096-.053a16.664 16.664 0 0 0 1.242-.78c.147-.1.296-.204.443-.31l.083-.062c.18-.132.342-.254.493-.372l.038-.03c.187-.148.362-.29.532-.431.143-.12.283-.243.422-.367l.086-.079.094-.086c.077-.07.155-.14.23-.211l.062-.06c.14-.135.28-.272.43-.423l.133-.138c.132-.137.262-.276.389-.417l.073-.079c.147-.164.296-.337.456-.529l.108-.132c.138-.168.263-.326.38-.483l.057-.072c.145-.192.292-.398.45-.628l.085-.124c.145-.212.28-.425.407-.629l.096-.158.014-.024c.05-.083.1-.167.148-.251l.102-.18.014-.025.139-.25.11-.208c.042-.083.085-.168.129-.251l.102-.21.12-.253.012-.029c.046-.099.092-.197.135-.296.235-.536.44-1.076.607-1.608.696-2.183.889-4.453.56-6.565a11.3 11.3 0 0 0-.082-.467l-.028-.133a11.506 11.506 0 0 0-.083-.377l-.035-.141a12.266 12.266 0 0 0-.343-1.13l-.06-.165c-.08-.212-.154-.401-.23-.578l-.021-.051c-.08-.185-.174-.382-.288-.605l-.086-.167c-.07-.13-.14-.26-.214-.39l-.029-.05-.064-.109a11.518 11.518 0 0 0-.628-.951.312.312 0 0 1 .503-.37l.002.002 3.5 4.773c.108.146.213.298.315.449l.005.008c.11.166.221.343.342.545.024.039.044.078.067.115l.029.051c.078.137.153.273.225.41l.02.036.035.067c.009.015.016.032.023.047l.01.025c.119.233.217.442.303.639l.023.053c.082.192.16.39.243.61l.01.029c.01.02.018.039.025.06.007.018.012.037.018.056l.01.03a11.753 11.753 0 0 1 .359 1.186l.028.114.008.033c.032.132.061.264.088.396l.008.034.012.056.009.049c.034.18.062.34.086.49.343 2.208.143 4.576-.582 6.85a16.684 16.684 0 0 1-.73 1.891l-.031.069-.022.045c-.04.088-.082.175-.124.261a11.493 11.493 0 0 1-.354.695l-.143.26-.021.037a9.736 9.736 0 0 1-.253.433l-.036.06-.051.088-.02.03c-.139.224-.28.443-.429.663l-.087.126c-.166.24-.319.453-.467.65l-.058.077c-.123.16-.255.329-.395.5l-.014.018-.097.118c-.165.198-.318.377-.47.547l-.017.02a.915.915 0 0 1-.037.038l-.023.025a23.46 23.46 0 0 1-.402.43l-.137.141c-.154.157-.3.3-.443.438l-.017.016-.032.032-.012.011c-.078.074-.157.146-.236.218l-.096.09-.093.084a19.572 19.572 0 0 1-.986.824l-.038.03c-.158.124-.325.25-.508.384l-.086.063a23.776 23.776 0 0 1-.438.309l-.02.014a18.483 18.483 0 0 1-1.283.805l-.05.03-.072.038c-.016.009-.033.017-.048.027a19.347 19.347 0 0 1-1.417.72l-.032.016c-.018.008-.036.018-.054.025l-.02.008-.098.043-.059.025c-.138.061-.277.12-.416.178l-.149.06-.058.023a19.72 19.72 0 0 1-.367.142l-.22.082-.36.126-.221.074-.047.015-.069.022c-.036.011-.072.022-.11.032l-.073.022a18.14 18.14 0 0 1-.367.109c-.094.026-.188.053-.283.078-.122.031-.243.063-.365.093a16.867 16.867 0 0 1-.651.147c-.096.02-.19.039-.287.057-.122.023-.245.044-.37.065l-.031.006-.249.04c-.126.02-.251.036-.377.051l-.069.009c-.068.008-.136.018-.202.025-.13.015-.261.026-.392.038l-.083.009c-.059.005-.115.011-.174.015-.144.011-.287.018-.43.025l-.081.004a10.902 10.902 0 0 1-.767.024Zm-8.379-3.3c.561.426 1.168.808 1.804 1.137 1.942 1.006 4.216 1.537 6.577 1.537.196 0 .404-.005.618-.013.04-.001.08-.004.12-.007l.087-.005c.139-.007.276-.014.415-.025l.162-.014.085-.009c.128-.01.253-.023.38-.037l.192-.024.07-.01c.12-.015.243-.031.364-.05l.239-.038.032-.006a14.484 14.484 0 0 0 .632-.118c.118-.024.234-.05.352-.076l.277-.066c.118-.029.234-.06.353-.09.091-.025.183-.049.273-.075.118-.033.236-.07.354-.105l.084-.026.093-.027.11-.038a16.5 16.5 0 0 0 .561-.192c.072-.026.144-.05.215-.079.118-.044.236-.09.354-.137l.06-.024.14-.055c.135-.056.27-.114.403-.172l.064-.028.08-.035.061-.028.049-.023a23.85 23.85 0 0 0 .82-.4c.183-.095.367-.195.552-.298l.063-.033.054-.03.046-.027a18.394 18.394 0 0 0 1.243-.78l.055-.035c.13-.09.259-.18.388-.274l.085-.062c.177-.13.338-.252.491-.372l.038-.031.264-.21a18.614 18.614 0 0 0 .69-.587c.029-.025.057-.052.083-.077l.1-.091c.075-.07.151-.138.225-.209a.085.085 0 0 1 .011-.01l.052-.05c.139-.131.279-.27.429-.423l.133-.138c.132-.137.263-.276.389-.416l.074-.08a19.03 19.03 0 0 0 .548-.644l.016-.018c.134-.165.263-.329.382-.483l.056-.074c.144-.189.29-.394.45-.626l.084-.122c.144-.213.28-.425.408-.631l.025-.039.046-.078.039-.065.148-.25c.032-.056.064-.111.095-.168l.02-.037c.047-.084.094-.167.138-.25a14.78 14.78 0 0 0 .238-.459l.104-.21.12-.254.052-.11.096-.213c.236-.538.44-1.078.607-1.609.696-2.183.889-4.452.56-6.565a13.165 13.165 0 0 0-.082-.465l-.027-.132a16.424 16.424 0 0 0-.083-.376l-.008-.035-.025-.106a11.462 11.462 0 0 0-.343-1.13l-.017-.05-.01-.03a.585.585 0 0 0-.012-.032l-.021-.05a11.95 11.95 0 0 0-.23-.579l-.022-.051c-.08-.186-.175-.385-.287-.607l-.022-.046-.011-.025a.706.706 0 0 0-.024-.043l-.03-.053c-.069-.132-.14-.26-.213-.39l-.03-.054-.062-.106a10.967 10.967 0 0 0-.627-.951l-1.196-1.63a12.505 12.505 0 0 1 .261.9l.036.147c.03.132.06.262.087.394l.03.139c.034.178.062.338.086.49.343 2.209.141 4.577-.582 6.85a16.382 16.382 0 0 1-.63 1.67c-.045.102-.094.205-.141.308l-.013.028-.123.262-.107.218-.134.262-.112.213c-.047.088-.096.174-.144.261l-.014.026a12.525 12.525 0 0 1-.26.445l-.014.024a17.168 17.168 0 0 1-.522.818l-.088.128c-.164.239-.316.451-.466.65l-.059.075c-.123.162-.252.326-.394.5l-.113.136c-.163.198-.318.376-.47.546l-.077.082c-.132.144-.265.287-.403.43l-.137.142c-.153.155-.297.299-.443.437l-.064.063c-.078.074-.157.146-.238.22l-.09.083-.094.086a19.541 19.541 0 0 1-.988.823l-.037.03c-.157.123-.324.25-.509.384l-.086.064a21.21 21.21 0 0 1-1.1.743 20.548 20.548 0 0 1-.746.442l-.064.036c-.188.106-.38.21-.569.307-.072.037-.144.075-.217.111-.212.107-.423.208-.63.303l-.049.022-.064.03-.091.04-.06.026a17.3 17.3 0 0 1-.572.24l-.053.021c-.122.049-.243.096-.367.142l-.222.082c-.12.043-.24.084-.36.125-.073.025-.147.05-.22.073-.087.028-.174.054-.26.08l-.04.012a17.963 17.963 0 0 1-1.014.279c-.096.024-.192.046-.288.068a17.381 17.381 0 0 1-1.02.202l-.027.004-.254.041c-.127.02-.252.036-.377.052l-.066.008c-.07.01-.138.018-.206.026-.129.016-.258.027-.387.04l-.087.008a14.695 14.695 0 0 1-.603.04l-.081.004c-.045.003-.09.006-.134.007-.222.008-.437.013-.641.013-2.461 0-4.834-.556-6.864-1.607-.154-.08-.306-.163-.456-.248l2.446 3.33ZM120.844 90.036a2.067 2.067 0 1 0 0-4.135 2.067 2.067 0 0 0 0 4.135ZM33.934 82.41a2.067 2.067 0 1 0 0-4.133 2.067 2.067 0 0 0 0 4.134ZM34.97 84.085a.728.728 0 1 0 0-1.456.728.728 0 0 0 0 1.456ZM45.217 56.419a2.067 2.067 0 1 0 0-4.134 2.067 2.067 0 0 0 0 4.134ZM47.632 53.01a.728.728 0 1 0 0-1.455.728.728 0 0 0 0 1.455Z"/><path fill="#E4E7EC" d="M126.149 45.537a3.556 3.556 0 1 0 0-7.112 3.556 3.556 0 0 0 0 7.112Z"/><path fill="#F9FAFB" d="M122.595 40.226a1.693 1.693 0 1 0 0-3.386 1.693 1.693 0 0 0 0 3.386Z"/></svg>