<svg width="106" height="81" viewBox="0 0 106 81" fill="none" xmlns="http://www.w3.org/2000/svg">
<path d="M53 80C68.464 80 81 67.464 81 52C81 36.536 68.464 24 53 24C37.536 24 25 36.536 25 52C25 67.464 37.536 80 53 80Z" fill="#059652"/>
<path d="M66.7868 40.181C67.1397 40.4698 61.9098 47.5073 55.1076 55.8923L50.9793 60.8976L50.4125 61.5821L49.8135 60.9618C44.4659 55.4752 40.8617 51.411 41.1183 51.1543C41.375 50.8976 45.4499 54.5233 50.9258 59.8388L49.7707 59.9565L53.8135 54.8976C60.6157 46.4591 66.4232 39.8923 66.7868 40.181Z" fill="#F1FEF8"/>
<path d="M55.7907 9.2825C63.7011 11.6406 68.6188 2.69493 68.6188 2.69493L63.8155 0C61.4519 5.48342 53.5605 4.84711 53.5605 4.84711L55.7907 9.2825Z" fill="#E0E0E0"/>
<path d="M24.7461 18.9199C21.0673 19.3129 20.6289 23.8419 20.6289 23.8419L23.0878 24.1226C23.0878 21.4651 26.4616 20.3797 26.4616 20.3797L24.7461 18.9199Z" fill="#6CCF00"/>
<path d="M0.185762 35.8795C-0.462317 41.494 7.12402 42.8789 7.12402 42.8789L8.49642 39.1359C3.94081 38.7242 3.29271 33.5215 3.29271 33.5215L0.185762 35.8795Z" fill="#005B82"/>
<path d="M92.4721 40.6275C96.17 40.8334 97.3518 36.4354 97.3518 36.4354L94.9691 35.7617C94.5307 38.3818 91.0234 38.9245 91.0234 38.9245L92.4721 40.6275Z" fill="#6CCF00"/>
<path d="M74.9837 18.0461C73.9993 18.3221 72.9732 18.4183 71.9547 18.33C70.9362 18.4204 69.9098 18.3242 68.9258 18.0461C70.9249 17.6422 72.9846 17.6422 74.9837 18.0461Z" fill="#E0E0E0"/>
<path d="M78.1975 9.81152C78.5762 11.8385 78.5762 13.9182 78.1975 15.9451C77.7936 13.9206 77.7936 11.8361 78.1975 9.81152Z" fill="#E0E0E0"/>
<path d="M81.6055 17.8374C82.5898 17.5613 83.6159 17.4651 84.6344 17.5534C85.6529 17.463 86.6794 17.5593 87.6634 17.8374C85.6643 18.2412 83.6046 18.2412 81.6055 17.8374Z" fill="#E0E0E0"/>
<path d="M78.4084 26.09C78.0045 24.0591 78.0045 21.9685 78.4084 19.9375C78.7869 21.9709 78.7869 24.0567 78.4084 26.09Z" fill="#E0E0E0"/>
<path d="M83.2923 22.6452C83.1787 22.7399 82.5918 22.2477 81.9861 21.5472C81.3803 20.8468 81.0206 20.1653 81.1341 20.0706C81.2477 19.976 81.8535 20.4492 82.4404 21.1686C83.0272 21.888 83.4248 22.437 83.2923 22.6452Z" fill="#E0E0E0"/>
<path d="M83.0071 13.1807C83.1207 13.3132 82.7232 13.9001 82.0984 14.5248C81.4737 15.1495 80.8868 15.566 80.7732 15.4524C80.6597 15.3388 81.0572 14.733 81.6819 14.1083C82.3067 13.4836 82.8935 13.1807 83.0071 13.1807Z" fill="#E0E0E0"/>
<path d="M76.0795 15.5844C75.9659 15.7169 75.3979 15.414 74.8111 14.9218C74.2242 14.4296 73.8456 13.9374 73.9403 13.8238C74.0349 13.7102 74.6028 13.9942 75.1897 14.4675C75.7766 14.9407 76.1741 15.4708 76.0795 15.5844Z" fill="#E0E0E0"/>
<path d="M75.7934 19.7111C75.9259 19.8057 75.5663 20.3926 74.9984 21.0173C74.4304 21.642 73.8814 22.0396 73.7679 21.926C73.6543 21.8124 73.995 21.2255 74.5629 20.6198C75.1309 20.014 75.6798 19.5975 75.7934 19.7111Z" fill="#E0E0E0"/>
<path d="M6.05789 17.1586C4.05878 17.5625 1.9991 17.5625 0 17.1586C0.984356 16.8826 2.01042 16.7864 3.02893 16.8747C4.04744 16.7843 5.07391 16.8805 6.05789 17.1586Z" fill="#005B82"/>
<path d="M9.27562 8.92383C9.67958 10.9548 9.67958 13.0454 9.27562 15.0764C8.87167 13.0454 8.87167 10.9548 9.27562 8.92383Z" fill="#005B82"/>
<path d="M12.6992 16.9699C14.6983 16.566 16.758 16.566 18.7571 16.9699C16.758 17.3737 14.6983 17.3737 12.6992 16.9699Z" fill="#005B82"/>
<path d="M9.48263 25.2049C9.07871 23.1803 9.07871 21.0959 9.48263 19.0713C9.88655 21.0959 9.88655 23.1803 9.48263 25.2049Z" fill="#005B82"/>
<path d="M14.3868 21.608C14.2543 21.7216 13.6674 21.2294 13.0806 20.51C12.4937 19.7906 12.0962 19.147 12.2287 19.0334C12.3612 18.9198 12.9291 19.431 13.5349 20.1314C14.1407 20.8319 14.5004 21.608 14.3868 21.608Z" fill="#005B82"/>
<path d="M14.1009 12.3311C14.2144 12.4447 13.798 13.0504 13.1922 13.6752C12.5864 14.2999 11.9806 14.6974 11.867 14.5838C11.7534 14.4703 12.151 13.8834 12.7757 13.2587C13.4004 12.634 13.9873 12.1418 14.1009 12.3311Z" fill="#005B82"/>
<path d="M7.1553 14.7169C7.06065 14.8305 6.49271 14.5465 5.90586 14.0543C5.319 13.5621 4.92144 13.0699 5.03502 12.9374C5.14861 12.8049 5.69761 13.1078 6.28447 13.6C6.87133 14.0922 7.26889 14.5844 7.1553 14.7169Z" fill="#005B82"/>
<path d="M6.89142 18.8247C7.005 18.9383 6.64532 19.5251 6.09632 20.1499C5.54733 20.7746 4.97939 21.1722 4.84687 21.0586C4.71436 20.945 5.09297 20.3581 5.64197 19.7523C6.19097 19.1465 6.7589 18.7111 6.89142 18.8247Z" fill="#005B82"/>
<path d="M98.9359 76.0264C97.9374 76.2281 96.9087 76.2281 95.9102 76.0264C96.4018 75.8885 96.9143 75.8405 97.423 75.8846C97.9318 75.8395 98.4445 75.8875 98.9359 76.0264Z" fill="#6CCF00"/>
<path d="M100.542 71.9141C100.744 72.9285 100.744 73.9727 100.542 74.9871C100.34 73.9727 100.34 72.9285 100.542 71.9141Z" fill="#6CCF00"/>
<path d="M102.25 75.9335C103.249 75.7318 104.277 75.7318 105.276 75.9335C104.277 76.1352 103.249 76.1352 102.25 75.9335Z" fill="#6CCF00"/>
<path d="M100.643 80.046C100.442 79.0348 100.442 77.9937 100.643 76.9824C100.845 77.9937 100.845 79.0348 100.643 80.046Z" fill="#6CCF00"/>
<path d="M103.095 78.2499C103.028 78.3067 102.735 78.0608 102.442 77.7015C102.149 77.3422 101.95 77.0207 102.017 76.964C102.083 76.9072 102.367 77.1625 102.669 77.5124C102.972 77.8622 103.151 78.2499 103.095 78.2499Z" fill="#6CCF00"/>
<path d="M102.954 73.6172C103.01 73.6739 102.802 73.9765 102.5 74.2885C102.197 74.6006 101.895 74.7991 101.838 74.7424C101.781 74.6856 101.98 74.3925 102.292 74.0805C102.604 73.7685 102.897 73.5226 102.954 73.6172Z" fill="#6CCF00"/>
<path d="M99.4828 74.8087C99.4355 74.8654 99.1518 74.7236 98.8587 74.4777C98.5656 74.2319 98.367 73.9861 98.4238 73.9199C98.4805 73.8537 98.7547 74.005 99.0478 74.2508C99.3409 74.4967 99.5395 74.7425 99.4828 74.8087Z" fill="#6CCF00"/>
<path d="M99.347 76.8596C99.4037 76.9163 99.224 77.2095 98.9498 77.5215C98.6756 77.8335 98.392 78.0321 98.3258 77.9754C98.2596 77.9186 98.4487 77.6255 98.7229 77.3229C98.9971 77.0204 99.2808 76.8029 99.347 76.8596Z" fill="#6CCF00"/>
</svg>
