<svg xmlns="http://www.w3.org/2000/svg" width="18" height="18" fill="none"><g clip-path="url(#a)"><path fill="#4285F4" d="M17.991 9.168c0-.738-.06-1.276-.194-1.834H9.18v3.329h5.059c-.102.827-.653 2.072-1.877 2.91l-.017.11 2.725 2.063.189.019c1.734-1.565 2.733-3.867 2.733-6.597Z"/><path fill="#34A853" d="M9.18 17.937c2.478 0 4.558-.797 6.078-2.172l-2.897-2.193c-.775.529-1.815.897-3.182.897a5.514 5.514 0 0 1-5.222-3.727l-.107.01-2.834 2.142-.037.1c1.51 2.93 4.61 4.943 8.2 4.943Z"/><path fill="#FBBC05" d="M3.957 10.742a5.408 5.408 0 0 1-.306-1.774c0-.618.112-1.216.296-1.774l-.005-.119-2.869-2.177-.094.044A8.81 8.81 0 0 0 0 8.968c0 1.445.357 2.81.98 4.026l2.977-2.252Z"/><path fill="#EB4335" d="M9.18 3.468c1.723 0 2.886.728 3.549 1.335l2.59-2.471C13.73.887 11.658 0 9.18 0 5.59 0 2.49 2.013.98 4.943l2.968 2.252a5.537 5.537 0 0 1 5.232-3.727Z"/></g><defs><clipPath id="a"><path fill="#fff" d="M0 0h18v18H0z"/></clipPath></defs></svg>