<svg xmlns="http://www.w3.org/2000/svg" width="24" height="24" fill="none"><g clip-path="url(#a)"><path fill="url(#b)" d="M12.244-.242c-5.01 0-6.475.005-6.76.029C4.456-.128 3.816.034 3.12.38a4.79 4.79 0 0 0-1.378 1.01C.979 2.18.518 3.154.35 4.31c-.082.56-.105.675-.11 3.542-.002.955 0 2.213 0 3.9 0 5.007.006 6.471.03 6.756.083 1 .24 1.63.572 2.319a5.056 5.056 0 0 0 3.276 2.677c.495.127 1.041.197 1.742.23.298.014 3.327.023 6.357.023 3.031 0 6.062-.004 6.352-.019.812-.038 1.284-.101 1.805-.236a5.023 5.023 0 0 0 3.276-2.683c.326-.672.491-1.325.566-2.274.016-.207.023-3.503.023-6.796s-.007-6.584-.024-6.79c-.074-.965-.24-1.612-.576-2.297a4.754 4.754 0 0 0-1.028-1.408C21.82.496 20.848.035 19.691-.132c-.56-.081-.673-.105-3.54-.11h-3.907Z"/><path fill="url(#c)" d="M12.244-.242c-5.01 0-6.475.005-6.76.029C4.456-.128 3.816.034 3.12.38a4.79 4.79 0 0 0-1.378 1.01C.979 2.18.518 3.154.35 4.31c-.082.56-.105.675-.11 3.542-.002.955 0 2.213 0 3.9 0 5.007.006 6.471.03 6.756.083 1 .24 1.63.572 2.319a5.056 5.056 0 0 0 3.276 2.677c.495.127 1.041.197 1.742.23.298.014 3.327.023 6.357.023 3.031 0 6.062-.004 6.352-.019.812-.038 1.284-.101 1.805-.236a5.023 5.023 0 0 0 3.276-2.683c.326-.672.491-1.325.566-2.274.016-.207.023-3.503.023-6.796s-.007-6.584-.024-6.79c-.074-.965-.24-1.612-.576-2.297a4.754 4.754 0 0 0-1.028-1.408C21.82.496 20.848.035 19.691-.132c-.56-.081-.673-.105-3.54-.11h-3.907Z"/><path stroke="#fff" stroke-width="1.706" d="M12.24 15.499a3.813 3.813 0 1 0 0-7.626 3.813 3.813 0 0 0 0 7.626Z"/><path stroke="#fff" stroke-width="1.729" d="M15.914 3.64H8.566a4.48 4.48 0 0 0-4.481 4.481v7.275a4.48 4.48 0 0 0 4.48 4.48h7.349a4.48 4.48 0 0 0 4.48-4.48V8.12a4.48 4.48 0 0 0-4.48-4.48Z"/><path fill="#fff" d="M17.092 8.084a1.083 1.083 0 1 0 0-2.166 1.083 1.083 0 0 0 0 2.166Z"/></g><defs><radialGradient id="b" cx="0" cy="0" r="1" gradientTransform="matrix(0 -23.7853 22.1224 0 6.614 25.607)" gradientUnits="userSpaceOnUse"><stop stop-color="#FD5"/><stop offset=".1" stop-color="#FD5"/><stop offset=".5" stop-color="#FF543E"/><stop offset="1" stop-color="#C837AB"/></radialGradient><radialGradient id="c" cx="0" cy="0" r="1" gradientTransform="matrix(2.08681 10.4255 -42.9733 8.60683 -3.782 1.484)" gradientUnits="userSpaceOnUse"><stop stop-color="#3771C8"/><stop offset=".128" stop-color="#3771C8"/><stop offset="1" stop-color="#60F" stop-opacity="0"/></radialGradient><clipPath id="a"><path fill="#fff" d="M0 0h24v24H0z"/></clipPath></defs></svg>