<svg xmlns="http://www.w3.org/2000/svg" width="41" height="40" fill="none"><g fill-rule="evenodd" clip-path="url(#a)" clip-rule="evenodd"><path fill="url(#b)" d="M20.15.047C8.892.084-.769 8.225.052 20.044c.235 3.389.638 5.903 2.58 9.197.991 1.684 1.895 2.758 3.313 4.08.303.28.606.605.766.998.172.423.198 1.666.21 2.526.012 1.005-.215 2.105.692 2.795.957.73 1.973-.027 2.946-.419.752-.322 2.15-1.049 2.86-1.23.334-.087.625-.045 1.203.098 1.988.412 3.435.63 5.507.648 3.04.026 5.727-.533 8.526-1.742 7.093-3.495 11.104-9.144 11.378-16.994C40.452 8.034 32.197.007 20.149.047Z"/><path fill="url(#c)" d="M20.15.047C8.892.084-.769 8.225.052 20.044c.235 3.389.638 5.903 2.58 9.197.991 1.684 1.895 2.758 3.313 4.08.303.28.606.605.766.998.172.423.198 1.666.21 2.526.012 1.005-.215 2.105.692 2.795.957.73 1.973-.027 2.946-.419.752-.322 2.15-1.049 2.86-1.23.334-.087.625-.045 1.203.098 1.988.412 3.435.63 5.507.648 3.04.026 5.727-.533 8.526-1.742 7.093-3.495 11.104-9.144 11.378-16.994C40.452 8.034 32.197.007 20.149.047Z"/><path fill="#fff" d="M23.712 18.703c-.608 0-1.001-.439-1.434-.76l-3.606-2.712c-.795-.596-1.181-.864-2.348-.864-.904 0-1.651.487-2.18 1.139-.096.118-.18.288-.272.424l-.257.385-1.304 2.07-.24.403-1.551 2.462c-.597.975-1.265 1.893-1.816 2.896-.23.42-.751.91-.773 1.403a.898.898 0 0 0 .293.719c.4.357.898.317 1.277.014.172-.137.302-.203.465-.339.162-.134.283-.225.459-.344l2.389-1.84a1.35 1.35 0 0 1 .03-.024l3.018-2.282c.685-.436 1.187-.054 1.685.31l3.886 2.913c1.036.776 2.285 1.465 3.781.562.672-.405 1.097-.99 1.48-1.68.134-.243.261-.4.394-.622l2.834-4.5c.137-.205.245-.415.385-.633l1.405-2.235c.21-.313.503-.643.581-1.026.156-.767-.746-1.438-1.546-.849l-.368.274c-.009.007-.02.018-.03.025l-.057.05c-.161.136-.295.207-.461.341-1.294 1.05-2.699 1.966-3.977 3.036l-1.04.78c-.328.245-.554.504-1.102.504Z"/></g><defs><linearGradient id="b" x1="20.026" x2="20.026" y1="31.135" y2="7.631" gradientUnits="userSpaceOnUse"><stop stop-color="#1776B8"/><stop offset="1" stop-color="#31BAEC"/></linearGradient><linearGradient id="c" x1="20.026" x2="20.026" y1="31.135" y2="7.631" gradientUnits="userSpaceOnUse"><stop stop-color="#036DFD"/><stop offset=".502" stop-color="#0192FF"/><stop offset="1" stop-color="#00B6F8"/></linearGradient><clipPath id="a"><path fill="#fff" d="M0 0h40.068v40H0z"/></clipPath></defs></svg>