<svg xmlns="http://www.w3.org/2000/svg" width="40" height="40" fill="none"><g clip-path="url(#a)"><path fill="#FFFC00" d="M0 0h40v40H0"/><path fill="#fff" stroke="#000" stroke-width=".781" d="M19.14 7.107c1.354-.105 2.63.078 3.828.546a6.485 6.485 0 0 1 3.985 3.829c.312.885.442 1.823.39 2.812 0 .469-.234 1.64.079 1.875h1.484c.625-.078 1.406.156 1.64 1.016.157.468.13.885-.078 1.25-.312.78-1.25 1.172-1.875 1.64-.312.105-.52.339-.625.703-.104.26-.078.573.079.938.208.73.625 1.354 1.25 1.875a9.89 9.89 0 0 0 1.953 1.64c.703.391 1.953.782 1.718 1.797-.052.313-.182.521-.39.625l-.469.313c-.469.26-.912.443-1.328.547a1.844 1.844 0 0 0-.86.39c-.468.313-.39.86-.78 1.172-.938.782-2.579.39-3.673.782-.52.156-1.015.39-1.484.703l-1.484.78-1.563.391c-1.51.157-2.917-.104-4.219-.78-1.015-.548-1.718-1.095-2.812-1.329-.86-.156-2.344.078-3.047-.469-.39-.312-.39-.937-.781-1.25l-1.172-.468c-.781-.313-2.031-.703-1.953-1.72.078-.937 1.406-1.25 2.031-1.718.937-.52 1.745-1.25 2.422-2.187.469-.573.677-1.198.625-1.875-.156-.47-.443-.782-.86-.938-.624-.469-1.484-.937-1.718-1.64a2.09 2.09 0 0 1-.157-.782c.105-.625.417-1.067.938-1.328l.703-.078 1.25.078.313-.156c.104-.26.13-.573.078-.938v-1.015l.156-1.64.313-1.016c1.015-2.579 3.437-3.985 6.093-4.375Z"/></g><defs><clipPath id="a"><rect width="40" height="40" fill="#fff" rx="20"/></clipPath></defs></svg>