<svg xmlns="http://www.w3.org/2000/svg" width="40" height="40" fill="none"><g clip-path="url(#a)"><path fill="url(#b)" d="M20 0A20.006 20.006 0 0 0 0 20a20.006 20.006 0 0 0 20 20 20.006 20.006 0 0 0 20-20A20.006 20.006 0 0 0 20 0Z"/><path fill="#fff" d="M9.051 19.788c5.832-2.54 9.72-4.215 11.663-5.024 5.556-2.31 6.71-2.711 7.462-2.725.166-.002.535.038.775.233.2.164.257.386.285.542.025.155.06.51.031.787-.3 3.162-1.603 10.837-2.266 14.379-.278 1.499-.83 2.001-1.365 2.05-1.163.107-2.044-.767-3.169-1.504-1.76-1.154-2.753-1.873-4.462-2.999-1.975-1.3-.694-2.016.43-3.185.295-.306 5.413-4.96 5.51-5.383.013-.052.025-.25-.094-.353-.115-.104-.287-.069-.412-.04-.178.04-2.988 1.898-8.438 5.576-.796.548-1.518.815-2.168.8-.713-.015-2.088-.403-3.11-.735-1.25-.407-2.247-.622-2.16-1.314.045-.36.542-.728 1.488-1.105Z"/></g><defs><linearGradient id="b" x1="2000" x2="2000" y1="0" y2="4000" gradientUnits="userSpaceOnUse"><stop stop-color="#2AABEE"/><stop offset="1" stop-color="#229ED9"/></linearGradient><clipPath id="a"><path fill="#fff" d="M0 0h40v40H0z"/></clipPath></defs></svg>