<svg xmlns="http://www.w3.org/2000/svg" width="24" height="24" fill="none"><path fill="#FF004F" d="M17.192 8.662a9.362 9.362 0 0 0 5.476 1.76V6.477c-.387 0-.772-.04-1.15-.121V9.46a9.364 9.364 0 0 1-5.476-1.759v8.048c0 4.026-3.252 7.289-7.263 7.289a7.21 7.21 0 0 1-4.044-1.233A7.229 7.229 0 0 0 9.928 24c4.012 0 7.264-3.263 7.264-7.29V8.663Zm1.418-3.978a5.506 5.506 0 0 1-1.418-3.218V.96h-1.09a5.522 5.522 0 0 0 2.508 3.725ZM7.272 18.717a3.328 3.328 0 0 1-.677-2.019 3.328 3.328 0 0 1 4.33-3.178V9.49a7.302 7.302 0 0 0-1.15-.067v3.138a3.328 3.328 0 0 0-4.33 3.178c0 1.302.743 2.43 1.827 2.979Z"/><path fill="#000" d="M16.042 7.702a9.364 9.364 0 0 0 5.476 1.759V6.357a5.492 5.492 0 0 1-2.908-1.673A5.521 5.521 0 0 1 16.102.959h-2.863v15.75a3.329 3.329 0 0 1-3.322 3.324 3.314 3.314 0 0 1-2.645-1.316 3.335 3.335 0 0 1-1.828-2.979 3.328 3.328 0 0 1 4.331-3.178V9.422c-3.94.082-7.11 3.313-7.11 7.288 0 1.984.79 3.782 2.07 5.096A7.21 7.21 0 0 0 8.78 23.04c4.01 0 7.263-3.263 7.263-7.29V7.703Z"/><path fill="#00F2EA" d="M21.518 6.358v-.84a5.46 5.46 0 0 1-2.908-.833 5.487 5.487 0 0 0 2.908 1.673ZM16.102.96a5.702 5.702 0 0 1-.06-.453V0h-3.953v15.75a3.328 3.328 0 0 1-3.322 3.324 3.299 3.299 0 0 1-1.495-.356 3.314 3.314 0 0 0 2.645 1.316 3.329 3.329 0 0 0 3.322-3.323V.96h2.863ZM9.775 9.423V8.53a7.308 7.308 0 0 0-.996-.068c-4.012 0-7.264 3.263-7.264 7.289a7.289 7.289 0 0 0 3.22 6.056 7.277 7.277 0 0 1-2.07-5.096c0-3.974 3.17-7.206 7.11-7.288Z"/></svg>