<svg xmlns="http://www.w3.org/2000/svg" width="48" height="48" fill="none"><path fill="#00E510" d="M24.046 4h-.091C12.933 4 4 12.934 4 23.954v.091C4 35.067 12.934 44 23.954 44h.091C35.067 44 44 35.066 44 24.046v-.091C44 12.933 35.066 4 24.046 4Z"/><path fill="#FDFDFD" d="M27.899 29.85c-5.12 0-9.284-4.167-9.286-9.286a2.358 2.358 0 0 1 2.744-2.32c.278.047.541.14.784.282a.132.132 0 0 1 .064.094l.541 3.41a.129.129 0 0 1-.032.109c-.299.33-.68.569-1.104.688l-.205.058.077.197a6.926 6.926 0 0 0 3.897 3.898l.198.078.057-.205c.12-.424.358-.806.688-1.104a.129.129 0 0 1 .089-.034c.007 0 .014 0 .022.002l3.41.54c.04.008.074.03.095.065a2.361 2.361 0 0 1 .314 1.175 2.357 2.357 0 0 1-2.353 2.352Z"/><path fill="#FDFDFD" d="M36.976 22.876a12.561 12.561 0 0 0-4.025-8.148 12.56 12.56 0 0 0-8.526-3.33c-6.948 0-12.601 5.654-12.601 12.602 0 2.332.643 4.603 1.86 6.582l-2.715 6.012 8.695-.926a12.49 12.49 0 0 0 4.76.933c.433 0 .877-.022 1.323-.069.392-.042.788-.103 1.178-.182 5.819-1.175 10.066-6.34 10.1-12.283V24c0-.379-.017-.757-.05-1.124ZM19.999 33.029l-4.81.513 1.436-3.183-.288-.385-.065-.088A9.971 9.971 0 0 1 14.366 24c0-5.547 4.512-10.059 10.059-10.059 5.196 0 9.6 4.054 10.025 9.23.023.277.036.556.036.83 0 .08-.002.156-.003.239a10.032 10.032 0 0 1-8.937 9.758 9.952 9.952 0 0 1-5.363-.879L20 33.032l-.002-.003Z"/></svg>